LibertinusSerif-Regular.ufo
<glyph name="numbersign" format="2">
	<unicode hex="0023"/>
	<advance width="465"/>
	<outline>
		<contour>
			<point x="335" y="360" type="line"/>
			<point x="430" y="360" type="line"/>
			<point x="438" y="413" type="line"/>
			<point x="342" y="413" type="line"/>
			<point x="371" y="592" type="line"/>
			<point x="333" y="592" type="line"/>
			<point x="328.299" y="561.944"/>
			<point x="309.701" y="443.056"/>
			<point x="305" y="413" type="curve"/>
			<point x="191" y="413" type="line"/>
			<point x="221" y="592" type="line"/>
			<point x="183" y="592" type="line"/>
			<point x="178.135" y="561.971"/>
			<point x="158.865" y="443.029"/>
			<point x="154" y="413" type="curve"/>
			<point x="61" y="413" type="line"/>
			<point x="53" y="360" type="line"/>
			<point x="146" y="360" type="line"/>
			<point x="142.899" y="340.186"/>
			<point x="131.113" y="264.892"/>
			<point x="128" y="245" type="curve"/>
			<point x="34" y="245" type="line"/>
			<point x="26" y="192" type="line"/>
			<point x="119" y="192" type="line"/>
			<point x="91" y="14" type="line"/>
			<point x="128" y="14" type="line"/>
			<point x="132.875" y="43.9208"/>
			<point x="151.963" y="161.083"/>
			<point x="157" y="192" type="curve"/>
			<point x="269" y="192" type="line"/>
			<point x="242" y="14" type="line"/>
			<point x="280" y="14" type="line"/>
			<point x="285.037" y="43.8885"/>
			<point x="304.794" y="161.11"/>
			<point x="310" y="192" type="curve"/>
			<point x="404" y="192" type="line"/>
			<point x="411" y="245" type="line"/>
			<point x="316" y="245" type="line"/>
		</contour>
		<contour>
			<point x="279" y="245" type="line"/>
			<point x="165" y="245" type="line"/>
			<point x="168.276" y="264.83"/>
			<point x="180.724" y="340.17"/>
			<point x="184" y="360" type="curve"/>
			<point x="297" y="360" type="line"/>
		</contour>
	</outline>
</glyph>
<glyph name="dollar" format="2">
	<unicode hex="0024"/>
	<advance width="465"/>
	<outline>
		<contour>
			<point x="48" y="12" type="curve"/>
			<point x="102" y="12"/>
			<point x="153" y="-9"/>
			<point x="212" y="-9" type="curve" smooth="yes"/>
			<point x="316" y="-9"/>
			<point x="417" y="57"/>
			<point x="417" y="171" type="curve" smooth="yes"/>
			<point x="417" y="241"/>
			<point x="361" y="306"/>
			<point x="268" y="341" type="curve" smooth="yes"/>
			<point x="213" y="362" type="line" smooth="yes"/>
			<point x="157" y="383"/>
			<point x="118" y="407"/>
			<point x="118" y="476" type="curve" smooth="yes"/>
			<point x="118" y="534"/>
			<point x="170" y="578"/>
			<point x="226" y="578" type="curve" smooth="yes"/>
			<point x="303" y="578"/>
			<point x="337" y="525"/>
			<point x="357" y="459" type="curve"/>
			<point x="366" y="459"/>
			<point x="380" y="460"/>
			<point x="388" y="465" type="curve"/>
			<point x="385" y="510"/>
			<point x="381" y="536"/>
			<point x="371" y="585" type="curve"/>
			<point x="320" y="591"/>
			<point x="293" y="610"/>
			<point x="231" y="610" type="curve" smooth="yes"/>
			<point x="136" y="610"/>
			<point x="51" y="552"/>
			<point x="51" y="451" type="curve" smooth="yes"/>
			<point x="51" y="365"/>
			<point x="91" y="321"/>
			<point x="202" y="281" type="curve" smooth="yes"/>
			<point x="238" y="268" type="line" smooth="yes"/>
			<point x="307" y="243"/>
			<point x="339" y="202"/>
			<point x="339" y="139" type="curve" smooth="yes"/>
			<point x="339" y="61"/>
			<point x="295" y="23"/>
			<point x="219" y="23" type="curve" smooth="yes"/>
			<point x="130" y="23"/>
			<point x="78" y="71"/>
			<point x="59" y="156" type="curve"/>
			<point x="48" y="160"/>
			<point x="38" y="158"/>
			<point x="29" y="153" type="curve"/>
			<point x="33" y="81"/>
			<point x="37" y="58"/>
		</contour>
		<contour>
			<point x="187" y="11" type="line"/>
			<point x="224" y="9" type="line"/>
			<point x="239" y="283" type="line"/>
			<point x="203" y="296" type="line"/>
		</contour>
		<contour>
			<point x="206" y="352" type="line"/>
			<point x="242" y="336" type="line"/>
			<point x="256" y="590" type="line"/>
			<point x="220" y="593" type="line"/>
		</contour>
		<contour>
			<point x="182" y="-98" type="line"/>
			<point x="192" y="-98"/>
			<point x="211" y="-97"/>
			<point x="219" y="-93" type="curve"/>
			<point x="224" y="6" type="line"/>
			<point x="188" y="7" type="line"/>
		</contour>
		<contour>
			<point x="219" y="595" type="line"/>
			<point x="256" y="594" type="line"/>
			<point x="262" y="695" type="line"/>
			<point x="249" y="695"/>
			<point x="234" y="693"/>
			<point x="225" y="690" type="curve"/>
		</contour>
	</outline>
</glyph>
<glyph name="percent" format="2">
	<unicode hex="0025"/>
	<advance width="637"/>
	<outline>
		<contour>
			<point x="57" y="412" type="curve" smooth="yes"/>
			<point x="57" y="361"/>
			<point x="87" y="303"/>
			<point x="149" y="303" type="curve" smooth="yes"/>
			<point x="233" y="303"/>
			<point x="277" y="416"/>
			<point x="277" y="480" type="curve" smooth="yes"/>
			<point x="277" y="489"/>
			<point x="276" y="498"/>
			<point x="274" y="505" type="curve"/>
			<point x="293" y="494"/>
			<point x="331" y="484"/>
			<point x="354" y="484" type="curve" smooth="yes"/>
			<point x="384" y="484"/>
			<point x="423" y="488"/>
			<point x="461" y="503" type="curve"/>
			<point x="102" y="3" type="line"/>
			<point x="136" y="-12" type="line"/>
			<point x="546" y="559" type="line"/>
			<point x="514" y="575" type="line"/>
			<point x="483" y="533"/>
			<point x="406" y="521"/>
			<point x="364" y="521" type="curve" smooth="yes"/>
			<point x="346" y="521"/>
			<point x="311" y="521"/>
			<point x="257" y="546" type="curve"/>
			<point x="247" y="558"/>
			<point x="218" y="571"/>
			<point x="190" y="571" type="curve" smooth="yes"/>
			<point x="118" y="571"/>
			<point x="57" y="500"/>
		</contour>
		<contour>
			<point x="378" y="98" type="curve" smooth="yes"/>
			<point x="378" y="45"/>
			<point x="410" y="-12"/>
			<point x="471" y="-12" type="curve" smooth="yes"/>
			<point x="554" y="-12"/>
			<point x="598" y="98"/>
			<point x="598" y="165" type="curve" smooth="yes"/>
			<point x="598" y="238"/>
			<point x="552" y="256"/>
			<point x="512" y="256" type="curve" smooth="yes"/>
			<point x="438" y="256"/>
			<point x="378" y="180"/>
		</contour>
		<contour>
			<point x="111" y="398" type="curve" smooth="yes"/>
			<point x="111" y="456"/>
			<point x="152" y="540"/>
			<point x="201" y="540" type="curve" smooth="yes"/>
			<point x="219" y="540"/>
			<point x="244" y="529"/>
			<point x="244" y="479" type="curve" smooth="yes"/>
			<point x="244" y="421"/>
			<point x="210" y="334"/>
			<point x="155" y="334" type="curve" smooth="yes"/>
			<point x="137" y="334"/>
			<point x="111" y="346"/>
		</contour>
		<contour>
			<point x="433" y="83" type="curve" smooth="yes"/>
			<point x="433" y="141"/>
			<point x="474" y="225"/>
			<point x="523" y="225" type="curve" smooth="yes"/>
			<point x="537" y="225"/>
			<point x="565" y="216"/>
			<point x="565" y="164" type="curve" smooth="yes"/>
			<point x="565" y="108"/>
			<point x="532" y="19"/>
			<point x="477" y="19" type="curve" smooth="yes"/>
			<point x="458" y="19"/>
			<point x="433" y="31"/>
		</contour>
	</outline>
</glyph>
<glyph name="quotesingle" format="2">
	<unicode hex="0027"/>
	<advance width="190"/>
	<outline>
		<contour>
			<point x="79" y="426" type="line"/>
			<point x="90" y="424" type="line"/>
			<point x="106" y="430" type="line"/>
			<point x="139" y="611" type="line"/>
			<point x="139" y="627"/>
			<point x="130" y="644"/>
			<point x="105" y="644" type="curve" smooth="yes"/>
			<point x="74" y="644"/>
			<point x="53" y="616"/>
			<point x="53" y="594" type="curve"/>
		</contour>
	</outline>
</glyph>
<glyph name="parenleft" format="2">
	<unicode hex="0028"/>
	<advance width="298"/>
	<outline>
		<contour>
			<point x="44" y="252" type="curve" smooth="yes"/>
			<point x="44" y="207"/>
			<point x="48" y="-24"/>
			<point x="256" y="-204" type="curve"/>
			<point x="266" y="-202"/>
			<point x="274" y="-195"/>
			<point x="277" y="-187" type="curve"/>
			<point x="244" y="-149"/>
			<point x="127" y="-11"/>
			<point x="127" y="252" type="curve" smooth="yes"/>
			<point x="127" y="515"/>
			<point x="245" y="653"/>
			<point x="277" y="689" type="curve"/>
			<point x="274" y="699"/>
			<point x="267" y="706"/>
			<point x="256" y="707" type="curve"/>
			<point x="137" y="605"/>
			<point x="44" y="438"/>
		</contour>
	</outline>
</glyph>
<glyph name="asterisk" format="2">
	<unicode hex="002A"/>
	<advance width="369"/>
	<outline>
		<contour>
			<point x="168" y="547" type="curve"/>
			<point x="135" y="510"/>
			<point x="84" y="502"/>
			<point x="84" y="459" type="curve" smooth="yes"/>
			<point x="84" y="444"/>
			<point x="96" y="431"/>
			<point x="113" y="431" type="curve" smooth="yes"/>
			<point x="151" y="431"/>
			<point x="158" y="490"/>
			<point x="183" y="535" type="curve"/>
			<point x="208" y="496"/>
			<point x="215" y="431"/>
			<point x="254" y="431" type="curve" smooth="yes"/>
			<point x="268" y="431"/>
			<point x="283" y="442"/>
			<point x="283" y="460" type="curve" smooth="yes"/>
			<point x="283" y="500"/>
			<point x="234" y="510"/>
			<point x="200" y="547" type="curve"/>
			<point x="218" y="550"/>
			<point x="236" y="551"/>
			<point x="255" y="551" type="curve" smooth="yes"/>
			<point x="289" y="551"/>
			<point x="324" y="558"/>
			<point x="324" y="588" type="curve" smooth="yes"/>
			<point x="324" y="598"/>
			<point x="317" y="618"/>
			<point x="290" y="618" type="curve" smooth="yes"/>
			<point x="287" y="618"/>
			<point x="285" y="618"/>
			<point x="283" y="617" type="curve"/>
			<point x="254" y="613"/>
			<point x="237" y="584"/>
			<point x="195" y="566" type="curve"/>
			<point x="197" y="596"/>
			<point x="214" y="636"/>
			<point x="214" y="663" type="curve" smooth="yes"/>
			<point x="214" y="687"/>
			<point x="199" y="698"/>
			<point x="181" y="698" type="curve" smooth="yes"/>
			<point x="163" y="698"/>
			<point x="151" y="680"/>
			<point x="151" y="659" type="curve" smooth="yes"/>
			<point x="151" y="633"/>
			<point x="170" y="606"/>
			<point x="174" y="567" type="curve"/>
			<point x="130" y="585"/>
			<point x="112" y="618"/>
			<point x="78" y="618" type="curve" smooth="yes"/>
			<point x="54" y="618"/>
			<point x="45" y="602"/>
			<point x="45" y="588" type="curve" smooth="yes"/>
			<point x="45" y="558"/>
			<point x="77" y="551"/>
			<point x="126" y="551" type="curve" smooth="yes"/>
			<point x="135" y="551"/>
			<point x="144" y="551"/>
			<point x="152" y="550" type="curve"/>
			<point x="157" y="549"/>
			<point x="163" y="548"/>
		</contour>
	</outline>
</glyph>
<glyph name="comma" format="2">
	<unicode hex="002C"/>
	<advance width="220"/>
	<outline>
		<contour>
			<point x="104" y="95" type="curve" smooth="yes"/>
			<point x="73" y="95"/>
			<point x="51" y="74"/>
			<point x="51" y="46" type="curve" smooth="yes"/>
			<point x="51" y="19"/>
			<point x="71" y="8"/>
			<point x="88" y="3" type="curve"/>
			<point x="90" y="3"/>
			<point x="93" y="2"/>
			<point x="95" y="2" type="curve"/>
			<point x="111" y="0"/>
			<point x="125" y="-4"/>
			<point x="130" y="-19" type="curve" smooth="yes"/>
			<point x="131" y="-22"/>
			<point x="131" y="-25"/>
			<point x="131" y="-29" type="curve" smooth="yes"/>
			<point x="131" y="-50"/>
			<point x="95" y="-96"/>
			<point x="43" y="-109" type="curve"/>
			<point x="43" y="-119"/>
			<point x="45" y="-126"/>
			<point x="52" y="-133" type="curve"/>
			<point x="82" y="-128"/>
			<point x="112" y="-113"/>
			<point x="134" y="-91" type="curve" smooth="yes"/>
			<point x="156" y="-69"/>
			<point x="170" y="-39"/>
			<point x="170" y="-4" type="curve" smooth="yes"/>
			<point x="170" y="56"/>
			<point x="144" y="95"/>
		</contour>
	</outline>
</glyph>
<glyph name="zero" format="2">
	<unicode hex="0030"/>
	<advance width="465"/>
	<outline>
		<contour>
			<point x="228" y="-10" type="curve" smooth="yes"/>
			<point x="339" y="-10"/>
			<point x="422" y="123"/>
			<point x="422" y="303" type="curve" smooth="yes"/>
			<point x="422" y="477"/>
			<point x="340" y="610"/>
			<point x="232" y="610" type="curve" smooth="yes"/>
			<point x="122" y="610"/>
			<point x="39" y="474"/>
			<point x="39" y="294" type="curve" smooth="yes"/>
			<point x="39" y="123"/>
			<point x="122" y="-10"/>
		</contour>
		<contour>
			<point x="232" y="575" type="curve" smooth="yes"/>
			<point x="293" y="575"/>
			<point x="335" y="472"/>
			<point x="335" y="322" type="curve" smooth="yes"/>
			<point x="335" y="134"/>
			<point x="296" y="25"/>
			<point x="229" y="25" type="curve" smooth="yes"/>
			<point x="165" y="25"/>
			<point x="126" y="123"/>
			<point x="126" y="283" type="curve" smooth="yes"/>
			<point x="126" y="468"/>
			<point x="165" y="575"/>
		</contour>
	</outline>
</glyph>
<glyph name="one" format="2">
	<unicode hex="0031"/>
	<advance width="465"/>
	<outline>
		<contour>
			<point x="288" y="122" type="curve" smooth="yes"/>
			<point x="288" y="469" type="line" smooth="yes"/>
			<point x="288" y="529"/>
			<point x="289" y="590"/>
			<point x="291" y="603" type="curve"/>
			<point x="291" y="608"/>
			<point x="289" y="608"/>
			<point x="285" y="608" type="curve"/>
			<point x="274" y="601"/>
			<point x="263" y="595"/>
			<point x="252" y="588" type="curve"/>
			<point x="207" y="563"/>
			<point x="159" y="541"/>
			<point x="89" y="508" type="curve"/>
			<point x="91" y="497"/>
			<point x="95" y="487"/>
			<point x="104" y="481" type="curve"/>
			<point x="150" y="500"/>
			<point x="172" y="506"/>
			<point x="191" y="506" type="curve" smooth="yes"/>
			<point x="208" y="506"/>
			<point x="211" y="482"/>
			<point x="211" y="448" type="curve" smooth="yes"/>
			<point x="211" y="122" type="line" smooth="yes"/>
			<point x="211" y="39"/>
			<point x="184" y="34"/>
			<point x="114" y="31" type="curve"/>
			<point x="108" y="25"/>
			<point x="108" y="4"/>
			<point x="114" y="-2" type="curve"/>
			<point x="163" y="-1"/>
			<point x="199" y="0"/>
			<point x="253" y="0" type="curve" smooth="yes"/>
			<point x="301" y="0"/>
			<point x="325" y="-1"/>
			<point x="375" y="-2" type="curve"/>
			<point x="381" y="4"/>
			<point x="381" y="25"/>
			<point x="375" y="31" type="curve"/>
			<point x="305" y="34"/>
			<point x="288" y="39"/>
		</contour>
	</outline>
</glyph>
<glyph name="five" format="2">
	<unicode hex="0035"/>
	<advance width="465"/>
	<outline>
		<contour>
			<point x="319" y="189" type="curve" smooth="yes"/>
			<point x="319" y="94"/>
			<point x="269" y="24"/>
			<point x="209" y="24" type="curve" smooth="yes"/>
			<point x="179" y="24"/>
			<point x="164" y="40"/>
			<point x="152" y="57" type="curve"/>
			<point x="149" y="61"/>
			<point x="146" y="65"/>
			<point x="143" y="69" type="curve" smooth="yes"/>
			<point x="130" y="86"/>
			<point x="113" y="101"/>
			<point x="92" y="101" type="curve" smooth="yes"/>
			<point x="73" y="101"/>
			<point x="54" y="84"/>
			<point x="54" y="64" type="curve" smooth="yes"/>
			<point x="54" y="48"/>
			<point x="68" y="32"/>
			<point x="88" y="20" type="curve" smooth="yes"/>
			<point x="118" y="1"/>
			<point x="162" y="-11"/>
			<point x="196" y="-11" type="curve" smooth="yes"/>
			<point x="203" y="-11"/>
			<point x="209" y="-11"/>
			<point x="215" y="-10" type="curve"/>
			<point x="329" y="-1"/>
			<point x="408" y="88"/>
			<point x="408" y="207" type="curve" smooth="yes"/>
			<point x="408" y="213"/>
			<point x="408" y="219"/>
			<point x="407" y="225" type="curve"/>
			<point x="400" y="309"/>
			<point x="342" y="381"/>
			<point x="249" y="390" type="curve"/>
			<point x="243" y="391"/>
			<point x="236" y="391"/>
			<point x="229" y="391" type="curve" smooth="yes"/>
			<point x="186" y="391"/>
			<point x="149" y="382"/>
			<point x="131" y="375" type="curve"/>
			<point x="151" y="542" type="line"/>
			<point x="188" y="538"/>
			<point x="220" y="533"/>
			<point x="268" y="533" type="curve" smooth="yes"/>
			<point x="273" y="533"/>
			<point x="278" y="533"/>
			<point x="283" y="533" type="curve"/>
			<point x="310" y="534"/>
			<point x="339" y="536"/>
			<point x="373" y="539" type="curve"/>
			<point x="389" y="607" type="line"/>
			<point x="382" y="611" type="line"/>
			<point x="331" y="606"/>
			<point x="282" y="601"/>
			<point x="234" y="600" type="curve"/>
			<point x="229" y="600"/>
			<point x="223" y="600"/>
			<point x="218" y="600" type="curve" smooth="yes"/>
			<point x="181" y="600"/>
			<point x="145" y="602"/>
			<point x="110" y="605" type="curve"/>
			<point x="76" y="317" type="line"/>
			<point x="83" y="320"/>
			<point x="89" y="322"/>
			<point x="95" y="324" type="curve" smooth="yes"/>
			<point x="138" y="338"/>
			<point x="172" y="341"/>
			<point x="203" y="341" type="curve" smooth="yes"/>
			<point x="208" y="341"/>
			<point x="213" y="341"/>
			<point x="218" y="340" type="curve"/>
			<point x="276" y="334"/>
			<point x="319" y="290"/>
		</contour>
	</outline>
</glyph>
<glyph name="seven" format="2">
	<unicode hex="0037"/>
	<advance width="465"/>
	<outline>
		<contour>
			<point x="170" y="535" type="curve" smooth="yes"/>
			<point x="349" y="535" type="line"/>
			<point x="271" y="341"/>
			<point x="192" y="146"/>
			<point x="124" y="-6" type="curve"/>
			<point x="132" y="-13" type="line"/>
			<point x="200" y="-10" type="line"/>
			<point x="257" y="160"/>
			<point x="312" y="326"/>
			<point x="424" y="599" type="curve"/>
			<point x="408" y="611" type="line"/>
			<point x="391" y="606"/>
			<point x="369" y="600"/>
			<point x="331" y="600" type="curve" smooth="yes"/>
			<point x="125" y="600" type="line" smooth="yes"/>
			<point x="91" y="600"/>
			<point x="93" y="610"/>
			<point x="75" y="614" type="curve"/>
			<point x="72" y="614"/>
			<point x="71" y="614"/>
			<point x="71" y="611" type="curve"/>
			<point x="70" y="563"/>
			<point x="59" y="503"/>
			<point x="51" y="451" type="curve"/>
			<point x="62" y="448"/>
			<point x="72" y="447"/>
			<point x="83" y="448" type="curve"/>
			<point x="105" y="528"/>
			<point x="138" y="535"/>
		</contour>
	</outline>
</glyph>
<glyph name="eight" format="2">
	<unicode hex="0038"/>
	<advance width="465"/>
	<outline>
		<contour>
			<point x="393" y="493" type="curve" smooth="yes"/>
			<point x="393" y="562"/>
			<point x="330" y="610"/>
			<point x="241" y="610" type="curve" smooth="yes"/>
			<point x="141" y="610"/>
			<point x="71" y="551"/>
			<point x="71" y="467" type="curve" smooth="yes"/>
			<point x="71" y="415"/>
			<point x="99" y="373"/>
			<point x="159" y="336" type="curve" smooth="yes"/>
			<point x="185" y="320" type="line"/>
			<point x="95" y="276"/>
			<point name=".hr01" x="46" y="213"/>
			<point x="46" y="138" type="curve" smooth="yes"/>
			<point x="46" y="48"/>
			<point x="114" y="-10"/>
			<point x="220" y="-10" type="curve" smooth="yes"/>
			<point x="334" y="-10"/>
			<point x="419" y="66"/>
			<point x="419" y="169" type="curve" smooth="yes"/>
			<point x="419" y="225"/>
			<point x="391" y="274"/>
			<point x="343" y="302" type="curve" smooth="yes"/>
			<point x="269" y="345" type="line"/>
			<point x="344" y="382"/>
			<point x="393" y="440"/>
		</contour>
		<contour>
			<point x="232" y="26" type="curve" smooth="yes"/>
			<point x="163" y="26"/>
			<point x="113" y="74"/>
			<point x="113" y="140" type="curve" smooth="yes"/>
			<point x="113" y="201"/>
			<point x="150" y="263"/>
			<point x="212" y="302" type="curve"/>
			<point x="258" y="276" type="line"/>
			<point x="318" y="239"/>
			<point x="348" y="193"/>
			<point x="348" y="136" type="curve" smooth="yes"/>
			<point x="348" y="71"/>
			<point x="300" y="26"/>
		</contour>
		<contour>
			<point x="234" y="574" type="curve" smooth="yes"/>
			<point x="287" y="574"/>
			<point x="322" y="541"/>
			<point x="322" y="491" type="curve" smooth="yes"/>
			<point x="322" y="450"/>
			<point x="292" y="403"/>
			<point x="242" y="366" type="curve"/>
			<point x="212" y="385" type="line" smooth="yes"/>
			<point x="165" y="414"/>
			<point x="142" y="446"/>
			<point x="142" y="482" type="curve" smooth="yes"/>
			<point name=".hr02" x="142" y="539"/>
			<point x="177" y="574"/>
		</contour>
	</outline>
</glyph>
<glyph name="nine" format="2">
	<unicode hex="0039"/>
	<advance width="465"/>
	<outline>
		<contour>
			<point x="103" y="14" type="curve"/>
			<point x="103" y="2"/>
			<point x="107" y="-7"/>
			<point x="115" y="-12" type="curve"/>
			<point x="286" y="39"/>
			<point x="427" y="180"/>
			<point x="427" y="367" type="curve" smooth="yes"/>
			<point x="427" y="570"/>
			<point x="312" y="610"/>
			<point x="235" y="610" type="curve" smooth="yes"/>
			<point x="104" y="610"/>
			<point x="50" y="483"/>
			<point x="50" y="397" type="curve" smooth="yes"/>
			<point x="50" y="283"/>
			<point x="127" y="234"/>
			<point x="232" y="234" type="curve" smooth="yes"/>
			<point x="258" y="234"/>
			<point x="297" y="242"/>
			<point x="327" y="256" type="curve"/>
			<point x="294" y="141"/>
			<point x="214" y="56"/>
		</contour>
		<contour>
			<point x="336" y="292" type="curve"/>
			<point x="303" y="270"/>
			<point x="270" y="269"/>
			<point x="253" y="269" type="curve" smooth="yes"/>
			<point x="170" y="269"/>
			<point x="133" y="342"/>
			<point x="133" y="415" type="curve" smooth="yes"/>
			<point x="133" y="525"/>
			<point x="175" y="575"/>
			<point x="224" y="575" type="curve" smooth="yes"/>
			<point x="287" y="575"/>
			<point x="344" y="541"/>
			<point x="344" y="370" type="curve" smooth="yes"/>
			<point x="344" y="344"/>
			<point x="342" y="318"/>
		</contour>
	</outline>
</glyph>
<glyph name="colon" format="2">
	<unicode hex="003A"/>
	<advance width="236"/>
	<outline>
		<contour>
			<point x="70" y="60" type="curve" smooth="yes"/>
			<point x="70" y="31"/>
			<point x="94" y="7"/>
			<point x="123" y="7" type="curve" smooth="yes"/>
			<point x="152" y="7"/>
			<point x="176" y="31"/>
			<point x="176" y="60" type="curve" smooth="yes"/>
			<point x="176" y="89"/>
			<point x="152" y="113"/>
			<point x="123" y="113" type="curve" smooth="yes"/>
			<point x="94" y="113"/>
			<point x="70" y="89"/>
		</contour>
		<contour>
			<point x="70" y="358" type="curve" smooth="yes"/>
			<point x="70" y="329"/>
			<point x="94" y="305"/>
			<point x="123" y="305" type="curve" smooth="yes"/>
			<point x="152" y="305"/>
			<point x="176" y="329"/>
			<point x="176" y="358" type="curve" smooth="yes"/>
			<point x="176" y="387"/>
			<point x="152" y="411"/>
			<point x="123" y="411" type="curve" smooth="yes"/>
			<point x="94" y="411"/>
			<point x="70" y="387"/>
		</contour>
	</outline>
</glyph>
<glyph name="less" format="2">
	<unicode hex="003C"/>
	<advance width="550"/>
	<outline>
		<contour>
			<point x="138" y="239" type="line"/>
			<point x="455" y="354" type="line"/>
			<point x="468" y="368"/>
			<point x="469" y="398"/>
			<point x="455" y="404" type="curve"/>
			<point x="65" y="263" type="line"/>
			<point x="56" y="246"/>
			<point x="56" y="230"/>
			<point x="65" y="215" type="curve"/>
			<point x="455" y="73" type="line"/>
			<point x="469" y="79"/>
			<point x="468" y="109"/>
			<point x="455" y="123" type="curve"/>
		</contour>
	</outline>
</glyph>
<glyph name="equal" format="2">
	<unicode hex="003D"/>
	<advance width="550"/>
	<outline>
		<contour>
			<point x="491" y="342" type="curve" smooth="yes"/>
			<point x="491" y="350"/>
			<point x="487" y="359"/>
			<point x="477" y="359" type="curve" smooth="yes"/>
			<point x="85" y="359" type="line" smooth="yes"/>
			<point x="73" y="359"/>
			<point x="60" y="340"/>
			<point x="60" y="325" type="curve" smooth="yes"/>
			<point x="60" y="317"/>
			<point x="66" y="309"/>
			<point x="75" y="309" type="curve" smooth="yes"/>
			<point x="464" y="309" type="line" smooth="yes"/>
			<point x="477" y="309"/>
			<point x="491" y="332"/>
		</contour>
		<contour>
			<point x="491" y="176" type="curve" smooth="yes"/>
			<point x="491" y="184"/>
			<point x="487" y="193"/>
			<point x="477" y="193" type="curve" smooth="yes"/>
			<point x="85" y="193" type="line" smooth="yes"/>
			<point x="73" y="193"/>
			<point x="60" y="174"/>
			<point x="60" y="159" type="curve" smooth="yes"/>
			<point x="60" y="151"/>
			<point x="66" y="143"/>
			<point x="75" y="143" type="curve" smooth="yes"/>
			<point x="464" y="143" type="line" smooth="yes"/>
			<point x="477" y="143"/>
			<point x="491" y="166"/>
		</contour>
	</outline>
</glyph>
<glyph name="at" format="2">
	<unicode hex="0040"/>
	<advance width="895"/>
	<outline>
		<contour>
			<point x="583" y="74" type="curve" smooth="yes"/>
			<point x="583" y="81"/>
			<point x="590" y="114"/>
			<point x="596" y="141" type="curve" smooth="yes"/>
			<point x="656" y="399" type="line"/>
			<point x="641" y="404" type="line"/>
			<point x="588" y="391" type="line"/>
			<point x="583" y="367" type="line"/>
			<point x="573" y="393"/>
			<point x="539" y="410"/>
			<point x="506" y="410" type="curve" smooth="yes"/>
			<point x="400" y="410"/>
			<point x="273" y="296"/>
			<point x="273" y="153" type="curve" smooth="yes"/>
			<point x="273" y="133"/>
			<point x="279" y="102"/>
			<point x="297" y="76" type="curve" smooth="yes"/>
			<point x="315" y="50"/>
			<point x="345" y="29"/>
			<point x="395" y="29" type="curve" smooth="yes"/>
			<point x="430" y="29"/>
			<point x="484" y="58"/>
			<point x="528" y="132" type="curve"/>
			<point x="530" y="131" type="line"/>
			<point x="522" y="106"/>
			<point x="515" y="83"/>
			<point x="515" y="68" type="curve" smooth="yes"/>
			<point x="515" y="52"/>
			<point name=".hr01" x="522" y="27"/>
			<point x="551" y="27" type="curve" smooth="yes"/>
			<point x="567" y="27"/>
			<point x="581" y="28"/>
			<point name=".hr02" x="595" y="29" type="curve"/>
			<point x="779" y="47"/>
			<point x="839" y="176"/>
			<point x="839" y="282" type="curve" smooth="yes"/>
			<point x="839" y="469"/>
			<point x="684" y="611"/>
			<point x="469" y="611" type="curve" smooth="yes"/>
			<point x="244" y="611"/>
			<point x="59" y="438"/>
			<point x="59" y="223" type="curve" smooth="yes"/>
			<point x="59" y="10"/>
			<point x="215" y="-158"/>
			<point x="454" y="-158" type="curve" smooth="yes"/>
			<point x="567" y="-158"/>
			<point x="627" y="-123"/>
			<point x="687" y="-77" type="curve"/>
			<point x="674" y="-59" type="line"/>
			<point x="620" y="-102"/>
			<point x="558" y="-125"/>
			<point x="473" y="-125" type="curve" smooth="yes"/>
			<point x="215" y="-125"/>
			<point x="139" y="91"/>
			<point x="139" y="241" type="curve" smooth="yes"/>
			<point x="139" y="478"/>
			<point x="307" y="580"/>
			<point x="459" y="580" type="curve" smooth="yes"/>
			<point x="584" y="580"/>
			<point x="759" y="481"/>
			<point x="759" y="275" type="curve" smooth="yes"/>
			<point x="759" y="109"/>
			<point name=".hr03" x="696" y="62"/>
			<point x="594" y="62" type="curve" smooth="yes"/>
			<point x="592" y="62"/>
			<point x="583" y="64"/>
		</contour>
		<contour>
			<point x="569" y="316" type="curve" smooth="yes"/>
			<point x="569" y="282"/>
			<point x="552" y="231"/>
			<point x="539" y="200" type="curve"/>
			<point x="537" y="194"/>
			<point x="534" y="189"/>
			<point x="532" y="183" type="curve"/>
			<point x="501" y="119"/>
			<point x="456" y="70"/>
			<point name=".hr04" x="424" y="70" type="curve" smooth="yes"/>
			<point x="361" y="70"/>
			<point x="346" y="114"/>
			<point x="346" y="162" type="curve" smooth="yes"/>
			<point x="346" y="224"/>
			<point x="363" y="288"/>
			<point x="414" y="339" type="curve" smooth="yes"/>
			<point x="418" y="343"/>
			<point x="423" y="347"/>
			<point x="428" y="351" type="curve"/>
			<point x="456" y="372"/>
			<point x="489" y="379"/>
			<point x="504" y="379" type="curve" smooth="yes"/>
			<point x="514" y="379"/>
			<point x="524" y="377"/>
			<point x="533" y="373" type="curve" smooth="yes"/>
			<point x="554" y="364"/>
			<point x="569" y="343"/>
		</contour>
	</outline>
</glyph>
<glyph name="C" format="2">
	<unicode hex="0043"/>
	<advance width="646"/>
	<outline>
		<contour>
			<point x="357" y="-10" type="curve" smooth="yes"/>
			<point x="454" y="-10"/>
			<point x="543" y="36"/>
			<point x="611" y="125" type="curve"/>
			<point x="606" y="134"/>
			<point x="599" y="140"/>
			<point x="588" y="140" type="curve"/>
			<point x="517" y="62"/>
			<point x="449" y="31"/>
			<point x="356" y="31" type="curve" smooth="yes"/>
			<point x="221" y="31"/>
			<point x="128" y="183"/>
			<point x="128" y="329" type="curve" smooth="yes"/>
			<point x="128" y="455"/>
			<point x="197" y="621"/>
			<point x="347" y="621" type="curve" smooth="yes"/>
			<point x="485" y="621"/>
			<point x="540" y="539"/>
			<point x="566" y="453" type="curve"/>
			<point x="578" y="449"/>
			<point x="588" y="452"/>
			<point x="599" y="458" type="curve"/>
			<point x="594" y="510"/>
			<point x="587" y="558"/>
			<point x="577" y="613" type="curve"/>
			<point x="526" y="618"/>
			<point x="481" y="658"/>
			<point x="358" y="658" type="curve" smooth="yes"/>
			<point x="164" y="658"/>
			<point x="37" y="496"/>
			<point x="37" y="310" type="curve" smooth="yes"/>
			<point x="37" y="136"/>
			<point x="142" y="-10"/>
		</contour>
	</outline>
	<anchor name="t.uni0302" x="340" y="740"/>
	<anchor name="m.uni0316_2" x="363" y="-110"/>
	<anchor name="m.uni031A_3" x="609" y="732"/>
</glyph>
<glyph name="D" format="2">
	<unicode hex="0044"/>
	<advance width="701"/>
	<outline>
		<contour>
			<point x="19" y="-2" type="curve"/>
			<point x="58" y="-1"/>
			<point x="111" y="0"/>
			<point x="149" y="0" type="curve" smooth="yes"/>
			<point x="186" y="0"/>
			<point x="228" y="-2"/>
			<point x="331" y="-2" type="curve" smooth="yes"/>
			<point x="472" y="-2"/>
			<point x="658" y="62"/>
			<point x="658" y="308" type="curve" smooth="yes"/>
			<point x="658" y="494"/>
			<point x="505" y="647"/>
			<point x="313" y="647" type="curve" smooth="yes"/>
			<point x="242" y="647"/>
			<point x="187" y="645"/>
			<point x="148" y="645" type="curve" smooth="yes"/>
			<point x="112" y="645"/>
			<point x="59" y="646"/>
			<point x="19" y="647" type="curve"/>
			<point x="13" y="641"/>
			<point x="13" y="620"/>
			<point x="19" y="614" type="curve"/>
			<point x="89" y="611"/>
			<point x="106" y="606"/>
			<point x="106" y="523" type="curve" smooth="yes"/>
			<point x="106" y="122" type="line" smooth="yes"/>
			<point x="106" y="39"/>
			<point x="89" y="34"/>
			<point x="19" y="31" type="curve"/>
			<point x="13" y="25"/>
			<point x="13" y="4"/>
		</contour>
		<contour>
			<point x="191" y="84" type="curve" smooth="yes"/>
			<point x="191" y="564" type="line" smooth="yes"/>
			<point x="191" y="599"/>
			<point x="226" y="613"/>
			<point x="275" y="613" type="curve" smooth="yes"/>
			<point x="491" y="613"/>
			<point x="562" y="438"/>
			<point x="562" y="284" type="curve" smooth="yes"/>
			<point x="562" y="82"/>
			<point x="441" y="32"/>
			<point x="300" y="32" type="curve" smooth="yes"/>
			<point x="202" y="32"/>
			<point x="191" y="52"/>
		</contour>
	</outline>
	<anchor name="m.uni0302" x="306" y="850"/>
	<anchor name="m.uni0316_2" x="309" y="-110"/>
	<anchor name="m.uni031A_3" x="619" y="732"/>
	<anchor name="t.uni0302" x="300" y="740"/>
</glyph>
<glyph name="F" format="2">
	<unicode hex="0046"/>
	<advance width="485"/>
	<outline>
		<contour>
			<point x="18" y="-2" type="curve"/>
			<point x="53" y="-1"/>
			<point x="103" y="0"/>
			<point x="148" y="0" type="curve" smooth="yes"/>
			<point x="193" y="0"/>
			<point x="242" y="-1"/>
			<point x="277" y="-2" type="curve"/>
			<point x="283" y="4"/>
			<point x="283" y="25"/>
			<point x="277" y="31" type="curve"/>
			<point x="207" y="34"/>
			<point x="190" y="39"/>
			<point x="190" y="122" type="curve" smooth="yes"/>
			<point x="190" y="323" type="line"/>
			<point x="283" y="323" type="line" smooth="yes"/>
			<point x="368" y="323"/>
			<point x="371" y="300"/>
			<point x="374" y="255" type="curve"/>
			<point x="380" y="249"/>
			<point x="401" y="249"/>
			<point x="407" y="255" type="curve"/>
			<point x="406" y="280"/>
			<point x="405" y="309"/>
			<point x="405" y="343" type="curve" smooth="yes"/>
			<point x="405" y="377"/>
			<point x="406" y="403"/>
			<point x="407" y="429" type="curve"/>
			<point x="401" y="435"/>
			<point x="380" y="435"/>
			<point x="374" y="429" type="curve"/>
			<point x="371" y="374"/>
			<point x="368" y="361"/>
			<point x="283" y="361" type="curve" smooth="yes"/>
			<point x="190" y="361" type="line"/>
			<point x="190" y="541" type="line" smooth="yes"/>
			<point x="190" y="595"/>
			<point x="202" y="605"/>
			<point x="246" y="605" type="curve" smooth="yes"/>
			<point x="291" y="605" type="line" smooth="yes"/>
			<point x="397" y="605"/>
			<point x="422" y="565"/>
			<point x="444" y="496" type="curve"/>
			<point x="456" y="496"/>
			<point x="467" y="498"/>
			<point x="475" y="501" type="curve"/>
			<point x="470" y="542"/>
			<point x="455" y="638"/>
			<point x="453" y="646" type="curve"/>
			<point x="453" y="648"/>
			<point x="452" y="649"/>
			<point x="449" y="649" type="curve"/>
			<point x="432" y="646"/>
			<point x="427" y="645"/>
			<point x="402" y="645" type="curve" smooth="yes"/>
			<point x="147" y="645" type="line" smooth="yes"/>
			<point x="115" y="645"/>
			<point x="58" y="646"/>
			<point x="18" y="647" type="curve"/>
			<point x="12" y="641"/>
			<point x="12" y="620"/>
			<point x="18" y="614" type="curve"/>
			<point x="88" y="611"/>
			<point x="105" y="606"/>
			<point x="105" y="523" type="curve" smooth="yes"/>
			<point x="105" y="122" type="line" smooth="yes"/>
			<point x="105" y="39"/>
			<point x="88" y="34"/>
			<point x="18" y="31" type="curve"/>
			<point x="12" y="25"/>
			<point x="12" y="4"/>
		</contour>
	</outline>
	<anchor name="m.uni0302" x="284" y="850"/>
	<anchor name="m.uni0316_2" x="209" y="-110"/>
	<anchor name="m.uni031A_3" x="507" y="732"/>
	<anchor name="t.uni0302" x="240" y="740"/>
</glyph>
<glyph name="H" format="2">
	<unicode hex="0048"/>
	<advance width="730"/>
	<outline>
		<contour>
			<point x="19" y="-2" type="curve"/>
			<point x="63" y="-1"/>
			<point x="111" y="0"/>
			<point x="149" y="0" type="curve" smooth="yes"/>
			<point x="185" y="0"/>
			<point x="234" y="-1"/>
			<point x="278" y="-2" type="curve"/>
			<point x="284" y="4"/>
			<point x="284" y="25"/>
			<point x="278" y="31" type="curve"/>
			<point x="208" y="34"/>
			<point x="191" y="39"/>
			<point x="191" y="122" type="curve" smooth="yes"/>
			<point x="191" y="321" type="line"/>
			<point x="533" y="321" type="line"/>
			<point x="533" y="122" type="line" smooth="yes"/>
			<point x="533" y="39"/>
			<point x="516" y="34"/>
			<point x="446" y="31" type="curve"/>
			<point x="440" y="25"/>
			<point x="440" y="4"/>
			<point x="446" y="-2" type="curve"/>
			<point x="491" y="-1"/>
			<point x="539" y="0"/>
			<point x="576" y="0" type="curve" smooth="yes"/>
			<point x="613" y="0"/>
			<point x="661" y="-1"/>
			<point x="705" y="-2" type="curve"/>
			<point x="711" y="4"/>
			<point x="711" y="25"/>
			<point x="705" y="31" type="curve"/>
			<point x="635" y="34"/>
			<point x="618" y="39"/>
			<point x="618" y="122" type="curve" smooth="yes"/>
			<point x="618" y="523" type="line" smooth="yes"/>
			<point x="618" y="606"/>
			<point x="635" y="611"/>
			<point x="705" y="614" type="curve"/>
			<point x="711" y="620"/>
			<point x="711" y="641"/>
			<point x="705" y="647" type="curve"/>
			<point x="664" y="646"/>
			<point x="613" y="645"/>
			<point x="575" y="645" type="curve" smooth="yes"/>
			<point x="538" y="645"/>
			<point x="490" y="646"/>
			<point x="446" y="647" type="curve"/>
			<point x="440" y="641"/>
			<point x="440" y="620"/>
			<point x="446" y="614" type="curve"/>
			<point x="516" y="611"/>
			<point x="533" y="606"/>
			<point x="533" y="523" type="curve" smooth="yes"/>
			<point x="533" y="363" type="line"/>
			<point x="191" y="363" type="line"/>
			<point x="191" y="523" type="line" smooth="yes"/>
			<point x="191" y="606"/>
			<point x="208" y="611"/>
			<point x="278" y="614" type="curve"/>
			<point x="284" y="620"/>
			<point x="284" y="641"/>
			<point x="278" y="647" type="curve"/>
			<point x="240" y="646"/>
			<point x="199" y="645"/>
			<point x="148" y="645" type="curve" smooth="yes"/>
			<point x="98" y="645"/>
			<point x="57" y="646"/>
			<point x="19" y="647" type="curve"/>
			<point x="13" y="641"/>
			<point x="13" y="620"/>
			<point x="19" y="614" type="curve"/>
			<point x="89" y="611"/>
			<point x="106" y="606"/>
			<point x="106" y="523" type="curve" smooth="yes"/>
			<point x="106" y="122" type="line" smooth="yes"/>
			<point x="106" y="39"/>
			<point x="89" y="34"/>
			<point x="19" y="31" type="curve"/>
			<point x="13" y="25"/>
			<point x="13" y="4"/>
		</contour>
	</outline>
	<anchor name="t.uni0302" x="353" y="740"/>
	<anchor name="m.uni0316_2" x="362" y="-110"/>
	<anchor name="m.uni031A_3" x="729" y="732"/>
</glyph>
<glyph name="I" format="2">
	<unicode hex="0049"/>
	<advance width="297"/>
	<outline>
		<contour>
			<point x="19" y="-2" type="curve"/>
			<point x="64" y="-1"/>
			<point x="113" y="0"/>
			<point x="149" y="0" type="curve" smooth="yes"/>
			<point x="185" y="0"/>
			<point x="233" y="-1"/>
			<point x="278" y="-2" type="curve"/>
			<point x="284" y="4"/>
			<point x="284" y="25"/>
			<point x="278" y="31" type="curve"/>
			<point x="208" y="34"/>
			<point x="191" y="39"/>
			<point x="191" y="122" type="curve" smooth="yes"/>
			<point x="191" y="523" type="line" smooth="yes"/>
			<point x="191" y="606"/>
			<point x="208" y="611"/>
			<point x="278" y="614" type="curve"/>
			<point x="284" y="620"/>
			<point x="284" y="641"/>
			<point x="278" y="647" type="curve"/>
			<point x="234" y="646"/>
			<point x="187" y="645"/>
			<point x="148" y="645" type="curve" smooth="yes"/>
			<point x="115" y="645"/>
			<point x="66" y="646"/>
			<point x="19" y="647" type="curve"/>
			<point x="13" y="641"/>
			<point x="13" y="620"/>
			<point x="19" y="614" type="curve"/>
			<point x="89" y="611"/>
			<point x="106" y="606"/>
			<point x="106" y="523" type="curve" smooth="yes"/>
			<point x="106" y="122" type="line" smooth="yes"/>
			<point x="106" y="39"/>
			<point x="89" y="34"/>
			<point x="19" y="31" type="curve"/>
			<point x="13" y="25"/>
			<point x="13" y="4"/>
		</contour>
	</outline>
	<anchor name="t.uni0302" x="150" y="740"/>
	<anchor name="m.uni0316_2" x="147" y="-110"/>
</glyph>
<glyph name="J" format="2">
	<unicode hex="004A"/>
	<advance width="322"/>
	<outline>
		<contour>
			<point x="226" y="523" type="line" smooth="yes"/>
			<point x="226" y="606"/>
			<point x="243" y="611"/>
			<point x="303" y="614" type="curve"/>
			<point x="309" y="620"/>
			<point x="309" y="641"/>
			<point x="303" y="647" type="curve"/>
			<point x="265" y="646"/>
			<point x="222" y="645"/>
			<point x="183" y="645" type="curve" smooth="yes"/>
			<point x="147" y="645"/>
			<point x="94" y="646"/>
			<point x="44" y="647" type="curve"/>
			<point x="38" y="641"/>
			<point x="38" y="620"/>
			<point x="44" y="614" type="curve"/>
			<point x="124" y="611"/>
			<point x="141" y="606"/>
			<point x="141" y="523" type="curve" smooth="yes"/>
			<point x="141" y="81" type="line" smooth="yes"/>
			<point x="141" y="-99"/>
			<point x="89" y="-127"/>
			<point x="56" y="-127" type="curve" smooth="yes"/>
			<point x="37" y="-127"/>
			<point x="23" y="-115"/>
			<point x="16" y="-100" type="curve"/>
			<point x="10" y="-88"/>
			<point x="1" y="-75"/>
			<point x="-24" y="-75" type="curve" smooth="yes"/>
			<point x="-38" y="-75"/>
			<point x="-68" y="-96"/>
			<point x="-68" y="-118" type="curve" smooth="yes"/>
			<point x="-68" y="-154"/>
			<point x="-15" y="-172"/>
			<point x="7" y="-172" type="curve" smooth="yes"/>
			<point x="52" y="-172"/>
			<point x="83" y="-164"/>
			<point x="124" y="-129" type="curve" smooth="yes"/>
			<point x="168" y="-92"/>
			<point x="226" y="-40"/>
			<point x="226" y="103" type="curve" smooth="yes"/>
		</contour>
	</outline>
	<anchor name="t.uni0302" x="176" y="740"/>
</glyph>
<glyph name="K" format="2">
	<unicode hex="004B"/>
	<advance width="637"/>
	<outline>
		<contour>
			<point x="19" y="-2" type="curve"/>
			<point x="64" y="-1"/>
			<point x="110" y="0"/>
			<point x="149" y="0" type="curve" smooth="yes"/>
			<point x="187" y="0"/>
			<point x="233" y="-1"/>
			<point x="278" y="-2" type="curve"/>
			<point x="284" y="4"/>
			<point x="284" y="25"/>
			<point x="278" y="31" type="curve"/>
			<point x="208" y="34"/>
			<point x="191" y="39"/>
			<point x="191" y="122" type="curve" smooth="yes"/>
			<point x="191" y="523" type="line" smooth="yes"/>
			<point x="191" y="606"/>
			<point x="208" y="611"/>
			<point x="278" y="614" type="curve"/>
			<point x="284" y="620"/>
			<point x="284" y="641"/>
			<point x="278" y="647" type="curve"/>
			<point x="232" y="646"/>
			<point x="185" y="645"/>
			<point x="148" y="645" type="curve" smooth="yes"/>
			<point x="110" y="645"/>
			<point x="64" y="646"/>
			<point x="19" y="647" type="curve"/>
			<point x="13" y="641"/>
			<point x="13" y="620"/>
			<point x="19" y="614" type="curve"/>
			<point x="89" y="611"/>
			<point x="106" y="606"/>
			<point x="106" y="523" type="curve" smooth="yes"/>
			<point x="106" y="122" type="line" smooth="yes"/>
			<point x="106" y="39"/>
			<point x="89" y="34"/>
			<point x="19" y="31" type="curve"/>
			<point x="13" y="25"/>
			<point x="13" y="4"/>
		</contour>
		<contour>
			<point x="174" y="309" type="line"/>
			<point x="223" y="309"/>
			<point x="254" y="297"/>
			<point x="274" y="271" type="curve" smooth="yes"/>
			<point x="431" y="73" type="line" smooth="yes"/>
			<point x="451" y="47"/>
			<point x="465" y="20"/>
			<point x="467" y="4" type="curve"/>
			<point x="467" y="1"/>
			<point x="468" y="-2"/>
			<point x="472" y="-2" type="curve"/>
			<point x="492" y="-1"/>
			<point x="505" y="0"/>
			<point x="526" y="0" type="curve" smooth="yes"/>
			<point x="560" y="0"/>
			<point x="594" y="-1"/>
			<point x="627" y="-2" type="curve"/>
			<point x="633" y="4"/>
			<point x="633" y="25"/>
			<point x="627" y="31" type="curve"/>
			<point x="598" y="34"/>
			<point x="570" y="37"/>
			<point x="539" y="73" type="curve" smooth="yes"/>
			<point x="320" y="333" type="line"/>
			<point x="312" y="342"/>
			<point x="307" y="350"/>
			<point x="307" y="358" type="curve" smooth="yes"/>
			<point x="307" y="365"/>
			<point x="308" y="372"/>
			<point x="342" y="407" type="curve" smooth="yes"/>
			<point x="489" y="558" type="line"/>
			<point x="535" y="607"/>
			<point x="575" y="611"/>
			<point x="615" y="614" type="curve"/>
			<point x="621" y="620"/>
			<point x="621" y="641"/>
			<point x="615" y="647" type="curve"/>
			<point x="584" y="646"/>
			<point x="552" y="645"/>
			<point x="520" y="645" type="curve" smooth="yes"/>
			<point x="483" y="645"/>
			<point x="444" y="646"/>
			<point x="407" y="647" type="curve"/>
			<point x="401" y="641"/>
			<point x="401" y="620"/>
			<point x="407" y="614" type="curve"/>
			<point x="443" y="611"/>
			<point x="477" y="607"/>
			<point x="435" y="562" type="curve" smooth="yes"/>
			<point x="409.328" y="534.617"/>
			<point x="270" y="386"/>
			<point x="270" y="386" type="curve"/>
			<point x="246" y="359"/>
			<point x="219" y="346"/>
			<point x="174" y="346" type="curve"/>
		</contour>
	</outline>
	<anchor name="m.uni0302" x="336" y="850"/>
	<anchor name="m.uni0316_2" x="342" y="-110"/>
	<anchor name="m.uni031A_3" x="649" y="732"/>
	<anchor name="t.uni0302" x="313" y="740"/>
</glyph>
<glyph name="L" format="2">
	<unicode hex="004C"/>
	<advance width="528"/>
	<outline>
		<contour>
			<point x="19" y="-2" type="curve"/>
			<point x="58" y="-1"/>
			<point x="115" y="0"/>
			<point x="149" y="0" type="curve" smooth="yes"/>
			<point x="362" y="0" type="line" smooth="yes"/>
			<point x="389" y="0"/>
			<point x="472" y="-2"/>
			<point x="481" y="-2" type="curve"/>
			<point x="491" y="48"/>
			<point x="501" y="113"/>
			<point x="507" y="165" type="curve"/>
			<point x="497" y="170"/>
			<point x="486" y="172"/>
			<point x="474" y="170" type="curve"/>
			<point x="454" y="98"/>
			<point x="417" y="39"/>
			<point x="311" y="39" type="curve" smooth="yes"/>
			<point x="248" y="39" type="line" smooth="yes"/>
			<point x="209" y="39"/>
			<point x="191" y="58"/>
			<point x="191" y="109" type="curve" smooth="yes"/>
			<point x="191" y="523" type="line" smooth="yes"/>
			<point x="191" y="606"/>
			<point x="208" y="611"/>
			<point x="278" y="614" type="curve"/>
			<point x="284" y="620"/>
			<point x="284" y="641"/>
			<point x="278" y="647" type="curve"/>
			<point x="233" y="646"/>
			<point x="186" y="645"/>
			<point x="148" y="645" type="curve" smooth="yes"/>
			<point x="112" y="645"/>
			<point x="65" y="646"/>
			<point x="19" y="647" type="curve"/>
			<point x="13" y="641"/>
			<point x="13" y="620"/>
			<point x="19" y="614" type="curve"/>
			<point x="89" y="611"/>
			<point x="106" y="606"/>
			<point x="106" y="523" type="curve" smooth="yes"/>
			<point x="106" y="122" type="line" smooth="yes"/>
			<point x="106" y="39"/>
			<point x="89" y="34"/>
			<point x="19" y="31" type="curve"/>
			<point x="13" y="25"/>
			<point x="13" y="4"/>
		</contour>
	</outline>
	<anchor name="m.uni0302" x="151" y="850"/>
	<anchor name="m.uni0316_2" x="262" y="-110"/>
	<anchor name="m.uni031A_3" x="471" y="732"/>
	<anchor name="t.uni0302" x="151" y="740"/>
</glyph>
<glyph name="P" format="2">
	<unicode hex="0050"/>
	<advance width="541"/>
	<outline>
		<contour>
			<point x="17" y="-2" type="curve"/>
			<point x="62" y="-1"/>
			<point x="111" y="0"/>
			<point x="147" y="0" type="curve" smooth="yes"/>
			<point x="182" y="0"/>
			<point x="241" y="-1"/>
			<point x="291" y="-2" type="curve"/>
			<point x="297" y="4"/>
			<point x="297" y="25"/>
			<point x="291" y="31" type="curve"/>
			<point x="213" y="35"/>
			<point x="189" y="39"/>
			<point x="189" y="122" type="curve" smooth="yes"/>
			<point x="189" y="554" type="line" smooth="yes"/>
			<point x="189" y="583"/>
			<point x="204" y="618"/>
			<point x="276" y="618" type="curve" smooth="yes"/>
			<point x="345" y="618"/>
			<point x="414" y="595"/>
			<point x="414" y="468" type="curve" smooth="yes"/>
			<point x="414" y="360"/>
			<point x="362" y="316"/>
			<point x="265" y="316" type="curve" smooth="yes"/>
			<point x="213" y="316"/>
			<point x="191" y="319"/>
			<point x="156" y="325" type="curve"/>
			<point x="156" y="313"/>
			<point x="161" y="302"/>
			<point x="170" y="292" type="curve"/>
			<point x="195" y="286"/>
			<point x="229" y="282"/>
			<point x="270" y="282" type="curve" smooth="yes"/>
			<point x="452" y="282"/>
			<point x="507" y="401"/>
			<point x="507" y="486" type="curve" smooth="yes"/>
			<point x="507" y="545"/>
			<point x="468" y="652"/>
			<point x="283" y="652" type="curve" smooth="yes"/>
			<point x="245" y="652"/>
			<point x="186" y="645"/>
			<point x="146" y="645" type="curve" smooth="yes"/>
			<point x="109" y="645"/>
			<point x="57" y="646"/>
			<point name=".hr01" x="17" y="647" type="curve"/>
			<point x="11" y="641"/>
			<point x="11" y="620"/>
			<point x="17" y="614" type="curve"/>
			<point x="87" y="611"/>
			<point x="104" y="606"/>
			<point x="104" y="523" type="curve" smooth="yes"/>
			<point x="104" y="122" type="line" smooth="yes"/>
			<point x="104" y="39"/>
			<point x="87" y="34"/>
			<point x="17" y="31" type="curve"/>
			<point x="11" y="25"/>
			<point x="11" y="4"/>
		</contour>
	</outline>
	<anchor name="m.uni0302" x="277" y="850"/>
	<anchor name="m.uni0316_2" x="240" y="-110"/>
	<anchor name="m.uni031A_3" x="509" y="732"/>
	<anchor name="t.uni0302" x="248" y="740"/>
</glyph>
<glyph name="R" format="2">
	<unicode hex="0052"/>
	<advance width="587"/>
	<outline>
		<contour>
			<point x="17" y="-2" type="curve"/>
			<point x="62" y="-1"/>
			<point x="109" y="0"/>
			<point x="147" y="0" type="curve" smooth="yes"/>
			<point x="185" y="0"/>
			<point x="232" y="-1"/>
			<point x="276" y="-2" type="curve"/>
			<point x="282" y="4"/>
			<point x="282" y="25"/>
			<point x="276" y="31" type="curve"/>
			<point x="206" y="34"/>
			<point x="189" y="39"/>
			<point x="189" y="122" type="curve" smooth="yes"/>
			<point x="189" y="291" type="line"/>
			<point x="273" y="291"/>
			<point x="292" y="276"/>
			<point x="306" y="253" type="curve" smooth="yes"/>
			<point x="413" y="79" type="line" smooth="yes"/>
			<point x="442" y="32"/>
			<point name=".hr01" x="485" y="-10"/>
			<point x="545" y="-10" type="curve" smooth="yes"/>
			<point x="560" y="-10"/>
			<point x="577" y="-8"/>
			<point x="587" y="-3" type="curve"/>
			<point x="591" y="4"/>
			<point x="590" y="13"/>
			<point x="586" y="21" type="curve"/>
			<point x="541" y="21"/>
			<point x="516" y="55"/>
			<point x="490" y="98" type="curve" smooth="yes"/>
			<point x="364" y="308" type="line"/>
			<point x="407" y="322"/>
			<point x="497" y="374"/>
			<point x="497" y="479" type="curve" smooth="yes"/>
			<point x="497" y="615"/>
			<point x="387" y="652"/>
			<point x="271" y="652" type="curve" smooth="yes"/>
			<point x="224" y="652"/>
			<point x="182" y="645"/>
			<point x="146" y="645" type="curve" smooth="yes"/>
			<point x="111" y="645"/>
			<point x="64" y="646"/>
			<point name=".hr02" x="17" y="647" type="curve"/>
			<point x="11" y="641"/>
			<point x="11" y="620"/>
			<point x="17" y="614" type="curve"/>
			<point x="87" y="611"/>
			<point x="104" y="606"/>
			<point x="104" y="523" type="curve" smooth="yes"/>
			<point x="104" y="122" type="line" smooth="yes"/>
			<point x="104" y="39"/>
			<point x="87" y="34"/>
			<point x="17" y="31" type="curve"/>
			<point x="11" y="25"/>
			<point x="11" y="4"/>
		</contour>
		<contour>
			<point x="189" y="325" type="line"/>
			<point x="189" y="554" type="line" smooth="yes"/>
			<point x="189" y="583"/>
			<point x="201" y="618"/>
			<point name=".hr03" x="272" y="618" type="curve" smooth="yes"/>
			<point x="333" y="618"/>
			<point x="405" y="596"/>
			<point x="405" y="478" type="curve" smooth="yes"/>
			<point x="405" y="353"/>
			<point x="334" y="325"/>
			<point x="237" y="325" type="curve" smooth="yes"/>
		</contour>
	</outline>
	<anchor name="m.uni0302" x="269" y="850"/>
	<anchor name="m.uni0316_2" x="258" y="-110"/>
	<anchor name="m.uni031A_3" x="519" y="732"/>
	<anchor name="t.uni0302" x="264" y="740"/>
	<guideline x="0" y="816" angle="0"/>
</glyph>
<glyph name="S" format="2">
	<unicode hex="0053"/>
	<advance width="485"/>
	<outline>
		<contour>
			<point x="406" y="630" type="curve"/>
			<point x="344" y="638"/>
			<point x="346" y="658"/>
			<point x="241" y="658" type="curve" smooth="yes"/>
			<point x="140" y="658"/>
			<point x="51" y="591"/>
			<point x="51" y="485" type="curve" smooth="yes"/>
			<point x="51" y="380"/>
			<point x="138" y="332"/>
			<point x="226" y="298" type="curve" smooth="yes"/>
			<point x="286" y="275"/>
			<point x="360" y="247"/>
			<point x="360" y="149" type="curve" smooth="yes"/>
			<point x="360" y="68"/>
			<point x="315" y="26"/>
			<point x="235" y="26" type="curve" smooth="yes"/>
			<point x="142" y="26"/>
			<point x="82" y="69"/>
			<point name=".hr01" x="60" y="168" type="curve"/>
			<point x="47" y="172"/>
			<point x="37" y="170"/>
			<point x="27" y="165" type="curve"/>
			<point x="39" y="95"/>
			<point x="43" y="64"/>
			<point x="47" y="13" type="curve"/>
			<point x="110" y="13"/>
			<point name=".hr02" x="138" y="-10"/>
			<point x="227" y="-10" type="curve" smooth="yes"/>
			<point x="272" y="-10"/>
			<point x="315" y="1"/>
			<point x="350" y="23" type="curve" smooth="yes"/>
			<point x="408" y="59"/>
			<point x="444" y="120"/>
			<point x="444" y="184" type="curve" smooth="yes"/>
			<point x="444" y="290"/>
			<point x="364" y="337"/>
			<point x="282" y="368" type="curve" smooth="yes"/>
			<point x="222" y="390"/>
			<point x="122" y="428"/>
			<point x="122" y="512" type="curve" smooth="yes"/>
			<point x="122" y="568"/>
			<point x="173" y="624"/>
			<point x="232" y="624" type="curve" smooth="yes"/>
			<point x="329" y="624"/>
			<point x="360" y="562"/>
			<point x="380" y="496" type="curve"/>
			<point x="391" y="494"/>
			<point x="404" y="495"/>
			<point x="413" y="502" type="curve"/>
			<point x="406" y="551"/>
			<point x="405" y="575"/>
		</contour>
	</outline>
	<anchor name="t.uni0302" x="232" y="740"/>
	<anchor name="m.uni0316_2" x="234" y="-110"/>
	<anchor name="m.uni031A_3" x="481" y="732"/>
</glyph>
<glyph name="V" format="2">
	<unicode hex="0056"/>
	<advance width="652"/>
	<outline>
		<contour>
			<point x="293" y="11" type="line" smooth="yes"/>
			<point x="299" y="-5"/>
			<point x="306" y="-12"/>
			<point x="316" y="-12" type="curve" smooth="yes"/>
			<point x="327" y="-12"/>
			<point x="334" y="-3"/>
			<point x="340" y="11" type="curve" smooth="yes"/>
			<point x="547" y="521" type="line" smooth="yes"/>
			<point x="566" y="568"/>
			<point x="582" y="607"/>
			<point x="645" y="614" type="curve"/>
			<point x="651" y="620"/>
			<point x="651" y="641"/>
			<point x="645" y="647" type="curve"/>
			<point x="615" y="646"/>
			<point x="580" y="645"/>
			<point x="557" y="645" type="curve" smooth="yes"/>
			<point x="534" y="645"/>
			<point x="489" y="646"/>
			<point x="448" y="647" type="curve"/>
			<point x="442" y="641"/>
			<point x="442" y="620"/>
			<point x="448" y="614" type="curve"/>
			<point x="522" y="609"/>
			<point x="522" y="582"/>
			<point x="501" y="528" type="curve" smooth="yes"/>
			<point x="343" y="127" type="line"/>
			<point x="339" y="127" type="line"/>
			<point x="179" y="534" type="line" smooth="yes"/>
			<point x="156" y="594"/>
			<point x="162" y="607"/>
			<point x="230" y="614" type="curve"/>
			<point x="236" y="620"/>
			<point x="236" y="641"/>
			<point x="230" y="647" type="curve"/>
			<point x="190" y="646"/>
			<point x="145" y="645"/>
			<point x="109" y="645" type="curve" smooth="yes"/>
			<point x="73" y="645"/>
			<point x="38" y="646"/>
			<point x="5" y="647" type="curve"/>
			<point x="-1" y="641"/>
			<point x="0" y="620"/>
			<point x="6" y="614" type="curve"/>
			<point x="61" y="609"/>
			<point x="69" y="592"/>
			<point x="96" y="523" type="curve" smooth="yes"/>
		</contour>
	</outline>
	<anchor name="m.uni0302" x="336" y="850"/>
	<anchor name="m.uni0316_2" x="318" y="-110"/>
	<anchor name="m.uni031A_3" x="679" y="732"/>
	<anchor name="t.uni0302" x="328" y="740"/>
</glyph>
<glyph name="W" format="2">
	<unicode hex="0057"/>
	<advance width="951"/>
	<outline>
		<contour>
			<point x="608" y="15" type="line" smooth="yes"/>
			<point x="614" y="-2"/>
			<point x="619" y="-12"/>
			<point x="631" y="-12" type="curve" smooth="yes"/>
			<point x="642" y="-12"/>
			<point x="649" y="-1"/>
			<point x="654" y="14" type="curve"/>
			<point x="855" y="553" type="line" smooth="yes"/>
			<point x="868" y="588"/>
			<point x="886" y="611"/>
			<point x="941" y="614" type="curve"/>
			<point x="947" y="620"/>
			<point x="947" y="641"/>
			<point x="941" y="647" type="curve"/>
			<point x="912" y="646"/>
			<point x="880" y="645"/>
			<point x="854" y="645" type="curve" smooth="yes"/>
			<point x="828" y="645"/>
			<point x="784" y="646"/>
			<point x="744" y="647" type="curve"/>
			<point x="738" y="641"/>
			<point x="738" y="620"/>
			<point x="744" y="614" type="curve"/>
			<point x="785" y="611"/>
			<point x="825" y="608"/>
			<point x="810" y="565" type="curve" smooth="yes"/>
			<point x="654" y="131" type="line"/>
			<point x="651" y="132" type="line"/>
			<point x="513" y="554" type="line" smooth="yes"/>
			<point x="496" y="608"/>
			<point x="531" y="611"/>
			<point x="565" y="614" type="curve"/>
			<point x="571" y="620"/>
			<point x="571" y="641"/>
			<point x="565" y="647" type="curve"/>
			<point x="524" y="646"/>
			<point x="480" y="645"/>
			<point x="440" y="645" type="curve" smooth="yes"/>
			<point x="407" y="645"/>
			<point x="372" y="646"/>
			<point x="340" y="647" type="curve"/>
			<point x="334" y="641"/>
			<point x="334" y="620"/>
			<point x="340" y="614" type="curve"/>
			<point x="393" y="611"/>
			<point x="415" y="580"/>
			<point x="424" y="554" type="curve" smooth="yes"/>
		</contour>
		<contour>
			<point x="265" y="15" type="line"/>
			<point x="270" y="-1"/>
			<point x="276" y="-12"/>
			<point x="287" y="-12" type="curve" smooth="yes"/>
			<point x="300" y="-12"/>
			<point x="306" y="-2"/>
			<point x="313" y="15" type="curve"/>
			<point x="493" y="418" type="line"/>
			<point x="471" y="483" type="line"/>
			<point x="316" y="129" type="line"/>
			<point x="311" y="130" type="line"/>
			<point x="165" y="572" type="line" smooth="yes"/>
			<point x="153" y="607"/>
			<point x="180" y="612"/>
			<point x="215" y="614" type="curve"/>
			<point x="221" y="620"/>
			<point x="221" y="641"/>
			<point x="215" y="647" type="curve"/>
			<point x="182" y="646"/>
			<point x="138" y="645"/>
			<point x="99" y="645" type="curve" smooth="yes"/>
			<point x="64" y="645"/>
			<point x="35" y="646"/>
			<point x="6" y="647" type="curve"/>
			<point x="0" y="641"/>
			<point x="0" y="620"/>
			<point x="6" y="614" type="curve"/>
			<point x="51" y="611"/>
			<point x="58" y="610"/>
			<point x="77" y="556" type="curve" smooth="yes"/>
		</contour>
	</outline>
	<anchor name="m.uni0302" x="450" y="850"/>
	<anchor name="m.uni0316_2" x="479" y="-110"/>
	<anchor name="m.uni031A_3" x="979" y="732"/>
	<anchor name="t.uni0302" x="454" y="740"/>
</glyph>
<glyph name="X" format="2">
	<unicode hex="0058"/>
	<advance width="660"/>
	<outline>
		<contour>
			<point x="424" y="-2" type="curve"/>
			<point x="461" y="-1"/>
			<point x="498" y="0"/>
			<point x="538" y="0" type="curve" smooth="yes"/>
			<point x="577" y="0"/>
			<point x="610" y="-1"/>
			<point x="640" y="-2" type="curve"/>
			<point x="646" y="4"/>
			<point x="645" y="25"/>
			<point x="639" y="31" type="curve"/>
			<point x="597" y="34"/>
			<point x="580" y="44"/>
			<point x="538" y="102" type="curve"/>
			<point x="342" y="363" type="line"/>
			<point x="210" y="560" type="line"/>
			<point x="181" y="600"/>
			<point x="177" y="611"/>
			<point x="233" y="614" type="curve"/>
			<point x="239" y="620"/>
			<point x="239" y="641"/>
			<point x="233" y="647" type="curve"/>
			<point x="196" y="646"/>
			<point x="159" y="645"/>
			<point x="119" y="645" type="curve" smooth="yes"/>
			<point x="80" y="645"/>
			<point x="47" y="646"/>
			<point x="17" y="647" type="curve"/>
			<point x="11" y="641"/>
			<point x="12" y="620"/>
			<point x="18" y="614" type="curve"/>
			<point x="60" y="611"/>
			<point x="79" y="606"/>
			<point x="120" y="547" type="curve"/>
			<point x="298" y="303" type="line"/>
			<point x="448" y="85" type="line" smooth="yes"/>
			<point x="476" y="45"/>
			<point x="480" y="34"/>
			<point x="424" y="31" type="curve"/>
			<point x="418" y="25"/>
			<point x="418" y="4"/>
		</contour>
		<contour>
			<point x="7" y="-2" type="curve"/>
			<point x="37" y="-1"/>
			<point x="74" y="0"/>
			<point x="97" y="0" type="curve" smooth="yes"/>
			<point x="120" y="0"/>
			<point x="162" y="-1"/>
			<point x="202" y="-2" type="curve"/>
			<point x="208" y="4"/>
			<point x="208" y="25"/>
			<point x="202" y="31" type="curve"/>
			<point x="158" y="34"/>
			<point x="139" y="39"/>
			<point x="163" y="73" type="curve" smooth="yes"/>
			<point x="320" y="294" type="line"/>
			<point x="291" y="325" type="line"/>
			<point x="118" y="93" type="line" smooth="yes"/>
			<point x="84" y="47"/>
			<point x="52" y="35"/>
			<point x="7" y="31" type="curve"/>
			<point x="1" y="25"/>
			<point x="1" y="4"/>
		</contour>
		<contour>
			<point x="322" y="360" type="line"/>
			<point x="345" y="331" type="line"/>
			<point x="516" y="552" type="line" smooth="yes"/>
			<point x="551" y="597"/>
			<point x="582" y="610"/>
			<point x="627" y="614" type="curve"/>
			<point x="633" y="620"/>
			<point x="633" y="641"/>
			<point x="627" y="647" type="curve"/>
			<point x="597" y="646"/>
			<point x="560" y="645"/>
			<point x="537" y="645" type="curve" smooth="yes"/>
			<point x="514" y="645"/>
			<point x="472" y="646"/>
			<point x="432" y="647" type="curve"/>
			<point x="426" y="641"/>
			<point x="426" y="620"/>
			<point x="432" y="614" type="curve"/>
			<point x="476" y="611"/>
			<point x="495" y="605"/>
			<point x="471" y="572" type="curve" smooth="yes"/>
		</contour>
	</outline>
	<anchor name="m.uni0302" x="332" y="850"/>
	<anchor name="m.uni0316_2" x="307" y="-110"/>
	<anchor name="m.uni031A_3" x="689" y="732"/>
	<anchor name="t.uni0302" x="328" y="740"/>
	<guideline x="379" y="375" angle="52.2597"/>
	<guideline x="471" y="572" angle="234.898"/>
</glyph>
<glyph name="Z" format="2">
	<unicode hex="005A"/>
	<advance width="604"/>
	<outline>
		<contour>
			<point x="41" y="15" type="curve" smooth="yes"/>
			<point x="41" y="5"/>
			<point x="46" y="0"/>
			<point x="60" y="0" type="curve" smooth="yes"/>
			<point x="424" y="0" type="line" smooth="yes"/>
			<point x="451" y="0"/>
			<point x="541" y="-2"/>
			<point x="550" y="-3" type="curve"/>
			<point x="550" y="-3"/>
			<point x="552" y="-1"/>
			<point x="552" y="-1" type="curve"/>
			<point x="556" y="54"/>
			<point x="566" y="113"/>
			<point x="578" y="165" type="curve"/>
			<point x="571" y="167"/>
			<point x="560" y="170"/>
			<point x="547" y="170" type="curve"/>
			<point x="516" y="99"/>
			<point x="491" y="44"/>
			<point x="382" y="42" type="curve" smooth="yes"/>
			<point x="189" y="38" type="line"/>
			<point x="172" y="38"/>
			<point x="164" y="43"/>
			<point x="164" y="52" type="curve" smooth="yes"/>
			<point x="164" y="57"/>
			<point x="167" y="63"/>
			<point x="172" y="72" type="curve"/>
			<point x="547" y="591" type="line" smooth="yes"/>
			<point x="567" y="619"/>
			<point x="571" y="625"/>
			<point x="571" y="636" type="curve" smooth="yes"/>
			<point x="571" y="643"/>
			<point x="566" y="647"/>
			<point x="558" y="647" type="curve" smooth="yes"/>
			<point x="546" y="647"/>
			<point x="515" y="645"/>
			<point x="485" y="645" type="curve" smooth="yes"/>
			<point x="264" y="645" type="line" smooth="yes"/>
			<point x="217" y="645"/>
			<point x="122" y="650"/>
			<point x="86" y="654" type="curve"/>
			<point x="86" y="654"/>
			<point x="82" y="652"/>
			<point x="82" y="651" type="curve"/>
			<point x="79" y="598"/>
			<point x="69" y="542"/>
			<point x="61" y="501" type="curve"/>
			<point x="71" y="498"/>
			<point x="80" y="496"/>
			<point x="91" y="496" type="curve"/>
			<point x="112" y="565"/>
			<point x="150" y="601"/>
			<point x="225" y="602" type="curve" smooth="yes"/>
			<point x="436" y="606" type="line"/>
			<point x="442" y="606"/>
			<point x="446" y="603"/>
			<point x="446" y="597" type="curve" smooth="yes"/>
			<point x="446" y="592"/>
			<point x="443" y="586"/>
			<point x="438" y="579" type="curve" smooth="yes"/>
			<point x="49" y="38" type="line" smooth="yes"/>
			<point x="43" y="30"/>
			<point x="41" y="22"/>
		</contour>
	</outline>
	<anchor name="m.uni0302" x="320" y="850"/>
	<anchor name="m.uni0316_2" x="287" y="-110"/>
	<anchor name="m.uni031A_3" x="619" y="732"/>
	<anchor name="t.uni0302" x="308" y="740"/>
</glyph>
<glyph name="bracketleft" format="2">
	<unicode hex="005B"/>
	<advance width="356"/>
	<outline>
		<contour>
			<point x="108" y="-193" type="line"/>
			<point x="320" y="-193" type="line"/>
			<point x="326" y="-187"/>
			<point x="326" y="-169"/>
			<point x="320" y="-163" type="curve"/>
			<point x="182" y="-152"/>
			<point x="175" y="-137"/>
			<point x="175" y="-50" type="curve" smooth="yes"/>
			<point x="175" y="561" type="line" smooth="yes"/>
			<point x="175" y="648"/>
			<point x="183" y="663"/>
			<point x="320" y="673" type="curve"/>
			<point x="326" y="679"/>
			<point x="326" y="697"/>
			<point x="320" y="703" type="curve"/>
			<point x="108" y="703" type="line"/>
		</contour>
	</outline>
</glyph>
<glyph name="bracketright" format="2">
	<unicode hex="005D"/>
	<advance width="356"/>
	<outline>
		<contour>
			<point x="248" y="704" type="line"/>
			<point x="36" y="704" type="line"/>
			<point x="30" y="698"/>
			<point x="30" y="680"/>
			<point x="36" y="674" type="curve"/>
			<point x="174" y="663"/>
			<point x="181" y="648"/>
			<point x="181" y="561" type="curve" smooth="yes"/>
			<point x="181" y="-50" type="line" smooth="yes"/>
			<point x="181" y="-137"/>
			<point x="173" y="-152"/>
			<point x="36" y="-162" type="curve"/>
			<point x="30" y="-168"/>
			<point x="30" y="-186"/>
			<point x="36" y="-192" type="curve"/>
			<point x="248" y="-192" type="line"/>
		</contour>
	</outline>
</glyph>
<glyph name="asciicircum" format="2">
	<unicode hex="005E"/>
	<advance width="518"/>
	<outline>
		<contour>
			<point x="259" y="593" type="line"/>
			<point x="362" y="346" type="line"/>
			<point x="407" y="346" type="line"/>
			<point x="281" y="650" type="line"/>
			<point x="239" y="650" type="line"/>
			<point x="112" y="346" type="line"/>
			<point x="157" y="346" type="line"/>
		</contour>
	</outline>
</glyph>
<glyph name="underscore" format="2">
	<unicode hex="005F"/>
	<advance width="486"/>
	<outline>
		<contour>
			<point x="476" y="-110" type="curve"/>
			<point x="10" y="-110" type="line"/>
			<point x="2" y="-118"/>
			<point x="2" y="-146"/>
			<point x="10" y="-154" type="curve"/>
			<point x="476" y="-154" type="line"/>
			<point x="484" y="-146"/>
			<point x="484" y="-118"/>
		</contour>
	</outline>
</glyph>
<glyph name="d" format="2">
	<unicode hex="0064"/>
	<advance width="506"/>
	<outline>
		<contour>
			<point x="360" y="-10" type="curve"/>
			<point x="368" y="-13"/>
			<point x="373" y="-12"/>
			<point x="379" y="-10" type="curve"/>
			<point x="401" y="8"/>
			<point x="436" y="23"/>
			<point name=".hr01" x="497" y="30" type="curve"/>
			<point x="503" y="36"/>
			<point x="503" y="51"/>
			<point x="497" y="57" type="curve"/>
			<point x="433" y="62"/>
			<point x="424" y="81"/>
			<point x="424" y="130" type="curve" smooth="yes"/>
			<point x="424" y="583" type="line" smooth="yes"/>
			<point x="424" y="648"/>
			<point x="428" y="684"/>
			<point x="428" y="688" type="curve" smooth="yes"/>
			<point x="428" y="695"/>
			<point x="424" y="698"/>
			<point x="415" y="698" type="curve"/>
			<point x="390" y="688"/>
			<point x="315" y="674"/>
			<point x="275" y="671" type="curve"/>
			<point x="273" y="663"/>
			<point x="275" y="647"/>
			<point x="281" y="641" type="curve"/>
			<point x="329" y="641"/>
			<point x="345" y="629"/>
			<point x="345" y="595" type="curve" smooth="yes"/>
			<point x="345" y="107" type="line" smooth="yes"/>
			<point x="345" y="61"/>
			<point x="349" y="34"/>
		</contour>
		<contour>
			<point name=".hr02" x="361" y="412" type="line"/>
			<point x="327" y="429"/>
			<point x="287" y="439"/>
			<point x="258" y="439" type="curve" smooth="yes"/>
			<point x="125" y="439"/>
			<point x="39" y="332"/>
			<point x="39" y="203" type="curve" smooth="yes"/>
			<point x="39" y="80"/>
			<point x="101" y="-10"/>
			<point x="209" y="-10" type="curve" smooth="yes"/>
			<point x="258" y="-10"/>
			<point x="328" y="39"/>
			<point x="355" y="70" type="curve"/>
			<point x="354" y="109" type="line"/>
			<point x="328" y="83"/>
			<point x="280" y="37"/>
			<point x="235" y="37" type="curve" smooth="yes"/>
			<point x="181" y="37"/>
			<point x="125" y="96"/>
			<point x="125" y="221" type="curve" smooth="yes"/>
			<point x="125" y="302"/>
			<point x="145" y="404"/>
			<point x="247" y="404" type="curve" smooth="yes"/>
			<point x="294" y="404"/>
			<point x="311" y="391"/>
			<point x="361" y="330" type="curve"/>
		</contour>
	</outline>
	<anchor name="m.uni0302" x="218" y="645"/>
	<anchor name="t.uni0315_1" x="500" y="466"/>
	<anchor name="m.uni0316_2" x="221" y="-110"/>
	<anchor name="m.uni031A_3" x="490" y="580"/>
	<anchor name="b.uni0321_4" x="312" y="20"/>
</glyph>
<glyph name="e" format="2">
	<unicode hex="0065"/>
	<advance width="447"/>
	<outline>
		<contour>
			<point x="386" y="93" type="curve"/>
			<point x="349" y="55"/>
			<point x="320" y="39"/>
			<point x="262" y="39" type="curve" smooth="yes"/>
			<point x="159" y="39"/>
			<point x="121" y="165"/>
			<point x="121" y="248" type="curve"/>
			<point x="387" y="246" type="line"/>
			<point x="399" y="246"/>
			<point x="406" y="252"/>
			<point x="406" y="263" type="curve" smooth="yes"/>
			<point x="406" y="347"/>
			<point x="376" y="437"/>
			<point x="237" y="437" type="curve" smooth="yes"/>
			<point x="150" y="437"/>
			<point x="37" y="354"/>
			<point x="37" y="202" type="curve" smooth="yes"/>
			<point x="37" y="77"/>
			<point x="106" y="-10"/>
			<point x="237" y="-10" type="curve" smooth="yes"/>
			<point x="313" y="-10"/>
			<point x="367" y="25"/>
			<point x="407" y="77" type="curve"/>
			<point x="404" y="87"/>
			<point x="398" y="92"/>
		</contour>
		<contour>
			<point x="124" y="282" type="line"/>
			<point x="143" y="395"/>
			<point x="213" y="404"/>
			<point x="237" y="404" type="curve" smooth="yes"/>
			<point x="275" y="404"/>
			<point x="320" y="383"/>
			<point x="320" y="299" type="curve" smooth="yes"/>
			<point x="320" y="290"/>
			<point x="316" y="285"/>
			<point x="305" y="285" type="curve"/>
		</contour>
	</outline>
	<anchor name="t.uni0302" x="243" y="500"/>
	<anchor name="t.uni0315_1" x="420" y="396"/>
	<anchor name="m.uni0316_2" x="234" y="-110"/>
	<anchor name="b.uni0321_4" x="384" y="41"/>
</glyph>
<glyph name="i" format="2">
	<unicode hex="0069"/>
	<advance width="271"/>
	<outline>
		<component base="dotlessi"/>
		<contour>
			<point x="90" y="599" type="curve" smooth="yes"/>
			<point x="90" y="573"/>
			<point x="114" y="547"/>
			<point x="138" y="547" type="curve" smooth="yes"/>
			<point x="166" y="547"/>
			<point x="190" y="574"/>
			<point x="190" y="595" type="curve" smooth="yes"/>
			<point x="190" y="619"/>
			<point x="169" y="647"/>
			<point x="142" y="647" type="curve" smooth="yes"/>
			<point x="118" y="647"/>
			<point x="90" y="623"/>
		</contour>
	</outline>
	<anchor name="m.uni0302" x="137" y="795"/>
	<anchor name="m.uni0316_2" x="136" y="-110"/>
	<anchor name="b.uni0321_4" x="209" y="10"/>
</glyph>
<glyph name="j" format="2">
	<unicode hex="006A"/>
	<advance width="272"/>
	<outline>
		<component base="uni0237"/>
		<contour>
			<point x="99" y="599" type="curve" smooth="yes"/>
			<point x="99" y="573"/>
			<point x="123" y="547"/>
			<point x="147" y="547" type="curve" smooth="yes"/>
			<point x="175" y="547"/>
			<point x="199" y="574"/>
			<point x="199" y="595" type="curve" smooth="yes"/>
			<point x="199" y="619"/>
			<point x="178" y="647"/>
			<point x="151" y="647" type="curve" smooth="yes"/>
			<point x="127" y="647"/>
			<point x="99" y="623"/>
		</contour>
	</outline>
	<anchor name="m.uni0316_2" x="109" y="-319"/>
</glyph>
<glyph name="k" format="2">
	<unicode hex="006B"/>
	<advance width="512"/>
	<outline>
		<contour>
			<point x="19" y="-2" type="curve"/>
			<point x="52" y="-1"/>
			<point x="86" y="0"/>
			<point x="126" y="0" type="curve" smooth="yes"/>
			<point x="161" y="0"/>
			<point x="194" y="-1"/>
			<point x="217" y="-2" type="curve"/>
			<point x="223" y="4"/>
			<point x="223" y="25"/>
			<point x="217" y="31" type="curve"/>
			<point x="176" y="35"/>
			<point x="165" y="39"/>
			<point x="165" y="122" type="curve" smooth="yes"/>
			<point x="165" y="583" type="line" smooth="yes"/>
			<point x="165" y="648"/>
			<point x="169" y="684"/>
			<point x="169" y="688" type="curve" smooth="yes"/>
			<point x="169" y="695"/>
			<point x="165" y="698"/>
			<point x="156" y="698" type="curve"/>
			<point x="131" y="688"/>
			<point x="56" y="674"/>
			<point x="16" y="671" type="curve"/>
			<point x="14" y="663"/>
			<point x="16" y="647"/>
			<point x="22" y="641" type="curve"/>
			<point x="70" y="641"/>
			<point x="86" y="629"/>
			<point x="86" y="595" type="curve" smooth="yes"/>
			<point x="86" y="122" type="line" smooth="yes"/>
			<point x="86" y="39"/>
			<point x="75" y="35"/>
			<point x="19" y="31" type="curve"/>
			<point x="13" y="25"/>
			<point x="13" y="4"/>
		</contour>
		<contour>
			<point x="143" y="210" type="line"/>
			<point x="190" y="210"/>
			<point x="218" y="200"/>
			<point x="240" y="171" type="curve" smooth="yes"/>
			<point x="313" y="73" type="line" smooth="yes"/>
			<point x="342" y="34"/>
			<point x="354" y="15"/>
			<point x="355" y="3" type="curve"/>
			<point x="355" y="0"/>
			<point x="356" y="-2"/>
			<point x="359" y="-2" type="curve"/>
			<point x="379" y="-1"/>
			<point x="401" y="0"/>
			<point x="421" y="0" type="curve" smooth="yes"/>
			<point x="452" y="0"/>
			<point x="483" y="-1"/>
			<point x="503" y="-2" type="curve"/>
			<point x="509" y="4"/>
			<point x="509" y="25"/>
			<point x="503" y="31" type="curve"/>
			<point x="460" y="36"/>
			<point x="438" y="47"/>
			<point x="417" y="73" type="curve" smooth="yes"/>
			<point x="285" y="239" type="line" smooth="yes"/>
			<point x="281" y="244"/>
			<point x="278" y="248"/>
			<point x="278" y="253" type="curve" smooth="yes"/>
			<point x="278" y="257"/>
			<point x="278" y="259"/>
			<point x="282" y="263" type="curve" smooth="yes"/>
			<point x="370" y="354" type="line" smooth="yes"/>
			<point x="400" y="386"/>
			<point x="435" y="394"/>
			<point x="475" y="398" type="curve"/>
			<point x="481" y="404"/>
			<point x="481" y="425"/>
			<point x="475" y="431" type="curve"/>
			<point x="452" y="430"/>
			<point x="424" y="429"/>
			<point x="388" y="429" type="curve" smooth="yes"/>
			<point x="350" y="429"/>
			<point x="313" y="430"/>
			<point x="290" y="431" type="curve"/>
			<point x="284" y="425"/>
			<point x="284" y="404"/>
			<point x="290" y="398" type="curve"/>
			<point x="318" y="396"/>
			<point x="326" y="387"/>
			<point x="326" y="377" type="curve" smooth="yes"/>
			<point x="326" y="348"/>
			<point x="253" y="277"/>
			<point x="226" y="258" type="curve" smooth="yes"/>
			<point x="200" y="240"/>
			<point x="161" y="232"/>
			<point x="143" y="232" type="curve"/>
		</contour>
	</outline>
	<anchor name="m.uni0302" x="306" y="784"/>
	<anchor name="m.uni0316_2" x="290" y="-214"/>
	<anchor name="m.uni031A_3" x="536" y="696"/>
</glyph>
<glyph name="m" format="2">
	<unicode hex="006D"/>
	<advance width="790"/>
	<outline>
		<contour>
			<point x="713" y="130" type="line"/>
			<point x="713" y="281" type="line" smooth="yes"/>
			<point x="713" y="370"/>
			<point x="698" y="440"/>
			<point x="610" y="440" type="curve" smooth="yes"/>
			<point x="555" y="440"/>
			<point x="477" y="408"/>
			<point x="425" y="344" type="curve"/>
			<point x="428" y="305" type="line"/>
			<point x="481" y="372"/>
			<point x="531" y="388"/>
			<point x="574" y="388" type="curve" smooth="yes"/>
			<point x="612" y="388"/>
			<point x="634" y="366"/>
			<point x="634" y="299" type="curve" smooth="yes"/>
			<point x="634" y="130" type="line"/>
		</contour>
		<contour>
			<point x="443" y="130" type="line"/>
			<point x="443" y="282" type="line" smooth="yes"/>
			<point x="443" y="358"/>
			<point x="429" y="440"/>
			<point x="334" y="440" type="curve" smooth="yes"/>
			<point x="271" y="440"/>
			<point x="202" y="388"/>
			<point x="161" y="337" type="curve"/>
			<point x="166" y="304" type="line"/>
			<point x="199" y="343"/>
			<point x="246" y="388"/>
			<point x="298" y="388" type="curve" smooth="yes"/>
			<point x="336" y="388"/>
			<point x="364" y="364"/>
			<point x="364" y="297" type="curve" smooth="yes"/>
			<point x="364" y="130" type="line"/>
		</contour>
		<contour>
			<point x="173" y="130" type="line"/>
			<point x="173" y="311" type="line" smooth="yes"/>
			<point x="173" y="370"/>
			<point x="169" y="417"/>
			<point x="162" y="435" type="curve" smooth="yes"/>
			<point x="160" y="440"/>
			<point x="158" y="443"/>
			<point x="150" y="443" type="curve"/>
			<point x="122" y="432"/>
			<point x="96" y="423"/>
			<point x="27" y="414" type="curve"/>
			<point x="25" y="408"/>
			<point x="27" y="392"/>
			<point x="29" y="386" type="curve"/>
			<point x="83" y="381"/>
			<point x="94" y="376"/>
			<point x="94" y="318" type="curve" smooth="yes"/>
			<point x="94" y="130" type="line"/>
		</contour>
		<contour>
			<point x="94" y="130" type="line"/>
			<point x="94" y="41"/>
			<point x="84" y="36"/>
			<point x="24" y="31" type="curve"/>
			<point x="18" y="25"/>
			<point x="18" y="4"/>
			<point x="24" y="-2" type="curve"/>
			<point x="54" y="-1"/>
			<point x="94" y="0"/>
			<point x="134" y="0" type="curve" smooth="yes"/>
			<point x="174" y="0"/>
			<point x="204" y="-1"/>
			<point x="234" y="-2" type="curve"/>
			<point x="240" y="4"/>
			<point x="240" y="25"/>
			<point x="234" y="31" type="curve"/>
			<point x="183" y="36"/>
			<point x="173" y="41"/>
			<point x="173" y="130" type="curve"/>
		</contour>
		<contour>
			<point x="364" y="130" type="line"/>
			<point x="364" y="41"/>
			<point x="355" y="36"/>
			<point x="303" y="31" type="curve"/>
			<point x="297" y="25"/>
			<point x="297" y="4"/>
			<point x="303" y="-2" type="curve"/>
			<point x="331" y="-1"/>
			<point x="367" y="0"/>
			<point x="404" y="0" type="curve" smooth="yes"/>
			<point x="444" y="0"/>
			<point x="474" y="-1"/>
			<point x="504" y="-2" type="curve"/>
			<point x="510" y="4"/>
			<point x="510" y="25"/>
			<point x="504" y="31" type="curve"/>
			<point x="453" y="36"/>
			<point x="443" y="41"/>
			<point x="443" y="130" type="curve"/>
		</contour>
		<contour>
			<point x="634" y="130" type="line"/>
			<point x="634" y="41"/>
			<point x="625" y="36"/>
			<point x="573" y="31" type="curve"/>
			<point x="567" y="25"/>
			<point x="567" y="4"/>
			<point x="573" y="-2" type="curve"/>
			<point x="601" y="-1"/>
			<point x="637" y="0"/>
			<point x="674" y="0" type="curve" smooth="yes"/>
			<point x="718" y="0"/>
			<point x="750" y="-1"/>
			<point x="783" y="-2" type="curve"/>
			<point x="789" y="4"/>
			<point x="789" y="25"/>
			<point x="783" y="31" type="curve"/>
			<point x="724" y="36"/>
			<point x="713" y="41"/>
			<point x="713" y="130" type="curve"/>
		</contour>
	</outline>
	<anchor name="m.uni0302" x="392" y="645"/>
	<anchor name="m.uni0316_2" x="408" y="-110"/>
</glyph>
<glyph name="o" format="2">
	<unicode hex="006F"/>
	<advance width="504"/>
	<outline>
		<contour>
			<point x="41" y="205" type="curve" smooth="yes"/>
			<point x="41" y="103"/>
			<point x="109" y="-10"/>
			<point x="251" y="-10" type="curve" smooth="yes"/>
			<point x="381" y="-10"/>
			<point x="463" y="87"/>
			<point x="463" y="214" type="curve" smooth="yes"/>
			<point x="463" y="318"/>
			<point x="406" y="439"/>
			<point x="253" y="439" type="curve" smooth="yes"/>
			<point x="119" y="439"/>
			<point x="41" y="332"/>
		</contour>
		<contour>
			<point x="238" y="404" type="curve" smooth="yes"/>
			<point x="324" y="404"/>
			<point x="377" y="326"/>
			<point x="377" y="182" type="curve" smooth="yes"/>
			<point x="377" y="56"/>
			<point x="312" y="25"/>
			<point x="265" y="25" type="curve" smooth="yes"/>
			<point x="161" y="25"/>
			<point x="127" y="151"/>
			<point x="127" y="228" type="curve" smooth="yes"/>
			<point x="127" y="315"/>
			<point x="148" y="404"/>
		</contour>
	</outline>
	<anchor name="t.uni0302" x="238" y="500"/>
	<anchor name="t.uni0315_1" x="420" y="396"/>
	<anchor name="m.uni0316_2" x="243" y="-110"/>
	<anchor name="b.uni0321_4" x="372" y="44"/>
</glyph>
<glyph name="p" format="2">
	<unicode hex="0070"/>
	<advance width="519"/>
	<outline>
		<contour>
			<point x="8" y="-234" type="curve"/>
			<point x="43" y="-233"/>
			<point x="80" y="-232"/>
			<point x="120" y="-232" type="curve" smooth="yes"/>
			<point x="160" y="-232"/>
			<point x="208" y="-233"/>
			<point x="241" y="-234" type="curve"/>
			<point x="247" y="-228"/>
			<point x="247" y="-207"/>
			<point x="241" y="-201" type="curve"/>
			<point x="170" y="-197"/>
			<point x="159" y="-193"/>
			<point x="159" y="-110" type="curve" smooth="yes"/>
			<point x="159" y="311" type="line" smooth="yes"/>
			<point x="159" y="365"/>
			<point x="153" y="411"/>
			<point x="148" y="434" type="curve" smooth="yes"/>
			<point x="147" y="439"/>
			<point x="144" y="442"/>
			<point x="136" y="442" type="curve"/>
			<point x="108" y="431"/>
			<point x="82" y="422"/>
			<point x="13" y="413" type="curve"/>
			<point x="11" y="407"/>
			<point x="13" y="391"/>
			<point x="15" y="385" type="curve"/>
			<point x="69" y="380"/>
			<point x="80" y="375"/>
			<point x="80" y="317" type="curve" smooth="yes"/>
			<point x="80" y="-110" type="line" smooth="yes"/>
			<point x="80" y="-193"/>
			<point x="69" y="-198"/>
			<point x="8" y="-201" type="curve"/>
			<point x="2" y="-207"/>
			<point x="2" y="-228"/>
		</contour>
		<contour>
			<point x="144" y="16" type="line"/>
			<point x="168" y="3"/>
			<point x="227" y="-10"/>
			<point x="260" y="-10" type="curve" smooth="yes"/>
			<point x="400" y="-10"/>
			<point x="481" y="102"/>
			<point x="481" y="235" type="curve" smooth="yes"/>
			<point x="481" y="341"/>
			<point x="406" y="439"/>
			<point x="304" y="439" type="curve" smooth="yes"/>
			<point x="258" y="439"/>
			<point x="201" y="402"/>
			<point x="161" y="357" type="curve"/>
			<point x="152" y="357" type="line"/>
			<point x="152" y="302" type="line"/>
			<point x="176" y="332"/>
			<point x="226" y="393"/>
			<point x="276" y="393" type="curve" smooth="yes"/>
			<point x="340" y="393"/>
			<point x="395" y="321"/>
			<point x="395" y="208" type="curve" smooth="yes"/>
			<point x="395" y="126"/>
			<point x="366" y="24"/>
			<point x="254" y="24" type="curve" smooth="yes"/>
			<point x="217" y="24"/>
			<point x="185" y="40"/>
			<point x="144" y="74" type="curve"/>
		</contour>
	</outline>
	<anchor name="m.uni0302" x="271" y="646"/>
	<anchor name="m.uni0316_2" x="179" y="-319"/>
	<anchor name="m.uni031A_3" x="429" y="580"/>
	<anchor name="t.uni0302" x="244" y="500"/>
</glyph>
<glyph name="q" format="2">
	<unicode hex="0071"/>
	<advance width="503"/>
	<outline>
		<contour>
			<point x="35" y="207" type="curve" smooth="yes"/>
			<point x="35" y="114"/>
			<point x="98" y="-10"/>
			<point x="242" y="-10" type="curve" smooth="yes"/>
			<point x="283" y="-10"/>
			<point x="300" y="-5"/>
			<point x="344" y="19" type="curve"/>
			<point x="346" y="19" type="line"/>
			<point x="346" y="-111" type="line" smooth="yes"/>
			<point x="346" y="-194"/>
			<point x="335" y="-198"/>
			<point x="274" y="-201" type="curve"/>
			<point x="268" y="-207"/>
			<point x="268" y="-228"/>
			<point x="274" y="-234" type="curve"/>
			<point x="309" y="-233"/>
			<point x="346" y="-232"/>
			<point x="386" y="-232" type="curve" smooth="yes"/>
			<point x="426" y="-232"/>
			<point x="464" y="-233"/>
			<point x="497" y="-234" type="curve"/>
			<point x="503" y="-228"/>
			<point x="503" y="-207"/>
			<point x="497" y="-201" type="curve"/>
			<point x="436" y="-198"/>
			<point x="425" y="-194"/>
			<point x="425" y="-111" type="curve" smooth="yes"/>
			<point x="425" y="333" type="line" smooth="yes"/>
			<point x="425" y="361"/>
			<point x="425" y="389"/>
			<point x="429" y="417" type="curve"/>
			<point x="429" y="431"/>
			<point x="421" y="442"/>
			<point x="410" y="442" type="curve" smooth="yes"/>
			<point x="400" y="442"/>
			<point x="383" y="420"/>
			<point x="373" y="403" type="curve"/>
			<point x="328" y="427"/>
			<point x="299" y="439"/>
			<point x="247" y="439" type="curve" smooth="yes"/>
			<point x="125" y="439"/>
			<point x="35" y="339"/>
		</contour>
		<contour>
			<point x="121" y="227" type="curve" smooth="yes"/>
			<point x="121" y="331"/>
			<point x="163" y="405"/>
			<point x="243" y="405" type="curve" smooth="yes"/>
			<point x="284" y="405"/>
			<point x="308" y="391"/>
			<point x="346" y="342" type="curve"/>
			<point x="346" y="54" type="line"/>
			<point x="315" y="39"/>
			<point x="301" y="34"/>
			<point x="266" y="34" type="curve" smooth="yes"/>
			<point x="208" y="34"/>
			<point x="121" y="76"/>
		</contour>
	</outline>
	<anchor name="m.uni0302" x="238" y="645"/>
	<anchor name="m.uni0316_2" x="348" y="-319"/>
	<anchor name="m.uni031A_3" x="469" y="732"/>
</glyph>
<glyph name="s" format="2">
	<unicode hex="0073"/>
	<advance width="390"/>
	<outline>
		<contour>
			<point x="48" y="138" type="curve"/>
			<point x="52" y="91"/>
			<point x="55" y="44"/>
			<point x="55" y="1" type="curve"/>
			<point x="65" y="3"/>
			<point x="75" y="4"/>
			<point x="80" y="4" type="curve" smooth="yes"/>
			<point x="87" y="4"/>
			<point x="93" y="4"/>
			<point x="107" y="0" type="curve" smooth="yes"/>
			<point x="127" y="-6"/>
			<point x="154" y="-10"/>
			<point x="191" y="-10" type="curve" smooth="yes"/>
			<point x="247" y="-10"/>
			<point x="350" y="19"/>
			<point x="350" y="117" type="curve" smooth="yes"/>
			<point x="350" y="184"/>
			<point x="301" y="224"/>
			<point x="233" y="249" type="curve" smooth="yes"/>
			<point x="173" y="272"/>
			<point name=".hr01" x="133" y="287"/>
			<point x="133" y="335" type="curve" smooth="yes"/>
			<point x="133" y="381"/>
			<point x="169" y="404"/>
			<point x="204" y="404" type="curve" smooth="yes"/>
			<point x="225" y="404"/>
			<point x="283" y="396"/>
			<point x="296" y="311" type="curve"/>
			<point x="302" y="307"/>
			<point x="322" y="308"/>
			<point x="328" y="312" type="curve"/>
			<point x="331" y="348"/>
			<point x="333" y="385"/>
			<point x="334" y="419" type="curve"/>
			<point x="303" y="424"/>
			<point x="255" y="439"/>
			<point x="211" y="439" type="curve" smooth="yes"/>
			<point x="129" y="439"/>
			<point x="62" y="389"/>
			<point x="62" y="325" type="curve" smooth="yes"/>
			<point x="62" y="254"/>
			<point x="95" y="223"/>
			<point x="181" y="188" type="curve" smooth="yes"/>
			<point x="255" y="157"/>
			<point x="274" y="136"/>
			<point x="274" y="102" type="curve" smooth="yes"/>
			<point x="274" y="46"/>
			<point x="226" y="25"/>
			<point x="183" y="25" type="curve" smooth="yes"/>
			<point x="109" y="25"/>
			<point x="95" y="78"/>
			<point name=".hr02" x="79" y="139" type="curve"/>
			<point x="73" y="145"/>
			<point x="54" y="144"/>
		</contour>
	</outline>
	<anchor name="t.uni0302" x="194" y="500"/>
	<anchor name="m.uni0316_2" x="196" y="-110"/>
	<anchor name="m.uni031A_3" x="366" y="580"/>
	<anchor name="b.uni0321_4" x="290" y="13"/>
</glyph>
<glyph name="u" format="2">
	<unicode hex="0075"/>
	<advance width="531"/>
	<outline>
		<contour>
			<point x="217" y="-10" type="curve" smooth="yes"/>
			<point x="259" y="-10"/>
			<point name=".hr01" x="328" y="30"/>
			<point x="379" y="75" type="curve"/>
			<point x="375" y="109" type="line"/>
			<point x="339" y="73"/>
			<point name=".hr02" x="275" y="37"/>
			<point x="247" y="37" type="curve" smooth="yes"/>
			<point x="217" y="37"/>
			<point x="167" y="51"/>
			<point x="167" y="140" type="curve" smooth="yes"/>
			<point x="167" y="322" type="line" smooth="yes"/>
			<point x="167" y="352"/>
			<point x="171" y="425"/>
			<point x="171" y="425" type="curve"/>
			<point x="171" y="428"/>
			<point x="168" y="431"/>
			<point x="163" y="431" type="curve"/>
			<point x="158" y="430"/>
			<point x="143" y="429"/>
			<point x="128" y="429" type="curve" smooth="yes"/>
			<point x="96" y="429"/>
			<point x="60" y="430"/>
			<point x="26" y="431" type="curve"/>
			<point x="20" y="425"/>
			<point x="20" y="404"/>
			<point x="26" y="398" type="curve"/>
			<point x="74" y="394"/>
			<point x="88" y="383"/>
			<point x="88" y="318" type="curve" smooth="yes"/>
			<point x="88" y="126" type="line" smooth="yes"/>
			<point name=".hr03" x="88" y="57"/>
			<point name=".hr04" x="118" y="-10"/>
		</contour>
		<contour>
			<point x="375" y="0" type="curve"/>
			<point x="376" y="-7"/>
			<point x="386" y="-10"/>
			<point x="397" y="-10" type="curve"/>
			<point x="419" y="8"/>
			<point x="454" y="23"/>
			<point x="515" y="30" type="curve"/>
			<point name=".hr05" x="521" y="36"/>
			<point x="521" y="51"/>
			<point x="515" y="57" type="curve"/>
			<point x="451" y="62"/>
			<point x="442" y="81"/>
			<point x="442" y="130" type="curve" smooth="yes"/>
			<point x="442" y="322" type="line" smooth="yes"/>
			<point x="442" y="352"/>
			<point x="446" y="425"/>
			<point x="446" y="425" type="curve"/>
			<point x="446" y="428"/>
			<point x="443" y="431"/>
			<point x="438" y="431" type="curve"/>
			<point x="433" y="430"/>
			<point x="418" y="429"/>
			<point x="403" y="429" type="curve" smooth="yes"/>
			<point x="371" y="429"/>
			<point x="335" y="430"/>
			<point x="301" y="431" type="curve"/>
			<point x="295" y="425"/>
			<point x="295" y="404"/>
			<point x="301" y="398" type="curve"/>
			<point x="350" y="395"/>
			<point x="363" y="383"/>
			<point x="363" y="317" type="curve" smooth="yes"/>
			<point x="363" y="124" type="line" smooth="yes"/>
			<point x="363" y="78"/>
			<point x="366" y="44"/>
		</contour>
	</outline>
	<anchor name="t.uni0302" x="239" y="500"/>
	<anchor name="m.uni0316_2" x="239" y="-110"/>
	<anchor name="b.uni0321_4" x="293" y="7"/>
</glyph>
<glyph name="v" format="2">
	<unicode hex="0076"/>
	<advance width="497"/>
	<outline>
		<contour>
			<point x="325" y="398" type="curve"/>
			<point x="379" y="394"/>
			<point x="385" y="382"/>
			<point x="364" y="331" type="curve" smooth="yes"/>
			<point x="283" y="135" type="line" smooth="yes"/>
			<point x="267" y="96"/>
			<point x="262" y="96"/>
			<point x="246" y="138" type="curve" smooth="yes"/>
			<point x="174" y="331" type="line" smooth="yes"/>
			<point x="156" y="379"/>
			<point x="152" y="391"/>
			<point x="205" y="398" type="curve"/>
			<point x="211" y="404"/>
			<point x="211" y="425"/>
			<point x="205" y="431" type="curve"/>
			<point x="172" y="430"/>
			<point x="137" y="429"/>
			<point x="104" y="429" type="curve" smooth="yes"/>
			<point x="71" y="429"/>
			<point x="41" y="430"/>
			<point x="11" y="431" type="curve"/>
			<point x="5" y="425"/>
			<point x="5" y="404"/>
			<point x="11" y="398" type="curve"/>
			<point x="64" y="392"/>
			<point x="71" y="376"/>
			<point x="91" y="325" type="curve" smooth="yes"/>
			<point x="219" y="9" type="line" smooth="yes"/>
			<point x="225" y="-6"/>
			<point x="231" y="-12"/>
			<point x="244" y="-12" type="curve" smooth="yes"/>
			<point x="254" y="-12"/>
			<point x="261" y="-6"/>
			<point x="268" y="11" type="curve" smooth="yes"/>
			<point x="401" y="324" type="line" smooth="yes"/>
			<point x="420" y="368"/>
			<point x="431" y="393"/>
			<point x="487" y="398" type="curve"/>
			<point x="493" y="404"/>
			<point x="493" y="425"/>
			<point x="487" y="431" type="curve"/>
			<point x="467" y="430"/>
			<point x="443" y="429"/>
			<point x="417" y="429" type="curve" smooth="yes"/>
			<point x="384" y="429"/>
			<point x="350" y="430"/>
			<point x="325" y="431" type="curve"/>
			<point x="319" y="425"/>
			<point x="319" y="404"/>
		</contour>
	</outline>
	<anchor name="m.uni0302" x="256" y="646"/>
	<anchor name="m.uni0316_2" x="241" y="-110"/>
	<anchor name="m.uni031A_3" x="460" y="580"/>
</glyph>
<glyph name="w" format="2">
	<unicode hex="0077"/>
	<advance width="747"/>
	<outline>
		<contour>
			<point x="245" y="-12" type="curve" smooth="yes"/>
			<point x="254" y="-12"/>
			<point x="262" y="-6"/>
			<point x="269" y="10" type="curve" smooth="yes"/>
			<point x="370" y="256" type="line"/>
			<point x="473" y="8" type="line" smooth="yes"/>
			<point x="479" y="-6"/>
			<point x="487" y="-12"/>
			<point x="497" y="-12" type="curve" smooth="yes"/>
			<point x="506" y="-12"/>
			<point x="514" y="-6"/>
			<point x="520" y="9" type="curve" smooth="yes"/>
			<point x="651" y="326" type="line" smooth="yes"/>
			<point x="668" y="367"/>
			<point x="684" y="395"/>
			<point x="735" y="398" type="curve"/>
			<point x="741" y="404"/>
			<point x="741" y="425"/>
			<point x="735" y="431" type="curve"/>
			<point x="715" y="430"/>
			<point x="693" y="429"/>
			<point x="663" y="429" type="curve" smooth="yes"/>
			<point x="633" y="429"/>
			<point x="591" y="430"/>
			<point x="561" y="431" type="curve"/>
			<point x="555" y="425"/>
			<point x="555" y="404"/>
			<point x="561" y="398" type="curve"/>
			<point x="636" y="394"/>
			<point x="626" y="365"/>
			<point x="612" y="330" type="curve" smooth="yes"/>
			<point x="528" y="122" type="line" smooth="yes"/>
			<point x="518" y="97"/>
			<point x="514" y="97"/>
			<point x="506" y="118" type="curve" smooth="yes"/>
			<point x="420" y="337" type="line" smooth="yes"/>
			<point x="401" y="384"/>
			<point x="403" y="394"/>
			<point x="456" y="398" type="curve"/>
			<point x="462" y="404"/>
			<point x="462" y="425"/>
			<point x="456" y="431" type="curve"/>
			<point x="426" y="430"/>
			<point x="386" y="429"/>
			<point x="356" y="429" type="curve" smooth="yes"/>
			<point x="331" y="429"/>
			<point x="298" y="430"/>
			<point x="268" y="431" type="curve"/>
			<point x="262" y="425"/>
			<point x="262" y="404"/>
			<point x="268" y="398" type="curve"/>
			<point x="315" y="394"/>
			<point x="327" y="365"/>
			<point x="345" y="320" type="curve" smooth="yes"/>
			<point x="351" y="304" type="line"/>
			<point x="281" y="127" type="line" smooth="yes"/>
			<point x="268" y="94"/>
			<point x="266" y="93"/>
			<point x="253" y="125" type="curve" smooth="yes"/>
			<point x="173" y="331" type="line" smooth="yes"/>
			<point x="154" y="379"/>
			<point x="155" y="395"/>
			<point x="203" y="398" type="curve"/>
			<point x="209" y="404"/>
			<point x="209" y="425"/>
			<point x="203" y="431" type="curve"/>
			<point x="173" y="430"/>
			<point x="138" y="429"/>
			<point x="102" y="429" type="curve" smooth="yes"/>
			<point x="64" y="429"/>
			<point x="37" y="430"/>
			<point x="11" y="431" type="curve"/>
			<point x="5" y="425"/>
			<point x="5" y="404"/>
			<point x="11" y="398" type="curve"/>
			<point x="58" y="393"/>
			<point x="69" y="383"/>
			<point x="90" y="331" type="curve" smooth="yes"/>
			<point x="221" y="8" type="line" smooth="yes"/>
			<point x="227" y="-6"/>
			<point x="235" y="-12"/>
		</contour>
	</outline>
	<anchor name="m.uni0302" x="345" y="646"/>
	<anchor name="m.uni0316_2" x="352" y="-110"/>
	<anchor name="m.uni031A_3" x="719" y="580"/>
</glyph>
<glyph name="y" format="2">
	<unicode hex="0079"/>
	<advance width="515"/>
	<outline>
		<contour>
			<point x="284" y="82" type="line"/>
			<point x="177" y="333" type="line" smooth="yes"/>
			<point x="159" y="375"/>
			<point x="154" y="394"/>
			<point x="210" y="398" type="curve"/>
			<point x="216" y="404"/>
			<point x="216" y="425"/>
			<point x="210" y="431" type="curve"/>
			<point x="173" y="430"/>
			<point x="133" y="429"/>
			<point x="97" y="429" type="curve" smooth="yes"/>
			<point x="63" y="429"/>
			<point x="36" y="430"/>
			<point x="16" y="431" type="curve"/>
			<point x="10" y="425"/>
			<point x="10" y="404"/>
			<point x="16" y="398" type="curve"/>
			<point x="56" y="393"/>
			<point x="69" y="384"/>
			<point x="95" y="323" type="curve" smooth="yes"/>
			<point x="240" y="-16" type="line"/>
		</contour>
		<contour>
			<point x="61" y="-191" type="curve" smooth="yes"/>
			<point x="60" y="-214"/>
			<point x="80" y="-232"/>
			<point x="107" y="-232" type="curve" smooth="yes"/>
			<point x="168" y="-232"/>
			<point x="189" y="-204"/>
			<point x="245" y="-74" type="curve" smooth="yes"/>
			<point x="422" y="334" type="line" smooth="yes"/>
			<point x="441" y="377"/>
			<point x="456" y="392"/>
			<point x="503" y="398" type="curve"/>
			<point x="509" y="404"/>
			<point x="509" y="425"/>
			<point x="503" y="431" type="curve"/>
			<point x="483" y="430"/>
			<point x="460" y="429"/>
			<point x="432" y="429" type="curve" smooth="yes"/>
			<point x="402" y="429"/>
			<point x="371" y="430"/>
			<point x="341" y="431" type="curve"/>
			<point x="335" y="425"/>
			<point x="335" y="404"/>
			<point x="341" y="398" type="curve"/>
			<point x="373" y="395"/>
			<point x="405" y="389"/>
			<point x="389" y="353" type="curve" smooth="yes"/>
			<point x="183" y="-126" type="line" smooth="yes"/>
			<point x="174" y="-147"/>
			<point x="158" y="-155"/>
			<point x="133" y="-155" type="curve" smooth="yes"/>
			<point x="114" y="-155"/>
			<point x="108" y="-151"/>
			<point x="93" y="-152" type="curve" smooth="yes"/>
			<point x="78" y="-153"/>
			<point x="62" y="-168"/>
		</contour>
	</outline>
	<anchor name="t.uni0302" x="262" y="500"/>
	<anchor name="m.uni0316_2" x="242" y="-319"/>
</glyph>
<glyph name="braceleft" format="2">
	<unicode hex="007B"/>
	<advance width="277"/>
	<outline>
		<contour>
			<point x="178" y="552" type="line" smooth="yes"/>
			<point x="173" y="655"/>
			<point x="220" y="672"/>
			<point x="258" y="683" type="curve"/>
			<point x="264" y="689"/>
			<point x="264" y="701"/>
			<point x="258" y="707" type="curve"/>
			<point x="168" y="707"/>
			<point x="102" y="667"/>
			<point x="106" y="554" type="curve" smooth="yes"/>
			<point x="112" y="370" type="line"/>
			<point x="112" y="320"/>
			<point x="88" y="266"/>
			<point x="14" y="259" type="curve"/>
			<point x="5" y="250"/>
			<point x="6" y="243"/>
			<point x="14" y="235" type="curve"/>
			<point x="88" y="226"/>
			<point x="114" y="182"/>
			<point x="112" y="121" type="curve" smooth="yes"/>
			<point x="106" y="-49" type="line" smooth="yes"/>
			<point x="101" y="-179"/>
			<point x="157" y="-212"/>
			<point x="258" y="-212" type="curve"/>
			<point x="264" y="-206"/>
			<point x="264" y="-194"/>
			<point x="258" y="-188" type="curve"/>
			<point x="214" y="-188"/>
			<point x="174" y="-138"/>
			<point x="178" y="-54" type="curve" smooth="yes"/>
			<point x="186" y="95" type="line" smooth="yes"/>
			<point x="190" y="177"/>
			<point x="149" y="217"/>
			<point x="81" y="245" type="curve"/>
			<point x="81" y="249" type="line"/>
			<point x="148" y="268"/>
			<point x="190" y="297"/>
			<point x="186" y="386" type="curve" smooth="yes"/>
		</contour>
	</outline>
</glyph>
<glyph name="bar" format="2">
	<unicode hex="007C"/>
	<advance width="205"/>
	<outline>
		<contour>
			<point x="125" y="-232" type="line"/>
			<point x="125" y="698" type="line"/>
			<point x="81" y="698" type="line"/>
			<point x="81" y="-232" type="line"/>
		</contour>
	</outline>
</glyph>
<glyph name="braceright" format="2">
	<unicode hex="007D"/>
	<advance width="277"/>
	<outline>
		<contour>
			<point x="95" y="-58" type="line" smooth="yes"/>
			<point x="100" y="-161"/>
			<point x="53" y="-178"/>
			<point x="15" y="-189" type="curve"/>
			<point x="9" y="-195"/>
			<point x="9" y="-207"/>
			<point x="15" y="-213" type="curve"/>
			<point x="105" y="-213"/>
			<point x="171" y="-173"/>
			<point x="167" y="-60" type="curve" smooth="yes"/>
			<point x="161" y="124" type="line"/>
			<point x="161" y="174"/>
			<point x="185" y="228"/>
			<point x="259" y="235" type="curve"/>
			<point x="268" y="244"/>
			<point x="267" y="251"/>
			<point x="259" y="259" type="curve"/>
			<point x="186" y="268"/>
			<point x="159" y="312"/>
			<point x="161" y="373" type="curve" smooth="yes"/>
			<point x="167" y="543" type="line" smooth="yes"/>
			<point x="172" y="673"/>
			<point x="116" y="706"/>
			<point x="15" y="706" type="curve"/>
			<point x="9" y="700"/>
			<point x="9" y="688"/>
			<point x="15" y="682" type="curve"/>
			<point x="59" y="682"/>
			<point x="100" y="632"/>
			<point x="95" y="548" type="curve" smooth="yes"/>
			<point x="87" y="399" type="line" smooth="yes"/>
			<point x="83" y="317"/>
			<point x="124" y="277"/>
			<point x="192" y="249" type="curve"/>
			<point x="192" y="245" type="line"/>
			<point x="125" y="226"/>
			<point x="83" y="197"/>
			<point x="87" y="108" type="curve" smooth="yes"/>
		</contour>
	</outline>
</glyph>
<glyph name="asciitilde" format="2">
	<unicode hex="007E"/>
	<advance width="449"/>
	<outline>
		<contour>
			<point x="148" y="278" type="curve" smooth="yes"/>
			<point x="173" y="278"/>
			<point x="197" y="264"/>
			<point x="221" y="246" type="curve" smooth="yes"/>
			<point x="245" y="228"/>
			<point x="274" y="213"/>
			<point x="297" y="213" type="curve" smooth="yes"/>
			<point x="321" y="213"/>
			<point x="386" y="226"/>
			<point x="417" y="333" type="curve"/>
			<point x="416" y="335"/>
			<point x="413" y="337"/>
			<point x="410" y="338" type="curve"/>
			<point x="408" y="339"/>
			<point x="404" y="339"/>
			<point x="400" y="339" type="curve"/>
			<point x="378" y="289"/>
			<point x="329" y="272"/>
			<point x="301" y="272" type="curve" smooth="yes"/>
			<point x="281" y="272"/>
			<point x="261" y="282"/>
			<point x="238" y="299" type="curve"/>
			<point x="235" y="301"/>
			<point x="232" y="303"/>
			<point x="229" y="305" type="curve"/>
			<point x="208" y="321"/>
			<point x="183" y="334"/>
			<point x="162" y="336" type="curve"/>
			<point x="159" y="337"/>
			<point x="157" y="337"/>
			<point x="154" y="337" type="curve" smooth="yes"/>
			<point x="102" y="337"/>
			<point x="55" y="291"/>
			<point x="35" y="238" type="curve" smooth="yes"/>
			<point x="31" y="228"/>
			<point x="28" y="219"/>
			<point x="26" y="209" type="curve"/>
			<point x="32" y="206"/>
			<point x="37" y="205"/>
			<point x="43" y="205" type="curve"/>
			<point x="66" y="249"/>
			<point x="113" y="278"/>
		</contour>
	</outline>
</glyph>
<glyph name="exclamdown" format="2">
	<unicode hex="00A1"/>
	<advance width="288"/>
	<outline>
		<contour>
			<point x="144" y="-229" type="curve" smooth="yes"/>
			<point x="168" y="-229"/>
			<point x="197" y="-210"/>
			<point x="197" y="-156" type="curve" smooth="yes"/>
			<point x="197" y="-86"/>
			<point x="183" y="-51"/>
			<point x="174" y="37" type="curve" smooth="yes"/>
			<point x="166" y="115"/>
			<point x="160" y="205"/>
			<point x="158" y="226" type="curve"/>
			<point x="157" y="232"/>
			<point x="154" y="239"/>
			<point x="144" y="239" type="curve" smooth="yes"/>
			<point x="134" y="239"/>
			<point x="131" y="230"/>
			<point x="130" y="219" type="curve"/>
			<point x="128" y="205"/>
			<point x="128" y="145"/>
			<point x="115" y="37" type="curve" smooth="yes"/>
			<point x="105" y="-49"/>
			<point x="91" y="-91"/>
			<point x="91" y="-156" type="curve" smooth="yes"/>
			<point x="91" y="-210"/>
			<point x="120" y="-229"/>
		</contour>
		<contour>
			<point x="91" y="386" type="curve" smooth="yes"/>
			<point x="91" y="357"/>
			<point x="115" y="333"/>
			<point x="144" y="333" type="curve" smooth="yes"/>
			<point x="173" y="333"/>
			<point x="197" y="357"/>
			<point x="197" y="386" type="curve" smooth="yes"/>
			<point x="197" y="415"/>
			<point x="173" y="439"/>
			<point x="144" y="439" type="curve" smooth="yes"/>
			<point x="115" y="439"/>
			<point x="91" y="415"/>
		</contour>
	</outline>
</glyph>
<glyph name="sterling" format="2">
	<unicode hex="00A3"/>
	<advance width="465"/>
	<outline>
		<contour>
			<point x="74" y="300" type="curve" smooth="yes"/>
			<point x="137" y="300" type="line"/>
			<point x="137" y="281" type="line" smooth="yes"/>
			<point x="137" y="207"/>
			<point x="130" y="139"/>
			<point x="95" y="94" type="curve" smooth="yes"/>
			<point x="91" y="89"/>
			<point x="87" y="84"/>
			<point x="82" y="80" type="curve"/>
			<point x="77" y="75"/>
			<point x="72" y="71"/>
			<point x="67" y="67" type="curve"/>
			<point x="40" y="52"/>
			<point x="16" y="36"/>
			<point x="16" y="17" type="curve" smooth="yes"/>
			<point x="16" y="1"/>
			<point x="33" y="-11"/>
			<point x="52" y="-11" type="curve" smooth="yes"/>
			<point x="74" y="-11"/>
			<point x="92" y="1"/>
			<point x="92" y="24" type="curve" smooth="yes"/>
			<point x="92" y="35"/>
			<point x="97" y="49"/>
			<point x="132" y="49" type="curve" smooth="yes"/>
			<point x="166" y="49"/>
			<point x="187" y="40"/>
			<point x="206" y="29" type="curve"/>
			<point x="234" y="11"/>
			<point x="256" y="-11"/>
			<point x="311" y="-11" type="curve" smooth="yes"/>
			<point x="376" y="-11"/>
			<point x="426" y="25"/>
			<point x="450" y="77" type="curve"/>
			<point x="446" y="84"/>
			<point x="440" y="87"/>
			<point x="432" y="88" type="curve"/>
			<point x="406" y="52"/>
			<point x="359" y="44"/>
			<point x="329" y="44" type="curve" smooth="yes"/>
			<point x="306" y="44"/>
			<point x="292" y="49"/>
			<point x="279" y="56" type="curve" smooth="yes"/>
			<point x="252" y="70"/>
			<point x="230" y="91"/>
			<point x="147" y="91" type="curve"/>
			<point x="181" y="123"/>
			<point x="221" y="181"/>
			<point x="222" y="300" type="curve"/>
			<point x="319" y="300" type="line" smooth="yes"/>
			<point x="323" y="300"/>
			<point x="326" y="300"/>
			<point x="330" y="300" type="curve" smooth="yes"/>
			<point x="341" y="300"/>
			<point x="354" y="305"/>
			<point x="354" y="313" type="curve" smooth="yes"/>
			<point x="354" y="333" type="line" smooth="yes"/>
			<point x="354" y="337"/>
			<point x="351" y="339"/>
			<point x="346" y="339" type="curve" smooth="yes"/>
			<point x="343" y="339"/>
			<point x="339" y="339"/>
			<point x="336" y="339" type="curve" smooth="yes"/>
			<point x="222" y="339" type="line"/>
			<point x="222" y="410" type="line" smooth="yes"/>
			<point x="222" y="497"/>
			<point x="259" y="563"/>
			<point x="305" y="563" type="curve" smooth="yes"/>
			<point x="327" y="563"/>
			<point x="342" y="552"/>
			<point x="355" y="540" type="curve" smooth="yes"/>
			<point x="367" y="529"/>
			<point x="376" y="521"/>
			<point x="391" y="521" type="curve" smooth="yes"/>
			<point x="415" y="521"/>
			<point x="432" y="537"/>
			<point x="432" y="562" type="curve" smooth="yes"/>
			<point x="432" y="598"/>
			<point x="375" y="611"/>
			<point x="352" y="611" type="curve" smooth="yes"/>
			<point x="299" y="611"/>
			<point x="254" y="588"/>
			<point x="219" y="552" type="curve" smooth="yes"/>
			<point x="164" y="498"/>
			<point x="137" y="444"/>
			<point x="137" y="359" type="curve" smooth="yes"/>
			<point x="137" y="339" type="line"/>
			<point x="101" y="339" type="line" smooth="yes"/>
			<point x="98" y="339"/>
			<point x="95" y="339"/>
			<point x="92" y="339" type="curve" smooth="yes"/>
			<point x="74" y="339"/>
			<point x="68" y="326"/>
			<point x="68" y="318" type="curve"/>
			<point x="68" y="318" type="line"/>
			<point x="68" y="314"/>
			<point x="68" y="311"/>
			<point x="68" y="307" type="curve" smooth="yes"/>
			<point x="68" y="302"/>
			<point x="69" y="300"/>
		</contour>
	</outline>
</glyph>
<glyph name="currency" format="2">
	<unicode hex="00A4"/>
	<advance width="465"/>
	<outline>
		<contour>
			<point x="231" y="119" type="curve" smooth="yes"/>
			<point x="274" y="119"/>
			<point x="313" y="132"/>
			<point x="348" y="158" type="curve"/>
			<point x="396" y="105" type="line"/>
			<point x="434" y="145" type="line"/>
			<point x="425.987" y="151.702"/>
			<point x="387.322" y="184.039"/>
			<point x="379" y="191" type="curve"/>
			<point x="404" y="224"/>
			<point x="418" y="262"/>
			<point x="418" y="304" type="curve" smooth="yes"/>
			<point x="418" y="348"/>
			<point x="404" y="386"/>
			<point x="378" y="418" type="curve"/>
			<point x="436" y="465" type="line"/>
			<point x="395" y="508" type="line"/>
			<point x="389.514" y="501.507"/>
			<point x="353.653" y="459.059"/>
			<point x="346" y="450" type="curve"/>
			<point x="312" y="476"/>
			<point x="274" y="489"/>
			<point x="231" y="489" type="curve" smooth="yes"/>
			<point x="190" y="489"/>
			<point x="153" y="477"/>
			<point x="118" y="452" type="curve"/>
			<point x="70" y="506" type="line"/>
			<point x="31" y="464" type="line"/>
			<point x="39.2413" y="457.407"/>
			<point x="77.6962" y="426.643"/>
			<point x="86" y="420" type="curve"/>
			<point x="59" y="388"/>
			<point x="44" y="349"/>
			<point x="44" y="304" type="curve" smooth="yes"/>
			<point x="44" y="261"/>
			<point x="59" y="222"/>
			<point x="86" y="189" type="curve"/>
			<point x="29" y="144" type="line"/>
			<point x="72" y="101" type="line"/>
			<point x="77.4115" y="107.734"/>
			<point x="110.069" y="148.375"/>
			<point x="117" y="157" type="curve"/>
			<point x="151" y="132"/>
			<point x="189" y="119"/>
		</contour>
		<contour>
			<point x="108" y="305" type="curve" smooth="yes"/>
			<point x="108" y="380"/>
			<point x="159" y="445"/>
			<point x="233" y="445" type="curve" smooth="yes"/>
			<point x="298" y="445"/>
			<point x="354" y="383"/>
			<point x="354" y="304" type="curve" smooth="yes"/>
			<point x="354" y="229"/>
			<point x="305" y="164"/>
			<point x="231" y="164" type="curve" smooth="yes"/>
			<point x="156" y="164"/>
			<point x="108" y="228"/>
		</contour>
	</outline>
</glyph>
<glyph name="section" format="2">
	<unicode hex="00A7"/>
	<advance width="473"/>
	<outline>
		<contour>
			<point x="393" y="-40" type="curve" smooth="yes"/>
			<point x="393" y="2"/>
			<point x="383" y="36"/>
			<point x="348" y="71" type="curve"/>
			<point x="393" y="107"/>
			<point name=".hr01" x="423" y="153"/>
			<point x="423" y="219" type="curve" smooth="yes"/>
			<point x="423" y="336"/>
			<point x="327" y="381"/>
			<point x="252" y="421" type="curve"/>
			<point x="248" y="423"/>
			<point x="244" y="425"/>
			<point x="240" y="427" type="curve"/>
			<point x="187" y="456"/>
			<point x="160" y="486"/>
			<point x="152" y="521" type="curve" smooth="yes"/>
			<point x="150" y="529"/>
			<point x="149" y="537"/>
			<point x="149" y="546" type="curve" smooth="yes"/>
			<point x="149" y="592"/>
			<point x="183" y="627"/>
			<point x="230" y="627" type="curve" smooth="yes"/>
			<point x="236" y="627"/>
			<point x="242" y="626"/>
			<point x="247" y="625" type="curve" smooth="yes"/>
			<point x="277" y="619"/>
			<point x="289" y="593"/>
			<point x="298" y="560" type="curve"/>
			<point x="298" y="560"/>
			<point x="298" y="560"/>
			<point x="298" y="560" type="curve"/>
			<point x="303" y="541"/>
			<point x="313" y="519"/>
			<point x="339" y="519" type="curve" smooth="yes"/>
			<point x="366" y="519"/>
			<point x="375" y="536"/>
			<point x="375" y="557" type="curve" smooth="yes"/>
			<point x="375" y="596"/>
			<point x="333" y="658"/>
			<point x="236" y="658" type="curve" smooth="yes"/>
			<point x="191" y="658"/>
			<point x="155" y="645"/>
			<point x="130" y="626" type="curve" smooth="yes"/>
			<point x="97" y="600"/>
			<point x="80" y="563"/>
			<point x="80" y="526" type="curve" smooth="yes"/>
			<point x="80" y="517"/>
			<point x="80" y="508"/>
			<point x="82" y="499" type="curve"/>
			<point x="86" y="469"/>
			<point x="98" y="442"/>
			<point x="125" y="415" type="curve"/>
			<point x="84" y="382"/>
			<point x="55" y="339"/>
			<point x="51" y="283" type="curve"/>
			<point name=".hr02" x="50" y="278"/>
			<point x="50" y="272"/>
			<point x="50" y="267" type="curve" smooth="yes"/>
			<point x="50" y="169"/>
			<point x="118" y="121"/>
			<point x="184" y="85" type="curve" smooth="yes"/>
			<point x="201" y="76"/>
			<point x="218" y="67"/>
			<point x="233" y="59" type="curve" smooth="yes"/>
			<point x="286" y="30"/>
			<point x="313" y="0"/>
			<point x="321" y="-35" type="curve" smooth="yes"/>
			<point x="323" y="-43"/>
			<point x="324" y="-51"/>
			<point x="324" y="-60" type="curve" smooth="yes"/>
			<point x="324" y="-106"/>
			<point x="290" y="-141"/>
			<point x="243" y="-141" type="curve" smooth="yes"/>
			<point x="237" y="-141"/>
			<point x="231" y="-140"/>
			<point x="226" y="-139" type="curve" smooth="yes"/>
			<point x="196" y="-133"/>
			<point x="184" y="-107"/>
			<point x="175" y="-74" type="curve"/>
			<point x="175" y="-74"/>
			<point x="175" y="-74"/>
			<point x="175" y="-74" type="curve"/>
			<point x="170" y="-55"/>
			<point x="160" y="-33"/>
			<point x="134" y="-33" type="curve"/>
			<point x="134" y="-33"/>
			<point x="134" y="-33"/>
			<point x="134" y="-33" type="curve"/>
			<point x="107" y="-33"/>
			<point x="98" y="-50"/>
			<point x="98" y="-71" type="curve" smooth="yes"/>
			<point x="98" y="-110"/>
			<point x="140" y="-172"/>
			<point x="237" y="-172" type="curve" smooth="yes"/>
			<point x="340" y="-172"/>
			<point x="393" y="-106"/>
		</contour>
		<contour>
			<point x="146" y="396" type="curve"/>
			<point x="156" y="388"/>
			<point x="167" y="380"/>
			<point x="180" y="371" type="curve"/>
			<point x="193" y="363"/>
			<point x="207" y="354"/>
			<point x="222" y="345" type="curve" smooth="yes"/>
			<point x="294" y="303"/>
			<point x="369" y="263"/>
			<point name=".hr03" x="369" y="171" type="curve" smooth="yes"/>
			<point x="369" y="166"/>
			<point x="369" y="161"/>
			<point x="368" y="156" type="curve" smooth="yes"/>
			<point x="363" y="131"/>
			<point x="347" y="108"/>
			<point x="327" y="90" type="curve"/>
			<point x="308" y="106"/>
			<point x="283" y="123"/>
			<point x="251" y="141" type="curve"/>
			<point x="247" y="144"/>
			<point x="242" y="146"/>
			<point x="237" y="149" type="curve" smooth="yes"/>
			<point x="170" y="188"/>
			<point x="104" y="229"/>
			<point x="104" y="315" type="curve" smooth="yes"/>
			<point x="104" y="321"/>
			<point x="104" y="326"/>
			<point x="105" y="331" type="curve" smooth="yes"/>
			<point x="110" y="357"/>
			<point x="124" y="377"/>
		</contour>
	</outline>
</glyph>
<glyph name="guillemotleft" format="2">
	<unicode hex="00AB"/>
	<advance width="543"/>
	<outline>
		<contour>
			<point x="156" y="215" type="curve"/>
			<point x="194" y="258"/>
			<point x="231" y="306"/>
			<point x="283" y="385" type="curve"/>
			<point x="281" y="395"/>
			<point x="270" y="403"/>
			<point x="259" y="404" type="curve"/>
			<point x="180" y="319"/>
			<point x="130" y="270"/>
			<point x="74" y="221" type="curve"/>
			<point x="74" y="219.502"/>
			<point x="74" y="211.541"/>
			<point x="74" y="209" type="curve"/>
			<point x="130" y="160"/>
			<point x="180" y="112"/>
			<point x="259" y="26" type="curve"/>
			<point x="270" y="27"/>
			<point x="281" y="35"/>
			<point x="283" y="45" type="curve"/>
			<point x="231" y="124"/>
			<point x="194" y="173"/>
		</contour>
		<contour>
			<point x="336" y="215" type="curve"/>
			<point x="374" y="258"/>
			<point x="411" y="306"/>
			<point x="463" y="385" type="curve"/>
			<point x="461" y="395"/>
			<point x="450" y="403"/>
			<point x="439" y="404" type="curve"/>
			<point x="360" y="319"/>
			<point x="310" y="270"/>
			<point x="254" y="221" type="curve"/>
			<point x="254" y="219.502"/>
			<point x="254" y="211.541"/>
			<point x="254" y="209" type="curve"/>
			<point x="310" y="160"/>
			<point x="360" y="112"/>
			<point x="439" y="26" type="curve"/>
			<point x="450" y="27"/>
			<point x="461" y="35"/>
			<point x="463" y="45" type="curve"/>
			<point x="411" y="124"/>
			<point x="374" y="173"/>
		</contour>
	</outline>
</glyph>
<glyph name="registered" format="2">
	<unicode hex="00AE"/>
	<advance width="695"/>
	<outline>
		<contour>
			<point x="321" y="23" type="curve" smooth="yes"/>
			<point x="477" y="23"/>
			<point x="608" y="150"/>
			<point x="608" y="306" type="curve" smooth="yes"/>
			<point x="608" y="462"/>
			<point x="477" y="588"/>
			<point x="321" y="588" type="curve" smooth="yes"/>
			<point x="165" y="588"/>
			<point x="34" y="462"/>
			<point x="34" y="306" type="curve" smooth="yes"/>
			<point x="34" y="151"/>
			<point x="164" y="23"/>
		</contour>
		<contour>
			<point x="321" y="556" type="curve" smooth="yes"/>
			<point x="460" y="556"/>
			<point x="568" y="445"/>
			<point x="568" y="306" type="curve" smooth="yes"/>
			<point x="568" y="167"/>
			<point x="459" y="55"/>
			<point x="321" y="55" type="curve" smooth="yes"/>
			<point x="181" y="55"/>
			<point x="74" y="168"/>
			<point x="74" y="306" type="curve" smooth="yes"/>
			<point x="74" y="445"/>
			<point x="181" y="556"/>
		</contour>
		<contour>
			<point x="430" y="370" type="curve" smooth="yes"/>
			<point x="430" y="400"/>
			<point x="410" y="445"/>
			<point x="335" y="445" type="curve" smooth="yes"/>
			<point x="315" y="445"/>
			<point x="279" y="443"/>
			<point x="263" y="443" type="curve" smooth="yes"/>
			<point x="247" y="443"/>
			<point x="217" y="444"/>
			<point x="199" y="445" type="curve"/>
			<point x="196" y="442"/>
			<point x="195" y="434"/>
			<point x="196" y="428" type="curve"/>
			<point x="197" y="425"/>
			<point x="198" y="422"/>
			<point x="199" y="421" type="curve"/>
			<point x="203" y="421"/>
			<point x="207" y="420"/>
			<point x="210" y="420" type="curve"/>
			<point x="216" y="419"/>
			<point x="222" y="417"/>
			<point x="226" y="415" type="curve" smooth="yes"/>
			<point x="230" y="413"/>
			<point x="233" y="410"/>
			<point x="235" y="406" type="curve" smooth="yes"/>
			<point x="238" y="400"/>
			<point x="239" y="392"/>
			<point x="239" y="380" type="curve" smooth="yes"/>
			<point x="239" y="232" type="line" smooth="yes"/>
			<point x="239" y="216"/>
			<point x="237" y="207"/>
			<point x="231" y="201" type="curve" smooth="yes"/>
			<point x="228" y="198"/>
			<point x="224" y="196"/>
			<point x="219" y="194" type="curve"/>
			<point x="216" y="193"/>
			<point x="213" y="193"/>
			<point x="210" y="192" type="curve"/>
			<point x="207" y="192"/>
			<point x="203" y="191"/>
			<point x="199" y="191" type="curve"/>
			<point x="198" y="190"/>
			<point x="197" y="187"/>
			<point name=".hr01" x="196" y="184" type="curve"/>
			<point x="195" y="178"/>
			<point x="196" y="170"/>
			<point x="199" y="167" type="curve"/>
			<point x="215" y="168"/>
			<point name=".hr02" x="240" y="169"/>
			<point x="256" y="169" type="curve" smooth="yes"/>
			<point x="263" y="169" type="line" smooth="yes"/>
			<point x="279" y="169"/>
			<point x="308" y="168"/>
			<point x="326" y="167" type="curve"/>
			<point x="326" y="167" type="line"/>
			<point x="329" y="170"/>
			<point x="330" y="178"/>
			<point x="329" y="184" type="curve"/>
			<point x="328" y="187"/>
			<point x="327" y="190"/>
			<point x="326" y="191" type="curve"/>
			<point name=".hr03" x="322" y="191"/>
			<point x="318" y="192"/>
			<point x="315" y="192" type="curve"/>
			<point x="312" y="193"/>
			<point x="309" y="193"/>
			<point x="306" y="194" type="curve"/>
			<point x="301" y="196"/>
			<point x="297" y="198"/>
			<point x="294" y="201" type="curve" smooth="yes"/>
			<point x="288" y="207"/>
			<point x="286" y="216"/>
			<point x="286" y="232" type="curve" smooth="yes"/>
			<point x="286" y="288" type="line"/>
			<point x="291" y="288"/>
			<point x="319" y="287"/>
			<point x="323" y="284" type="curve"/>
			<point x="371" y="204" type="line" smooth="yes"/>
			<point x="388" y="175"/>
			<point x="412" y="166"/>
			<point x="432" y="166" type="curve" smooth="yes"/>
			<point x="437" y="166"/>
			<point x="442" y="166"/>
			<point x="446" y="167" type="curve"/>
			<point x="454" y="168"/>
			<point name=".hr04" x="461" y="170"/>
			<point x="468" y="173" type="curve"/>
			<point x="469" y="179"/>
			<point x="468" y="186"/>
			<point x="464" y="190" type="curve"/>
			<point x="448" y="187"/>
			<point name=".hr05" x="432" y="195"/>
			<point x="421" y="214" type="curve" smooth="yes"/>
			<point x="373" y="296" type="line"/>
			<point x="404" y="306"/>
			<point x="430" y="331"/>
		</contour>
		<contour>
			<point x="376" y="370" type="curve" smooth="yes"/>
			<point x="376" y="324"/>
			<point x="358" y="312"/>
			<point x="328" y="312" type="curve" smooth="yes"/>
			<point x="314" y="312"/>
			<point name=".hr06" x="300" y="312"/>
			<point x="286" y="312" type="curve"/>
			<point x="286" y="387" type="line"/>
			<point x="286" y="387" type="line"/>
			<point x="286" y="405"/>
			<point x="301" y="421"/>
			<point x="326" y="421" type="curve" smooth="yes"/>
			<point x="360" y="421"/>
			<point x="376" y="404"/>
		</contour>
	</outline>
</glyph>
<glyph name="macron" format="2">
	<unicode hex="00AF"/>
	<advance width="397"/>
	<outline>
		<contour>
			<point x="315" y="530" type="line" smooth="yes"/>
			<point x="328" y="530"/>
			<point x="339" y="548"/>
			<point x="339" y="560" type="curve" smooth="yes"/>
			<point x="339" y="566"/>
			<point x="335" y="574"/>
			<point x="325" y="574" type="curve" smooth="yes"/>
			<point x="81" y="574" type="line" smooth="yes"/>
			<point x="69" y="574"/>
			<point x="59" y="557"/>
			<point x="59" y="545" type="curve" smooth="yes"/>
			<point x="59" y="538"/>
			<point x="62" y="530"/>
			<point x="71" y="530" type="curve" smooth="yes"/>
		</contour>
	</outline>
</glyph>
<glyph name="degree" format="2">
	<unicode hex="00B0"/>
	<advance width="267"/>
	<outline>
		<contour>
			<point x="34" y="509" type="curve" smooth="yes"/>
			<point x="34" y="454"/>
			<point x="79" y="409"/>
			<point x="134" y="409" type="curve" smooth="yes"/>
			<point x="189" y="409"/>
			<point x="233" y="454"/>
			<point x="233" y="509" type="curve" smooth="yes"/>
			<point x="233" y="565"/>
			<point x="189" y="610"/>
			<point x="134" y="610" type="curve" smooth="yes"/>
			<point x="79" y="610"/>
			<point x="34" y="565"/>
		</contour>
		<contour>
			<point x="199" y="508" type="curve" smooth="yes"/>
			<point x="199" y="474"/>
			<point x="175" y="439"/>
			<point x="134" y="439" type="curve" smooth="yes"/>
			<point x="92" y="439"/>
			<point x="68" y="473"/>
			<point x="68" y="508" type="curve" smooth="yes"/>
			<point x="68" y="544"/>
			<point x="91" y="580"/>
			<point x="134" y="580" type="curve" smooth="yes"/>
			<point x="179" y="580"/>
			<point x="199" y="541"/>
		</contour>
	</outline>
</glyph>
<glyph name="plusminus" format="2">
	<unicode hex="00B1"/>
	<advance width="550"/>
	<outline>
		<contour>
			<point x="300" y="361" type="line"/>
			<point x="300" y="533" type="line" smooth="yes"/>
			<point x="300" y="543"/>
			<point x="291" y="547"/>
			<point x="283" y="547" type="curve" smooth="yes"/>
			<point x="273" y="547"/>
			<point x="250" y="533"/>
			<point x="250" y="520" type="curve" smooth="yes"/>
			<point x="250" y="361" type="line"/>
			<point x="85" y="361" type="line" smooth="yes"/>
			<point x="73" y="361"/>
			<point x="60" y="342"/>
			<point x="60" y="327" type="curve" smooth="yes"/>
			<point x="60" y="319"/>
			<point x="66" y="311"/>
			<point x="75" y="311" type="curve" smooth="yes"/>
			<point x="250" y="311" type="line"/>
			<point x="250" y="141" type="line" smooth="yes"/>
			<point x="250" y="132"/>
			<point x="258" y="126"/>
			<point x="266" y="126" type="curve" smooth="yes"/>
			<point x="281" y="126"/>
			<point x="300" y="139"/>
			<point x="300" y="151" type="curve" smooth="yes"/>
			<point x="300" y="311" type="line"/>
			<point x="463" y="311" type="line" smooth="yes"/>
			<point x="476" y="311"/>
			<point x="490" y="334"/>
			<point x="490" y="344" type="curve" smooth="yes"/>
			<point x="490" y="352"/>
			<point x="486" y="361"/>
			<point x="476" y="361" type="curve" smooth="yes"/>
		</contour>
		<contour>
			<point x="490" y="70" type="curve" smooth="yes"/>
			<point x="490" y="78"/>
			<point x="486" y="87"/>
			<point x="476" y="87" type="curve" smooth="yes"/>
			<point x="85" y="87" type="line" smooth="yes"/>
			<point x="73" y="87"/>
			<point x="60" y="68"/>
			<point x="60" y="53" type="curve" smooth="yes"/>
			<point x="60" y="45"/>
			<point x="66" y="37"/>
			<point x="75" y="37" type="curve" smooth="yes"/>
			<point x="463" y="37" type="line" smooth="yes"/>
			<point x="476" y="37"/>
			<point x="490" y="60"/>
		</contour>
	</outline>
</glyph>
<glyph name="uni00B3" format="2">
	<unicode hex="00B3"/>
	<advance width="307"/>
	<outline>
		<contour>
			<point x="186" y="624" type="curve" smooth="yes"/>
			<point x="186" y="583"/>
			<point x="159" y="557"/>
			<point x="115" y="551" type="curve"/>
			<point x="112" y="542"/>
			<point x="112" y="531"/>
			<point x="117" y="524" type="curve"/>
			<point x="125" y="525"/>
			<point x="130" y="526"/>
			<point x="137" y="526" type="curve" smooth="yes"/>
			<point x="161" y="526"/>
			<point name=".hr01" x="212" y="522"/>
			<point x="212" y="465" type="curve" smooth="yes"/>
			<point x="212" y="401"/>
			<point x="168" y="388"/>
			<point x="139" y="388" type="curve" smooth="yes"/>
			<point x="118" y="388"/>
			<point x="107" y="391"/>
			<point x="100" y="396" type="curve"/>
			<point x="97" y="399"/>
			<point x="95" y="402"/>
			<point x="93" y="406" type="curve" smooth="yes"/>
			<point x="88" y="416"/>
			<point x="81" y="421"/>
			<point x="71" y="422" type="curve"/>
			<point x="68" y="423"/>
			<point x="66" y="423"/>
			<point x="63" y="423" type="curve" smooth="yes"/>
			<point x="51" y="423"/>
			<point x="38" y="414"/>
			<point x="38" y="401" type="curve" smooth="yes"/>
			<point x="38" y="399"/>
			<point x="38" y="396"/>
			<point x="39" y="394" type="curve"/>
			<point x="48" y="370"/>
			<point x="101" y="360"/>
			<point x="128" y="358" type="curve"/>
			<point x="131" y="358"/>
			<point x="133" y="358"/>
			<point x="135" y="358" type="curve" smooth="yes"/>
			<point x="215" y="358"/>
			<point x="274" y="404"/>
			<point x="274" y="473" type="curve" smooth="yes"/>
			<point x="274" y="531"/>
			<point x="227" y="558"/>
			<point x="194" y="561" type="curve"/>
			<point x="194" y="561"/>
			<point x="194" y="561"/>
			<point x="194" y="561" type="curve"/>
			<point x="223" y="577"/>
			<point name=".hr02" x="245" y="600"/>
			<point x="245" y="629" type="curve" smooth="yes"/>
			<point x="245" y="666"/>
			<point name=".hr03" x="212" y="688"/>
			<point x="160" y="688" type="curve" smooth="yes"/>
			<point x="73" y="688"/>
			<point x="46" y="640"/>
			<point x="46" y="623" type="curve" smooth="yes"/>
			<point x="46" y="620"/>
			<point x="50" y="605"/>
			<point x="69" y="605" type="curve" smooth="yes"/>
			<point x="92" y="605"/>
			<point x="91" y="623"/>
			<point x="96" y="634" type="curve" smooth="yes"/>
			<point x="103" y="650"/>
			<point x="131" y="658"/>
			<point x="148" y="658" type="curve" smooth="yes"/>
			<point x="164" y="658"/>
			<point name=".hr04" x="186" y="650"/>
		</contour>
	</outline>
</glyph>
<glyph name="acute" format="2">
	<unicode hex="00B4"/>
	<advance width="341"/>
	<outline>
		<contour>
			<point x="175" y="660" type="curve"/>
			<point x="99" y="541" type="line" smooth="yes"/>
			<point x="91" y="528"/>
			<point x="88" y="522"/>
			<point x="88" y="513" type="curve" smooth="yes"/>
			<point x="88" y="506"/>
			<point x="95" y="500"/>
			<point x="102" y="500" type="curve" smooth="yes"/>
			<point x="109" y="500"/>
			<point x="117" y="504"/>
			<point x="132" y="519" type="curve"/>
			<point x="247" y="628" type="line"/>
			<point x="244" y="639" type="line"/>
			<point x="221" y="661"/>
			<point x="195" y="662"/>
			<point x="189" y="662" type="curve" smooth="yes"/>
			<point x="184" y="662"/>
			<point x="178" y="661"/>
		</contour>
	</outline>
	<anchor name="_t.uni0302" x="175" y="500"/>
</glyph>
<glyph name="mu" format="2">
	<unicode hex="00B5"/>
	<advance width="515"/>
	<outline>
		<contour>
			<point x="342" y="60" type="line"/>
			<point x="345" y="36"/>
			<point x="357" y="0"/>
			<point x="401" y="-8" type="curve" smooth="yes"/>
			<point x="407" y="-9"/>
			<point x="414" y="-10"/>
			<point x="422" y="-10" type="curve" smooth="yes"/>
			<point x="474" y="-10"/>
			<point x="510" y="30"/>
			<point name=".hr01" x="510" y="35" type="curve" smooth="yes"/>
			<point x="510" y="42"/>
			<point x="502" y="50"/>
			<point x="498" y="50" type="curve" smooth="yes"/>
			<point x="492" y="50"/>
			<point name=".hr02" x="489" y="34"/>
			<point x="463" y="34" type="curve" smooth="yes"/>
			<point x="458" y="34"/>
			<point name=".hr03" x="453" y="35"/>
			<point x="449" y="36" type="curve"/>
			<point x="422" y="44"/>
			<point x="421" y="81"/>
			<point x="421" y="121" type="curve" smooth="yes"/>
			<point x="421" y="439" type="line"/>
			<point x="395" y="436"/>
			<point x="367" y="429"/>
			<point x="342" y="429" type="curve"/>
			<point x="342" y="107" type="line"/>
			<point x="319" y="74"/>
			<point x="264" y="35"/>
			<point x="209" y="35" type="curve" smooth="yes"/>
			<point x="153" y="35"/>
			<point x="136" y="85"/>
			<point x="136" y="147" type="curve" smooth="yes"/>
			<point x="136" y="343" type="line" smooth="yes"/>
			<point x="136" y="375"/>
			<point x="133" y="439"/>
			<point x="133" y="439" type="curve"/>
			<point x="103" y="436"/>
			<point x="70" y="429"/>
			<point x="46" y="429" type="curve"/>
			<point x="46" y="429"/>
			<point x="57" y="350"/>
			<point x="57" y="322" type="curve" smooth="yes"/>
			<point x="57" y="134" type="line" smooth="yes"/>
			<point x="57" y="99"/>
			<point x="60" y="67"/>
			<point x="63" y="40" type="curve" smooth="yes"/>
			<point x="65" y="21"/>
			<point name=".hr04" x="66" y="5"/>
			<point x="66" y="-8" type="curve" smooth="yes"/>
			<point x="66" y="-42"/>
			<point x="61" y="-72"/>
			<point name=".hr05" x="57" y="-100" type="curve"/>
			<point x="53" y="-123"/>
			<point x="50" y="-146"/>
			<point x="50" y="-169" type="curve" smooth="yes"/>
			<point x="50" y="-210"/>
			<point x="90" y="-234"/>
			<point x="107" y="-234" type="curve" smooth="yes"/>
			<point x="111" y="-234"/>
			<point x="115" y="-233"/>
			<point x="119" y="-232" type="curve" smooth="yes"/>
			<point x="137" y="-227"/>
			<point x="150" y="-208"/>
			<point x="150" y="-174" type="curve" smooth="yes"/>
			<point x="150" y="-171"/>
			<point x="150" y="-167"/>
			<point x="149" y="-164" type="curve"/>
			<point x="148" y="-146"/>
			<point x="141" y="-124"/>
			<point x="135" y="-100" type="curve" smooth="yes"/>
			<point x="130" y="-82"/>
			<point x="124" y="-62"/>
			<point x="121" y="-41" type="curve"/>
			<point x="118" y="-26"/>
			<point name=".hr06" x="116" y="-11"/>
			<point x="116" y="4" type="curve" smooth="yes"/>
			<point x="116" y="9"/>
			<point x="123" y="13"/>
			<point x="129" y="13" type="curve"/>
			<point x="141" y="0"/>
			<point x="167" y="-10"/>
			<point x="194" y="-10" type="curve"/>
			<point x="194" y="-10"/>
			<point x="194" y="-10"/>
			<point x="194" y="-10" type="curve"/>
			<point x="258" y="-10"/>
			<point x="301" y="16"/>
			<point x="340" y="60" type="curve"/>
		</contour>
	</outline>
</glyph>
<glyph name="cedilla" format="2">
	<unicode hex="00B8"/>
	<advance width="541"/>
	<outline>
		<contour>
			<point x="257" y="-102" type="line"/>
			<point x="273" y="-97"/>
			<point x="283" y="-96"/>
			<point x="302" y="-96" type="curve" smooth="yes"/>
			<point x="325" y="-96"/>
			<point x="335" y="-110"/>
			<point x="335" y="-131" type="curve" smooth="yes"/>
			<point x="335" y="-157"/>
			<point x="314" y="-171"/>
			<point x="284" y="-171" type="curve" smooth="yes"/>
			<point x="264" y="-171"/>
			<point x="253" y="-167"/>
			<point x="226" y="-157" type="curve"/>
			<point x="219" y="-164"/>
			<point x="216" y="-171"/>
			<point x="216" y="-183" type="curve"/>
			<point x="237" y="-192"/>
			<point x="253" y="-198"/>
			<point x="277" y="-200" type="curve"/>
			<point x="281" y="-200"/>
			<point x="285" y="-200"/>
			<point x="290" y="-200" type="curve" smooth="yes"/>
			<point x="351" y="-200"/>
			<point x="397" y="-169"/>
			<point x="397" y="-126" type="curve" smooth="yes"/>
			<point x="397" y="-122"/>
			<point x="397" y="-119"/>
			<point x="396" y="-115" type="curve"/>
			<point x="391" y="-83"/>
			<point x="362" y="-64"/>
			<point x="326" y="-64" type="curve" smooth="yes"/>
			<point x="317" y="-64"/>
			<point x="308" y="-65"/>
			<point x="300" y="-67" type="curve"/>
			<point x="325" y="0" type="line"/>
			<point x="291" y="0" type="line"/>
			<point x="251" y="-96" type="line"/>
		</contour>
	</outline>
</glyph>
<glyph name="uni00B9" format="2">
	<unicode hex="00B9"/>
	<advance width="307"/>
	<outline>
		<contour>
			<point x="135" y="620" type="curve" smooth="yes"/>
			<point x="147" y="620"/>
			<point x="149" y="611"/>
			<point x="149" y="579" type="curve" smooth="yes"/>
			<point x="149" y="449" type="line" smooth="yes"/>
			<point x="149" y="398"/>
			<point x="118" y="395"/>
			<point x="78" y="393" type="curve"/>
			<point x="73" y="385"/>
			<point x="74" y="370"/>
			<point x="78" y="364" type="curve"/>
			<point x="108" y="365"/>
			<point x="139" y="365"/>
			<point x="174" y="365" type="curve" smooth="yes"/>
			<point x="207" y="365"/>
			<point x="228" y="365"/>
			<point x="258" y="364" type="curve"/>
			<point x="262" y="371"/>
			<point x="262" y="385"/>
			<point x="258" y="393" type="curve"/>
			<point x="224" y="395"/>
			<point x="203" y="398"/>
			<point x="203" y="449" type="curve" smooth="yes"/>
			<point x="203" y="688" type="line"/>
			<point x="198" y="693"/>
			<point x="190" y="691"/>
			<point x="185" y="688" type="curve" smooth="yes"/>
			<point x="141" y="661"/>
			<point x="115" y="649"/>
			<point x="68" y="632" type="curve"/>
			<point x="68" y="620"/>
			<point x="70" y="611"/>
			<point x="78" y="605" type="curve"/>
			<point x="103" y="614"/>
			<point x="122" y="620"/>
		</contour>
	</outline>
</glyph>
<glyph name="ordmasculine" format="2">
	<unicode hex="00BA"/>
	<advance width="349"/>
	<outline>
		<contour>
			<point x="39" y="483" type="curve" smooth="yes"/>
			<point x="39" y="412"/>
			<point x="98" y="357"/>
			<point x="172" y="357" type="curve" smooth="yes"/>
			<point x="266" y="357"/>
			<point x="311" y="424"/>
			<point x="311" y="489" type="curve" smooth="yes"/>
			<point x="311" y="535"/>
			<point x="291" y="578"/>
			<point x="252" y="601" type="curve" smooth="yes"/>
			<point x="232" y="613"/>
			<point x="208" y="620"/>
			<point x="179" y="620" type="curve" smooth="yes"/>
			<point x="93" y="620"/>
			<point x="39" y="564"/>
		</contour>
		<contour>
			<point x="171" y="594" type="curve" smooth="yes"/>
			<point x="221" y="594"/>
			<point x="253" y="553"/>
			<point x="253" y="473" type="curve" smooth="yes"/>
			<point x="253" y="401"/>
			<point x="210" y="383"/>
			<point x="183" y="383" type="curve" smooth="yes"/>
			<point x="123" y="383"/>
			<point x="97" y="444"/>
			<point x="97" y="493" type="curve" smooth="yes"/>
			<point x="97" y="547"/>
			<point x="121" y="594"/>
		</contour>
	</outline>
</glyph>
<glyph name="threequarters" format="2">
	<unicode hex="00BE"/>
	<advance width="660"/>
	<outline>
		<contour>
			<point x="584" y="-4" type="curve" smooth="yes"/>
			<point x="584" y="20" type="line"/>
			<point x="634" y="20" type="line"/>
			<point x="640" y="54" type="line"/>
			<point x="584" y="54" type="line"/>
			<point x="584" y="234" type="line" smooth="yes"/>
			<point x="584" y="243"/>
			<point x="572" y="244"/>
			<point x="565" y="244" type="curve" smooth="yes"/>
			<point x="562" y="244"/>
			<point x="553" y="244"/>
			<point x="552" y="243" type="curve"/>
			<point x="536" y="234"/>
			<point x="525" y="223"/>
			<point x="516" y="212" type="curve" smooth="yes"/>
			<point x="481" y="171"/>
			<point x="437" y="119"/>
			<point x="404" y="65" type="curve"/>
			<point x="400" y="60"/>
			<point x="397" y="55"/>
			<point x="394" y="48" type="curve"/>
			<point x="394" y="48" type="line"/>
			<point x="393" y="44"/>
			<point x="391" y="37"/>
			<point x="393" y="31" type="curve" smooth="yes"/>
			<point x="395" y="25"/>
			<point x="400" y="20"/>
			<point x="413" y="20" type="curve" smooth="yes"/>
			<point x="532" y="20" type="line"/>
			<point x="532" y="-4" type="line" smooth="yes"/>
			<point x="532" y="-45"/>
			<point x="519" y="-48"/>
			<point x="479" y="-50" type="curve"/>
			<point x="474" y="-58"/>
			<point x="475" y="-73"/>
			<point x="479" y="-79" type="curve"/>
			<point x="505" y="-78"/>
			<point x="518" y="-78"/>
			<point x="543" y="-78" type="curve" smooth="yes"/>
			<point x="557" y="-78" type="line" smooth="yes"/>
			<point x="587" y="-78"/>
			<point x="605" y="-78"/>
			<point x="635" y="-79" type="curve"/>
			<point x="639" y="-72"/>
			<point x="639" y="-58"/>
			<point x="635" y="-50" type="curve"/>
			<point x="601" y="-48"/>
			<point x="584" y="-45"/>
		</contour>
		<contour>
			<point x="184" y="573" type="curve" smooth="yes"/>
			<point x="184" y="532"/>
			<point x="157" y="506"/>
			<point x="113" y="500" type="curve"/>
			<point x="110" y="491"/>
			<point x="110" y="480"/>
			<point x="115" y="473" type="curve"/>
			<point x="123" y="474"/>
			<point x="128" y="475"/>
			<point x="135" y="475" type="curve" smooth="yes"/>
			<point x="159" y="475"/>
			<point x="210" y="471"/>
			<point name=".hr01" x="210" y="414" type="curve" smooth="yes"/>
			<point x="210" y="350"/>
			<point x="166" y="337"/>
			<point x="137" y="337" type="curve" smooth="yes"/>
			<point x="116" y="337"/>
			<point x="105" y="340"/>
			<point x="98" y="345" type="curve"/>
			<point x="95" y="348"/>
			<point x="93" y="351"/>
			<point x="91" y="355" type="curve" smooth="yes"/>
			<point x="86" y="365"/>
			<point x="79" y="370"/>
			<point x="69" y="371" type="curve"/>
			<point x="66" y="372"/>
			<point x="64" y="372"/>
			<point x="61" y="372" type="curve" smooth="yes"/>
			<point x="49" y="372"/>
			<point x="36" y="363"/>
			<point x="36" y="350" type="curve" smooth="yes"/>
			<point x="36" y="348"/>
			<point x="36" y="345"/>
			<point x="37" y="343" type="curve"/>
			<point x="46" y="319"/>
			<point x="99" y="309"/>
			<point x="126" y="307" type="curve"/>
			<point x="129" y="307"/>
			<point x="131" y="307"/>
			<point x="133" y="307" type="curve" smooth="yes"/>
			<point x="213" y="307"/>
			<point x="272" y="353"/>
			<point x="272" y="422" type="curve" smooth="yes"/>
			<point x="272" y="480"/>
			<point x="225" y="507"/>
			<point x="192" y="510" type="curve"/>
			<point x="192" y="510"/>
			<point x="192" y="510"/>
			<point x="192" y="510" type="curve"/>
			<point x="221" y="526"/>
			<point x="243" y="549"/>
			<point name=".hr02" x="243" y="578" type="curve" smooth="yes"/>
			<point x="243" y="615"/>
			<point x="210" y="637"/>
			<point name=".hr03" x="158" y="637" type="curve" smooth="yes"/>
			<point x="71" y="637"/>
			<point x="44" y="589"/>
			<point x="44" y="572" type="curve" smooth="yes"/>
			<point x="44" y="569"/>
			<point x="48" y="554"/>
			<point x="67" y="554" type="curve" smooth="yes"/>
			<point x="90" y="554"/>
			<point x="89" y="572"/>
			<point x="94" y="583" type="curve" smooth="yes"/>
			<point x="101" y="599"/>
			<point x="129" y="607"/>
			<point x="146" y="607" type="curve" smooth="yes"/>
			<point x="162" y="607"/>
			<point x="184" y="599"/>
		</contour>
		<contour>
			<point name=".hr04" x="562" y="601" type="line"/>
			<point x="103" y="-54" type="line"/>
			<point x="145" y="-62" type="line"/>
			<point x="603" y="593" type="line"/>
		</contour>
		<contour>
			<point x="532" y="194" type="curve"/>
			<point x="532" y="54" type="line"/>
			<point x="434" y="54" type="line"/>
			<point x="441" y="72"/>
			<point x="493" y="145"/>
		</contour>
	</outline>
</glyph>
<glyph name="Aring" format="2">
	<unicode hex="00C5"/>
	<advance width="695"/>
	<outline>
		<contour>
			<point x="155" y="79" type="curve" smooth="yes"/>
			<point x="210" y="224" type="line" smooth="yes"/>
			<point x="215" y="237"/>
			<point x="221" y="241"/>
			<point x="245" y="241" type="curve" smooth="yes"/>
			<point x="456" y="241" type="line"/>
			<point x="514" y="72" type="line" smooth="yes"/>
			<point x="524" y="44"/>
			<point x="499" y="36"/>
			<point x="463" y="33" type="curve"/>
			<point x="456" y="32"/>
			<point x="448" y="32"/>
			<point x="440" y="31" type="curve"/>
			<point x="434" y="25"/>
			<point x="434" y="4"/>
			<point x="440" y="-2" type="curve"/>
			<point x="477" y="-1"/>
			<point x="532" y="0"/>
			<point x="571" y="0" type="curve" smooth="yes"/>
			<point x="612" y="0"/>
			<point x="650" y="-1"/>
			<point x="685" y="-2" type="curve"/>
			<point x="691" y="4"/>
			<point x="691" y="25"/>
			<point x="685" y="31" type="curve"/>
			<point x="646" y="35"/>
			<point x="612" y="38"/>
			<point x="595" y="86" type="curve" smooth="yes"/>
			<point x="396" y="638" type="line"/>
			<point x="426" y="652"/>
			<point x="447" y="682"/>
			<point x="447" y="714" type="curve" smooth="yes"/>
			<point x="447" y="761"/>
			<point x="405" y="799"/>
			<point x="359" y="799" type="curve" smooth="yes"/>
			<point x="353" y="799"/>
			<point x="348" y="798"/>
			<point x="342" y="797" type="curve"/>
			<point x="303" y="789"/>
			<point x="271" y="754"/>
			<point x="271" y="714" type="curve" smooth="yes"/>
			<point x="271" y="677"/>
			<point x="298" y="645"/>
			<point x="332" y="634" type="curve"/>
			<point x="107" y="102" type="line" smooth="yes"/>
			<point x="81" y="40"/>
			<point x="51" y="34"/>
			<point x="7" y="31" type="curve"/>
			<point x="1" y="25"/>
			<point x="1" y="4"/>
			<point x="7" y="-2" type="curve"/>
			<point x="33" y="-1"/>
			<point x="66" y="0"/>
			<point x="96" y="0" type="curve" smooth="yes"/>
			<point x="137" y="0"/>
			<point x="187" y="-1"/>
			<point x="224" y="-2" type="curve"/>
			<point x="230" y="4"/>
			<point x="230" y="25"/>
			<point x="224" y="31" type="curve"/>
			<point x="186" y="34"/>
			<point x="139" y="38"/>
		</contour>
		<contour>
			<point x="359" y="767" type="curve" smooth="yes"/>
			<point x="389" y="767"/>
			<point x="407" y="745"/>
			<point x="407" y="714" type="curve" smooth="yes"/>
			<point x="407" y="686"/>
			<point x="390" y="661"/>
			<point x="359" y="661" type="curve" smooth="yes"/>
			<point x="328" y="661"/>
			<point x="311" y="686"/>
			<point x="311" y="714" type="curve" smooth="yes"/>
			<point x="311" y="744"/>
			<point x="328" y="767"/>
		</contour>
		<contour>
			<point x="263" y="283" type="line" smooth="yes"/>
			<point x="241" y="283"/>
			<point x="234" y="286"/>
			<point x="238" y="296" type="curve" smooth="yes"/>
			<point x="340" y="555" type="line"/>
			<point x="346" y="555" type="line"/>
			<point x="440" y="283" type="line"/>
		</contour>
	</outline>
	<anchor name="m.uni0302" x="364" y="894"/>
</glyph>
<glyph name="multiply" format="2">
	<unicode hex="00D7"/>
	<advance width="550"/>
	<outline>
		<contour>
			<point x="308" y="252" type="line"/>
			<point x="431" y="375" type="line"/>
			<point x="396" y="410" type="line"/>
			<point x="274" y="287" type="line"/>
			<point x="152" y="410" type="line"/>
			<point x="116" y="375" type="line"/>
			<point x="239" y="252" type="line"/>
			<point x="116" y="130" type="line"/>
			<point x="152" y="95" type="line"/>
			<point x="274" y="217" type="line"/>
			<point x="396" y="95" type="line"/>
			<point x="431" y="130" type="line"/>
		</contour>
	</outline>
</glyph>
<glyph name="Oslash" format="2">
	<unicode hex="00D8"/>
	<advance width="702"/>
	<outline>
		<contour>
			<point x="108" y="-13" type="curve"/>
			<point x="160" y="51" type="line"/>
			<point x="213" y="12"/>
			<point x="279" y="-10"/>
			<point x="350" y="-10" type="curve" smooth="yes"/>
			<point x="451" y="-10"/>
			<point x="533" y="30"/>
			<point x="588" y="95" type="curve" smooth="yes"/>
			<point x="594" y="102"/>
			<point x="599" y="109"/>
			<point x="604" y="116" type="curve" smooth="yes"/>
			<point x="644" y="173"/>
			<point x="666" y="245"/>
			<point x="666" y="329" type="curve" smooth="yes"/>
			<point x="666" y="430"/>
			<point x="632" y="510"/>
			<point x="577" y="566" type="curve"/>
			<point x="627" y="628" type="line"/>
			<point x="625" y="643"/>
			<point x="610" y="658"/>
			<point x="591" y="658" type="curve"/>
			<point x="542" y="597" type="line"/>
			<point x="487" y="637"/>
			<point x="419" y="658"/>
			<point x="344" y="658" type="curve" smooth="yes"/>
			<point x="247" y="658"/>
			<point x="170" y="620"/>
			<point x="118" y="557" type="curve" smooth="yes"/>
			<point x="65" y="494"/>
			<point x="37" y="407"/>
			<point x="37" y="310" type="curve" smooth="yes"/>
			<point x="37" y="215"/>
			<point x="70" y="138"/>
			<point x="124" y="82" type="curve"/>
			<point x="72" y="19" type="line"/>
			<point x="75" y="4"/>
			<point x="89" y="-13"/>
		</contour>
		<contour>
			<point x="526" y="503" type="line"/>
			<point x="554" y="454"/>
			<point x="570" y="389"/>
			<point x="570" y="310" type="curve" smooth="yes"/>
			<point x="570" y="131"/>
			<point x="484" y="26"/>
			<point x="370" y="26" type="curve" smooth="yes"/>
			<point x="308" y="26"/>
			<point x="249" y="54"/>
			<point x="204" y="106" type="curve"/>
		</contour>
		<contour>
			<point x="331" y="622" type="curve" smooth="yes"/>
			<point x="396" y="622"/>
			<point x="455" y="595"/>
			<point x="498" y="544" type="curve"/>
			<point x="176" y="147" type="line"/>
			<point x="149" y="194"/>
			<point x="133" y="255"/>
			<point x="133" y="327" type="curve" smooth="yes"/>
			<point x="133" y="537"/>
			<point x="232" y="622"/>
		</contour>
	</outline>
	<anchor name="m.uni0302" x="351" y="850"/>
	<anchor name="m.uni0316_2" x="350" y="-110"/>
</glyph>
<glyph name="germandbls" format="2">
	<unicode hex="00DF"/>
	<advance width="541"/>
	<outline>
		<contour>
			<point x="92" y="122" type="line" smooth="yes"/>
			<point x="92" y="39"/>
			<point x="80" y="34"/>
			<point x="23" y="31" type="curve"/>
			<point x="17" y="25"/>
			<point x="17" y="4"/>
			<point x="23" y="-2" type="curve"/>
			<point x="53" y="-1"/>
			<point x="92" y="0"/>
			<point x="132" y="0" type="curve" smooth="yes"/>
			<point x="138" y="0"/>
			<point x="143" y="0"/>
			<point x="149" y="0" type="curve" smooth="yes"/>
			<point x="176" y="0"/>
			<point x="200" y="-1"/>
			<point x="219" y="-2" type="curve"/>
			<point x="225" y="4"/>
			<point x="225" y="25"/>
			<point x="219" y="31" type="curve"/>
			<point x="183" y="36"/>
			<point x="171" y="39"/>
			<point x="171" y="122" type="curve" smooth="yes"/>
			<point x="171" y="442" type="line" smooth="yes"/>
			<point x="171" y="550"/>
			<point x="183" y="665"/>
			<point x="287" y="665" type="curve" smooth="yes"/>
			<point x="340" y="665"/>
			<point x="365" y="628"/>
			<point x="365" y="574" type="curve" smooth="yes"/>
			<point x="365" y="501"/>
			<point x="327" y="461"/>
			<point x="260" y="409" type="curve"/>
			<point x="260" y="396" type="line"/>
			<point x="344" y="332"/>
			<point name=".hr01" x="415" y="249"/>
			<point x="415" y="156" type="curve" smooth="yes"/>
			<point x="415" y="73"/>
			<point x="381" y="31"/>
			<point x="352" y="24" type="curve"/>
			<point x="350" y="23"/>
			<point x="347" y="23"/>
			<point x="344" y="23" type="curve" smooth="yes"/>
			<point x="326" y="23"/>
			<point x="303" y="23"/>
			<point x="294" y="38" type="curve"/>
			<point x="292" y="42"/>
			<point x="291" y="47"/>
			<point x="291" y="53" type="curve" smooth="yes"/>
			<point x="291" y="65"/>
			<point x="299" y="74"/>
			<point x="299" y="91" type="curve" smooth="yes"/>
			<point x="299" y="111"/>
			<point x="291" y="121"/>
			<point x="271" y="121" type="curve"/>
			<point x="271" y="121"/>
			<point x="271" y="121"/>
			<point x="271" y="121" type="curve"/>
			<point x="255" y="121"/>
			<point x="240" y="102"/>
			<point x="240" y="86" type="curve" smooth="yes"/>
			<point x="240" y="42"/>
			<point x="260" y="-10"/>
			<point x="344" y="-10" type="curve" smooth="yes"/>
			<point x="436" y="-10"/>
			<point x="500" y="68"/>
			<point x="500" y="173" type="curve" smooth="yes"/>
			<point x="500" y="289"/>
			<point x="399" y="357"/>
			<point x="320" y="409" type="curve"/>
			<point x="320" y="411" type="line"/>
			<point x="353" y="436"/>
			<point x="383" y="459"/>
			<point x="405" y="484" type="curve" smooth="yes"/>
			<point x="432" y="514"/>
			<point name=".hr02" x="448" y="546"/>
			<point x="448" y="587" type="curve" smooth="yes"/>
			<point x="448" y="614"/>
			<point x="432" y="647"/>
			<point x="399" y="669" type="curve"/>
			<point x="375" y="686"/>
			<point x="341" y="698"/>
			<point x="296" y="698" type="curve" smooth="yes"/>
			<point x="217" y="698"/>
			<point x="92" y="642"/>
			<point x="92" y="477" type="curve" smooth="yes"/>
			<point x="92" y="444"/>
			<point x="84" y="434"/>
			<point x="63" y="432" type="curve"/>
			<point x="57" y="431"/>
			<point x="51" y="431"/>
			<point x="44" y="431" type="curve" smooth="yes"/>
			<point x="35" y="431"/>
			<point x="29" y="419"/>
			<point x="27" y="409" type="curve"/>
			<point x="27" y="404"/>
			<point x="27" y="400"/>
			<point x="29" y="398" type="curve"/>
			<point x="33" y="398"/>
			<point x="38" y="398"/>
			<point x="42" y="398" type="curve" smooth="yes"/>
			<point x="80" y="398" type="line" smooth="yes"/>
			<point x="89" y="398"/>
			<point x="92" y="394"/>
			<point x="92" y="386" type="curve" smooth="yes"/>
		</contour>
	</outline>
</glyph>
<glyph name="eth" format="2">
	<unicode hex="00F0"/>
	<advance width="486"/>
	<outline>
		<contour>
			<point x="34" y="208" type="curve" smooth="yes"/>
			<point x="34" y="104"/>
			<point x="107" y="-10"/>
			<point x="231" y="-10" type="curve" smooth="yes"/>
			<point x="287" y="-10"/>
			<point x="341" y="10"/>
			<point x="381" y="50" type="curve" smooth="yes"/>
			<point x="421" y="91"/>
			<point x="447" y="153"/>
			<point x="447" y="237" type="curve" smooth="yes"/>
			<point x="447" y="320"/>
			<point x="426" y="393"/>
			<point x="392" y="457" type="curve" smooth="yes"/>
			<point x="366" y="504"/>
			<point x="333" y="546"/>
			<point x="296" y="583" type="curve" smooth="yes"/>
			<point x="290" y="589"/>
			<point x="284" y="595"/>
			<point x="278" y="601" type="curve"/>
			<point x="375" y="666" type="line"/>
			<point x="353" y="698" type="line"/>
			<point x="318" y="674"/>
			<point x="282" y="651"/>
			<point x="247" y="627" type="curve"/>
			<point x="212" y="655"/>
			<point x="176" y="679"/>
			<point x="141" y="698" type="curve"/>
			<point x="125" y="677" type="line"/>
			<point x="149" y="660"/>
			<point x="172" y="640"/>
			<point x="193" y="618" type="curve" smooth="yes"/>
			<point x="198" y="613"/>
			<point x="204" y="607"/>
			<point x="209" y="602" type="curve"/>
			<point x="104" y="531" type="line"/>
			<point x="126" y="499" type="line"/>
			<point x="162" y="523"/>
			<point x="199" y="548"/>
			<point x="235" y="572" type="curve"/>
			<point x="272" y="526"/>
			<point x="302" y="478"/>
			<point x="324" y="425" type="curve"/>
			<point x="299" y="435"/>
			<point x="274" y="439"/>
			<point x="248" y="439" type="curve" smooth="yes"/>
			<point x="205" y="439"/>
			<point x="148" y="423"/>
			<point x="104" y="382" type="curve" smooth="yes"/>
			<point x="64" y="346"/>
			<point x="34" y="290"/>
		</contour>
		<contour>
			<point x="248" y="26" type="curve" smooth="yes"/>
			<point x="177" y="26"/>
			<point x="120" y="111"/>
			<point x="120" y="225" type="curve" smooth="yes"/>
			<point x="120" y="301"/>
			<point x="145" y="404"/>
			<point x="246" y="404" type="curve" smooth="yes"/>
			<point x="289" y="404"/>
			<point x="324" y="385"/>
			<point x="347" y="356" type="curve"/>
			<point x="359" y="313"/>
			<point x="363" y="269"/>
			<point x="363" y="223" type="curve" smooth="yes"/>
			<point x="363" y="61"/>
			<point x="295" y="26"/>
		</contour>
	</outline>
</glyph>
<glyph name="thorn" format="2">
	<unicode hex="00FE"/>
	<advance width="502"/>
	<outline>
		<contour>
			<point x="163" y="-110" type="curve" smooth="yes"/>
			<point x="163" y="-10" type="line" smooth="yes"/>
			<point x="163" y="2"/>
			<point x="164" y="7"/>
			<point x="167" y="8" type="curve"/>
			<point x="169" y="10"/>
			<point x="172" y="8"/>
			<point x="176" y="6" type="curve" smooth="yes"/>
			<point x="182" y="3" type="line"/>
			<point x="203" y="-5"/>
			<point x="226" y="-10"/>
			<point x="253" y="-10" type="curve" smooth="yes"/>
			<point x="306" y="-10"/>
			<point x="354" y="9"/>
			<point x="393" y="48" type="curve" smooth="yes"/>
			<point x="438" y="93"/>
			<point x="465" y="154"/>
			<point x="465" y="235" type="curve" smooth="yes"/>
			<point x="465" y="288"/>
			<point x="447" y="339"/>
			<point x="416" y="376" type="curve"/>
			<point x="386" y="414"/>
			<point x="344" y="439"/>
			<point x="295" y="439" type="curve" smooth="yes"/>
			<point x="244" y="439"/>
			<point x="205" y="411"/>
			<point x="180" y="385" type="curve" smooth="yes"/>
			<point x="165" y="370"/>
			<point x="163" y="370"/>
			<point x="163" y="392" type="curve" smooth="yes"/>
			<point x="163" y="583" type="line" smooth="yes"/>
			<point x="163" y="648"/>
			<point x="167" y="688"/>
			<point x="167" y="688" type="curve"/>
			<point x="167" y="695"/>
			<point x="163" y="698"/>
			<point x="154" y="698" type="curve"/>
			<point x="129" y="688"/>
			<point x="54" y="674"/>
			<point x="14" y="671" type="curve"/>
			<point x="12" y="663"/>
			<point x="14" y="647"/>
			<point x="20" y="641" type="curve"/>
			<point x="23" y="641"/>
			<point x="26" y="641"/>
			<point x="29" y="641" type="curve"/>
			<point x="73" y="638"/>
			<point x="84" y="638"/>
			<point x="84" y="559" type="curve" smooth="yes"/>
			<point x="84" y="-110" type="line" smooth="yes"/>
			<point x="84" y="-193"/>
			<point x="73" y="-198"/>
			<point x="12" y="-201" type="curve"/>
			<point x="6" y="-207"/>
			<point x="6" y="-228"/>
			<point x="12" y="-234" type="curve"/>
			<point x="54" y="-233"/>
			<point x="80" y="-232"/>
			<point x="124" y="-232" type="curve" smooth="yes"/>
			<point x="171" y="-232"/>
			<point x="202" y="-233"/>
			<point x="245" y="-234" type="curve"/>
			<point x="251" y="-228"/>
			<point x="251" y="-207"/>
			<point x="245" y="-201" type="curve"/>
			<point x="174" y="-197"/>
			<point x="163" y="-193"/>
		</contour>
		<contour>
			<point x="161" y="288" type="line" smooth="yes"/>
			<point name=".hr01" x="161" y="358"/>
			<point x="236" y="393"/>
			<point x="269" y="393" type="curve" smooth="yes"/>
			<point x="294" y="393"/>
			<point x="312" y="384"/>
			<point x="327" y="369" type="curve" smooth="yes"/>
			<point x="370" y="326"/>
			<point x="379" y="268"/>
			<point x="379" y="208" type="curve" smooth="yes"/>
			<point x="379" y="121"/>
			<point x="354" y="24"/>
			<point x="248" y="24" type="curve" smooth="yes"/>
			<point x="234" y="24"/>
			<point x="206" y="25"/>
			<point x="178" y="50" type="curve"/>
			<point x="178" y="50"/>
			<point x="178" y="50"/>
			<point x="178" y="50" type="curve"/>
			<point x="166" y="60"/>
			<point x="161" y="66"/>
			<point x="161" y="98" type="curve" smooth="yes"/>
		</contour>
	</outline>
	<anchor name="m.uni0302" x="278" y="646"/>
</glyph>
<glyph name="Aogonek" format="2">
	<unicode hex="0104"/>
	<advance width="695"/>
	<outline>
		<contour>
			<point x="701" y="-135" type="curve"/>
			<point x="697" y="-128"/>
			<point x="691" y="-124"/>
			<point x="682" y="-124" type="curve"/>
			<point x="660" y="-146"/>
			<point x="644" y="-162"/>
			<point x="615" y="-162" type="curve" smooth="yes"/>
			<point x="608" y="-162"/>
			<point x="601" y="-161"/>
			<point x="596" y="-160" type="curve"/>
			<point x="573" y="-153"/>
			<point x="565" y="-136"/>
			<point x="565" y="-115" type="curve" smooth="yes"/>
			<point x="565" y="-82"/>
			<point x="591" y="-37"/>
			<point x="632" y="-15" type="curve"/>
			<point x="648" y="-7"/>
			<point x="666" y="-2"/>
			<point x="685" y="-2" type="curve"/>
			<point x="691" y="4"/>
			<point x="691" y="25"/>
			<point x="685" y="31" type="curve"/>
			<point x="646" y="35"/>
			<point x="612" y="38"/>
			<point x="595" y="86" type="curve" smooth="yes"/>
			<point x="389" y="658" type="line"/>
			<point x="374" y="649"/>
			<point x="347" y="638"/>
			<point x="334" y="638" type="curve"/>
			<point x="113" y="117" type="line"/>
			<point x="107" y="102" type="line" smooth="yes"/>
			<point x="81" y="40"/>
			<point x="51" y="34"/>
			<point x="7" y="31" type="curve"/>
			<point x="1" y="25"/>
			<point x="1" y="4"/>
			<point x="7" y="-2" type="curve"/>
			<point x="33" y="-1"/>
			<point x="66" y="0"/>
			<point x="96" y="0" type="curve" smooth="yes"/>
			<point x="137" y="0"/>
			<point x="187" y="-1"/>
			<point x="224" y="-2" type="curve"/>
			<point x="230" y="4"/>
			<point x="230" y="25"/>
			<point x="224" y="31" type="curve"/>
			<point x="186" y="34"/>
			<point x="139" y="38"/>
			<point x="155" y="79" type="curve" smooth="yes"/>
			<point x="210" y="224" type="line" smooth="yes"/>
			<point x="215" y="237"/>
			<point x="221" y="241"/>
			<point x="245" y="241" type="curve" smooth="yes"/>
			<point x="456" y="241" type="line"/>
			<point x="509" y="87" type="line"/>
			<point x="514" y="72" type="line" smooth="yes"/>
			<point x="524" y="44"/>
			<point x="499" y="36"/>
			<point x="463" y="33" type="curve"/>
			<point x="456" y="32"/>
			<point x="448" y="32"/>
			<point x="440" y="31" type="curve"/>
			<point x="434" y="25"/>
			<point x="434" y="4"/>
			<point x="440" y="-2" type="curve"/>
			<point x="477" y="-1"/>
			<point x="532" y="0"/>
			<point x="571" y="0" type="curve" smooth="yes"/>
			<point x="599" y="0" type="line"/>
			<point x="539" y="-27"/>
			<point x="503" y="-84"/>
			<point x="503" y="-126" type="curve" smooth="yes"/>
			<point x="503" y="-146"/>
			<point x="508" y="-162"/>
			<point x="518" y="-173" type="curve"/>
			<point x="527" y="-185"/>
			<point x="540" y="-192"/>
			<point x="556" y="-196" type="curve" smooth="yes"/>
			<point x="567" y="-199"/>
			<point x="579" y="-200"/>
			<point x="591" y="-200" type="curve" smooth="yes"/>
			<point x="632" y="-200"/>
			<point x="672" y="-180"/>
		</contour>
		<contour>
			<point x="263" y="283" type="line" smooth="yes"/>
			<point x="241" y="283"/>
			<point x="234" y="286"/>
			<point x="238" y="296" type="curve" smooth="yes"/>
			<point x="340" y="555" type="line"/>
			<point x="346" y="555" type="line"/>
			<point x="440" y="283" type="line"/>
		</contour>
	</outline>
	<anchor name="m.uni0302" x="365" y="850"/>
</glyph>
<glyph name="dcaron" format="2">
	<unicode hex="010F"/>
	<advance width="528"/>
	<outline>
		<contour>
			<point x="349" y="49" type="curve" smooth="yes"/>
			<point x="352" y="25"/>
			<point x="360" y="-10"/>
			<point x="360" y="-10" type="curve"/>
			<point x="368" y="-13"/>
			<point x="373" y="-12"/>
			<point x="379" y="-10" type="curve"/>
			<point x="401" y="8"/>
			<point x="436" y="23"/>
			<point name=".hr01" x="497" y="30" type="curve"/>
			<point x="503" y="36"/>
			<point x="503" y="51"/>
			<point x="497" y="57" type="curve"/>
			<point x="433" y="62"/>
			<point x="424" y="81"/>
			<point x="424" y="130" type="curve" smooth="yes"/>
			<point x="424" y="583" type="line" smooth="yes"/>
			<point x="424" y="648"/>
			<point x="428" y="688"/>
			<point x="428" y="688" type="curve"/>
			<point x="428" y="695"/>
			<point x="424" y="698"/>
			<point x="415" y="698" type="curve"/>
			<point x="390" y="688"/>
			<point x="315" y="674"/>
			<point x="275" y="671" type="curve"/>
			<point x="273" y="663"/>
			<point x="275" y="647"/>
			<point x="281" y="641" type="curve"/>
			<point x="284" y="641"/>
			<point x="287" y="641"/>
			<point x="290" y="641" type="curve"/>
			<point x="334" y="638"/>
			<point x="345" y="638"/>
			<point x="345" y="559" type="curve" smooth="yes"/>
			<point x="345" y="431" type="line" smooth="yes"/>
			<point x="345" y="428"/>
			<point x="345" y="425"/>
			<point x="343" y="424" type="curve"/>
			<point x="342" y="423"/>
			<point x="340" y="422"/>
			<point x="336" y="422" type="curve" smooth="yes"/>
			<point x="332" y="422"/>
			<point x="291" y="439"/>
			<point x="258" y="439" type="curve" smooth="yes"/>
			<point x="192" y="439"/>
			<point x="148" y="417"/>
			<point x="108" y="379" type="curve"/>
			<point x="65" y="336"/>
			<point x="39" y="277"/>
			<point x="39" y="203" type="curve" smooth="yes"/>
			<point x="39" y="129"/>
			<point x="61" y="67"/>
			<point x="103" y="30" type="curve"/>
			<point x="130" y="4"/>
			<point name=".hr02" x="166" y="-10"/>
			<point x="209" y="-10" type="curve" smooth="yes"/>
			<point x="248" y="-10"/>
			<point x="285" y="10"/>
			<point x="334" y="50" type="curve" smooth="yes"/>
			<point x="339" y="54"/>
			<point x="348" y="56"/>
		</contour>
		<contour>
			<point x="329" y="85" type="curve" smooth="yes"/>
			<point x="292" y="53"/>
			<point x="260" y="37"/>
			<point x="235" y="37" type="curve" smooth="yes"/>
			<point x="181" y="37"/>
			<point x="125" y="96"/>
			<point x="125" y="221" type="curve" smooth="yes"/>
			<point x="125" y="293"/>
			<point x="139" y="333"/>
			<point x="154" y="354" type="curve"/>
			<point x="185" y="401"/>
			<point x="227" y="404"/>
			<point x="247" y="404" type="curve" smooth="yes"/>
			<point x="283" y="404"/>
			<point x="308" y="391"/>
			<point x="328" y="368" type="curve" smooth="yes"/>
			<point x="342" y="352"/>
			<point x="345" y="345"/>
			<point x="345" y="314" type="curve" smooth="yes"/>
			<point x="345" y="124" type="line" smooth="yes"/>
			<point x="345" y="118"/>
			<point x="345" y="113"/>
			<point x="344" y="108" type="curve" smooth="yes"/>
			<point x="342" y="99"/>
			<point x="338" y="93"/>
		</contour>
		<contour>
			<point x="503" y="698" type="curve" smooth="yes"/>
			<point x="473" y="698"/>
			<point x="459" y="680"/>
			<point x="459" y="664" type="curve" smooth="yes"/>
			<point x="459" y="648"/>
			<point x="464" y="626"/>
			<point x="505" y="626" type="curve" smooth="yes"/>
			<point x="513" y="626"/>
			<point x="519" y="618"/>
			<point x="519" y="605" type="curve" smooth="yes"/>
			<point x="519" y="582"/>
			<point x="498" y="545"/>
			<point x="456" y="536" type="curve"/>
			<point x="461" y="519" type="line"/>
			<point x="531" y="527"/>
			<point x="563" y="589"/>
			<point x="563" y="625" type="curve" smooth="yes"/>
			<point x="563" y="661"/>
			<point x="541" y="698"/>
		</contour>
	</outline>
</glyph>
<glyph name="dcroat" format="2">
	<unicode hex="0111"/>
	<advance width="506"/>
	<outline>
		<contour>
			<point x="349" y="49" type="curve" smooth="yes"/>
			<point x="352" y="25"/>
			<point x="360" y="-10"/>
			<point x="360" y="-10" type="curve"/>
			<point x="368" y="-13"/>
			<point x="373" y="-12"/>
			<point x="379" y="-10" type="curve"/>
			<point x="401" y="8"/>
			<point x="436" y="23"/>
			<point name=".hr01" x="497" y="30" type="curve"/>
			<point x="503" y="36"/>
			<point x="503" y="51"/>
			<point x="497" y="57" type="curve"/>
			<point x="433" y="62"/>
			<point x="424" y="81"/>
			<point x="424" y="130" type="curve" smooth="yes"/>
			<point x="424" y="533" type="line"/>
			<point x="440" y="533"/>
			<point x="457" y="533"/>
			<point x="473" y="533" type="curve"/>
			<point x="485" y="535"/>
			<point x="496" y="551"/>
			<point x="496" y="560" type="curve" smooth="yes"/>
			<point x="496" y="565"/>
			<point x="492" y="572"/>
			<point x="483" y="573" type="curve"/>
			<point x="463" y="573"/>
			<point x="444" y="573"/>
			<point x="424" y="573" type="curve"/>
			<point x="424" y="583" type="line" smooth="yes"/>
			<point x="424" y="648"/>
			<point x="428" y="688"/>
			<point x="428" y="688" type="curve"/>
			<point x="428" y="695"/>
			<point x="424" y="698"/>
			<point x="415" y="698" type="curve"/>
			<point x="390" y="688"/>
			<point x="315" y="674"/>
			<point x="275" y="671" type="curve"/>
			<point x="273" y="663"/>
			<point x="275" y="647"/>
			<point x="281" y="641" type="curve"/>
			<point x="284" y="641"/>
			<point x="287" y="641"/>
			<point x="290" y="641" type="curve"/>
			<point x="332" y="638"/>
			<point x="344" y="638"/>
			<point x="345" y="573" type="curve"/>
			<point x="299" y="573"/>
			<point x="252" y="573"/>
			<point x="206" y="573" type="curve"/>
			<point x="194" y="571"/>
			<point x="185" y="556"/>
			<point x="185" y="546" type="curve" smooth="yes"/>
			<point x="185" y="541"/>
			<point x="188" y="535"/>
			<point x="197" y="533" type="curve"/>
			<point x="246" y="533"/>
			<point x="296" y="533"/>
			<point x="345" y="533" type="curve"/>
			<point x="345" y="431" type="line" smooth="yes"/>
			<point x="345" y="428"/>
			<point x="345" y="425"/>
			<point x="343" y="424" type="curve"/>
			<point x="342" y="423"/>
			<point x="340" y="422"/>
			<point x="336" y="422" type="curve" smooth="yes"/>
			<point x="332" y="422"/>
			<point x="291" y="439"/>
			<point x="258" y="439" type="curve" smooth="yes"/>
			<point x="192" y="439"/>
			<point x="148" y="417"/>
			<point x="108" y="379" type="curve"/>
			<point x="65" y="336"/>
			<point x="39" y="277"/>
			<point x="39" y="203" type="curve" smooth="yes"/>
			<point x="39" y="130"/>
			<point x="61" y="69"/>
			<point x="101" y="31" type="curve" smooth="yes"/>
			<point x="128" y="5"/>
			<point name=".hr02" x="165" y="-10"/>
			<point x="209" y="-10" type="curve" smooth="yes"/>
			<point x="248" y="-10"/>
			<point x="285" y="10"/>
			<point x="334" y="50" type="curve" smooth="yes"/>
			<point x="339" y="54"/>
			<point x="348" y="56"/>
		</contour>
		<contour>
			<point x="329" y="85" type="curve" smooth="yes"/>
			<point x="292" y="53"/>
			<point x="260" y="37"/>
			<point x="235" y="37" type="curve" smooth="yes"/>
			<point x="181" y="37"/>
			<point x="125" y="96"/>
			<point x="125" y="221" type="curve" smooth="yes"/>
			<point x="125" y="293"/>
			<point x="139" y="333"/>
			<point x="154" y="354" type="curve"/>
			<point x="185" y="401"/>
			<point x="227" y="404"/>
			<point x="247" y="404" type="curve" smooth="yes"/>
			<point x="283" y="404"/>
			<point x="308" y="391"/>
			<point x="328" y="368" type="curve" smooth="yes"/>
			<point x="342" y="352"/>
			<point x="345" y="345"/>
			<point x="345" y="314" type="curve" smooth="yes"/>
			<point x="345" y="124" type="line" smooth="yes"/>
			<point x="345" y="118"/>
			<point x="345" y="113"/>
			<point x="344" y="108" type="curve" smooth="yes"/>
			<point x="342" y="99"/>
			<point x="338" y="93"/>
		</contour>
	</outline>
</glyph>
<glyph name="Eogonek" format="2">
	<unicode hex="0118"/>
	<advance width="557"/>
	<outline>
		<contour>
			<point x="498" y="-135" type="curve"/>
			<point x="494" y="-128"/>
			<point x="488" y="-124"/>
			<point x="479" y="-124" type="curve"/>
			<point x="457" y="-146"/>
			<point x="441" y="-162"/>
			<point x="412" y="-162" type="curve" smooth="yes"/>
			<point x="405" y="-162"/>
			<point x="398" y="-161"/>
			<point x="393" y="-160" type="curve"/>
			<point x="370" y="-153"/>
			<point x="362" y="-136"/>
			<point x="362" y="-115" type="curve" smooth="yes"/>
			<point x="362" y="-73"/>
			<point x="403" y="-13"/>
			<point x="465" y="-3" type="curve"/>
			<point x="470" y="-2"/>
			<point x="476" y="-2"/>
			<point x="482" y="-2" type="curve"/>
			<point x="482" y="-2"/>
			<point x="482" y="-2"/>
			<point x="482" y="-2" type="curve"/>
			<point x="491" y="-2" type="line"/>
			<point x="505" y="48"/>
			<point x="520" y="114"/>
			<point x="528" y="165" type="curve"/>
			<point x="518" y="171"/>
			<point x="506" y="173"/>
			<point x="493" y="170" type="curve"/>
			<point x="473" y="98"/>
			<point x="438" y="39"/>
			<point x="362" y="39" type="curve" smooth="yes"/>
			<point x="261" y="39" type="line"/>
			<point x="246" y="39" type="line" smooth="yes"/>
			<point x="210" y="39"/>
			<point x="195" y="51"/>
			<point x="191" y="84" type="curve"/>
			<point x="190" y="89"/>
			<point x="190" y="95"/>
			<point x="190" y="102" type="curve" smooth="yes"/>
			<point x="190" y="323" type="line"/>
			<point x="281" y="323" type="line" smooth="yes"/>
			<point x="290" y="323"/>
			<point x="299" y="323"/>
			<point x="306" y="322" type="curve"/>
			<point x="367" y="318"/>
			<point x="369" y="295"/>
			<point x="372" y="255" type="curve"/>
			<point x="378" y="249"/>
			<point x="399" y="249"/>
			<point x="405" y="255" type="curve"/>
			<point x="404" y="281"/>
			<point x="403" y="309"/>
			<point x="403" y="343" type="curve" smooth="yes"/>
			<point x="403" y="371"/>
			<point x="404" y="405"/>
			<point x="405" y="429" type="curve"/>
			<point x="399" y="435"/>
			<point x="378" y="435"/>
			<point x="372" y="429" type="curve"/>
			<point x="369" y="380"/>
			<point x="367" y="364"/>
			<point x="306" y="362" type="curve"/>
			<point x="299" y="361"/>
			<point x="290" y="361"/>
			<point x="281" y="361" type="curve" smooth="yes"/>
			<point x="190" y="361" type="line"/>
			<point x="190" y="541" type="line" smooth="yes"/>
			<point x="190" y="585"/>
			<point x="202" y="605"/>
			<point x="256" y="605" type="curve" smooth="yes"/>
			<point x="331" y="605" type="line"/>
			<point x="331" y="605" type="line"/>
			<point x="406" y="605"/>
			<point x="422" y="565"/>
			<point x="444" y="496" type="curve"/>
			<point x="456" y="494"/>
			<point x="467" y="496"/>
			<point x="477" y="501" type="curve"/>
			<point x="472" y="542"/>
			<point x="457" y="638"/>
			<point x="455" y="646" type="curve"/>
			<point x="455" y="648"/>
			<point x="454" y="649"/>
			<point x="451" y="649" type="curve"/>
			<point x="443" y="648"/>
			<point x="436" y="647"/>
			<point x="429" y="646" type="curve" smooth="yes"/>
			<point x="422" y="645"/>
			<point x="414" y="645"/>
			<point x="402" y="645" type="curve" smooth="yes"/>
			<point x="163" y="645" type="line"/>
			<point x="147" y="645" type="line" smooth="yes"/>
			<point x="117" y="645"/>
			<point x="58" y="646"/>
			<point x="18" y="647" type="curve"/>
			<point x="12" y="641"/>
			<point x="12" y="620"/>
			<point x="18" y="614" type="curve"/>
			<point x="88" y="611"/>
			<point x="105" y="606"/>
			<point x="105" y="523" type="curve" smooth="yes"/>
			<point x="105" y="137" type="line" smooth="yes"/>
			<point x="105" y="132"/>
			<point x="105" y="127"/>
			<point x="105" y="122" type="curve" smooth="yes"/>
			<point x="105" y="39"/>
			<point x="88" y="34"/>
			<point x="18" y="31" type="curve"/>
			<point x="12" y="25"/>
			<point x="12" y="4"/>
			<point x="18" y="-2" type="curve"/>
			<point x="55" y="-1"/>
			<point name=".hr01" x="115" y="0"/>
			<point x="148" y="0" type="curve" smooth="yes"/>
			<point x="163" y="0" type="line"/>
			<point x="363" y="0" type="line"/>
			<point x="396" y="0" type="line"/>
			<point x="336" y="-27"/>
			<point x="300" y="-85"/>
			<point x="300" y="-126" type="curve" smooth="yes"/>
			<point x="300" y="-150"/>
			<point x="308" y="-167"/>
			<point x="320" y="-179" type="curve"/>
			<point x="330" y="-188"/>
			<point x="342" y="-194"/>
			<point x="357" y="-197" type="curve" smooth="yes"/>
			<point x="366" y="-199"/>
			<point x="377" y="-200"/>
			<point x="388" y="-200" type="curve" smooth="yes"/>
			<point x="429" y="-200"/>
			<point x="469" y="-180"/>
		</contour>
	</outline>
	<anchor name="m.uni0302" x="273" y="850"/>
	<anchor name="m.uni0316_2" x="279" y="-110"/>
	<anchor name="m.uni031A_3" x="519" y="732"/>
</glyph>
<glyph name="eogonek" format="2">
	<unicode hex="0119"/>
	<advance width="447"/>
	<outline>
		<contour>
			<point x="386" y="93" type="curve"/>
			<point x="349" y="55"/>
			<point x="320" y="39"/>
			<point x="262" y="39" type="curve" smooth="yes"/>
			<point x="226" y="39"/>
			<point x="184" y="60"/>
			<point x="153" y="111" type="curve" smooth="yes"/>
			<point x="137" y="137"/>
			<point x="127" y="170"/>
			<point x="123" y="211" type="curve" smooth="yes"/>
			<point x="122" y="223"/>
			<point x="121" y="235"/>
			<point x="121" y="248" type="curve"/>
			<point x="371" y="246" type="line"/>
			<point x="377" y="246"/>
			<point x="382" y="246"/>
			<point x="387" y="246" type="curve" smooth="yes"/>
			<point x="399" y="246"/>
			<point x="406" y="252"/>
			<point x="406" y="263" type="curve"/>
			<point x="406" y="263"/>
			<point x="406" y="263"/>
			<point x="406" y="263" type="curve"/>
			<point x="406" y="347"/>
			<point x="376" y="437"/>
			<point x="237" y="437" type="curve" smooth="yes"/>
			<point x="150" y="437"/>
			<point x="37" y="354"/>
			<point x="37" y="202" type="curve" smooth="yes"/>
			<point x="37" y="146"/>
			<point x="51" y="92"/>
			<point x="84" y="54" type="curve"/>
			<point x="87" y="50"/>
			<point x="90" y="47"/>
			<point x="94" y="43" type="curve" smooth="yes"/>
			<point x="127" y="10"/>
			<point x="172" y="-10"/>
			<point x="237" y="-10" type="curve" smooth="yes"/>
			<point x="245" y="-10"/>
			<point x="252" y="-10"/>
			<point x="259" y="-9" type="curve"/>
			<point x="209" y="-46"/>
			<point x="175" y="-85"/>
			<point x="175" y="-126" type="curve" smooth="yes"/>
			<point x="175" y="-174"/>
			<point x="205" y="-195"/>
			<point x="247" y="-199" type="curve"/>
			<point x="252" y="-200"/>
			<point x="257" y="-200"/>
			<point x="263" y="-200" type="curve" smooth="yes"/>
			<point x="304" y="-200"/>
			<point x="344" y="-180"/>
			<point x="373" y="-135" type="curve"/>
			<point x="369" y="-128"/>
			<point x="363" y="-124"/>
			<point x="354" y="-124" type="curve"/>
			<point x="332" y="-146"/>
			<point x="316" y="-162"/>
			<point x="287" y="-162" type="curve" smooth="yes"/>
			<point x="257" y="-162"/>
			<point x="243" y="-149"/>
			<point x="239" y="-130" type="curve" smooth="yes"/>
			<point x="238" y="-125"/>
			<point x="237" y="-120"/>
			<point x="237" y="-115" type="curve" smooth="yes"/>
			<point x="237" y="-76"/>
			<point x="261" y="-48"/>
			<point x="313" y="-3" type="curve"/>
			<point x="318" y="2"/>
			<point x="323" y="6"/>
			<point x="329" y="11" type="curve"/>
			<point x="360" y="26"/>
			<point x="386" y="49"/>
			<point x="407" y="77" type="curve"/>
			<point x="404" y="87"/>
			<point x="398" y="92"/>
		</contour>
		<contour>
			<point x="124" y="282" type="line"/>
			<point x="132" y="330"/>
			<point x="150" y="360"/>
			<point x="169" y="377" type="curve"/>
			<point x="191" y="398"/>
			<point x="216" y="403"/>
			<point x="231" y="404" type="curve"/>
			<point x="233" y="404"/>
			<point x="235" y="404"/>
			<point x="237" y="404" type="curve" smooth="yes"/>
			<point x="275" y="404"/>
			<point x="320" y="383"/>
			<point x="320" y="299" type="curve" smooth="yes"/>
			<point x="320" y="290"/>
			<point x="316" y="285"/>
			<point x="305" y="285" type="curve"/>
		</contour>
	</outline>
	<anchor name="m.uni0302" x="231" y="645"/>
	<anchor name="m.uni0316_2" x="70" y="-108"/>
</glyph>
<glyph name="uni0123" format="2">
	<unicode hex="0123"/>
	<advance width="500"/>
	<outline>
		<contour>
			<point x="444" y="387" type="curve" smooth="yes"/>
			<point x="463" y="387"/>
			<point x="481" y="405"/>
			<point x="481" y="425" type="curve" smooth="yes"/>
			<point x="481" y="446"/>
			<point x="462" y="462"/>
			<point x="435" y="462" type="curve" smooth="yes"/>
			<point x="432" y="462"/>
			<point x="430" y="462"/>
			<point x="427" y="461" type="curve"/>
			<point x="400" y="458"/>
			<point x="358" y="442"/>
			<point x="335" y="411" type="curve"/>
			<point x="323" y="419"/>
			<point name=".hr01" x="290" y="439"/>
			<point x="231" y="439" type="curve" smooth="yes"/>
			<point x="191" y="439"/>
			<point x="152" y="427"/>
			<point x="121" y="404" type="curve" smooth="yes"/>
			<point x="84" y="378"/>
			<point name=".hr02" x="60" y="337"/>
			<point x="60" y="287" type="curve" smooth="yes"/>
			<point x="60" y="282"/>
			<point x="60" y="277"/>
			<point x="61" y="273" type="curve"/>
			<point x="64" y="227"/>
			<point x="87" y="200"/>
			<point x="112" y="175" type="curve"/>
			<point x="84" y="151"/>
			<point name=".hr03" x="68" y="108"/>
			<point x="68" y="74" type="curve" smooth="yes"/>
			<point x="68" y="70"/>
			<point x="68" y="65"/>
			<point x="69" y="61" type="curve"/>
			<point x="71" y="48"/>
			<point x="75" y="37"/>
			<point x="81" y="27" type="curve"/>
			<point x="90" y="14"/>
			<point name=".hr04" x="101" y="4"/>
			<point x="114" y="-3" type="curve"/>
			<point x="64" y="-33"/>
			<point x="36" y="-74"/>
			<point x="32" y="-114" type="curve"/>
			<point x="32" y="-117"/>
			<point x="32" y="-121"/>
			<point x="32" y="-124" type="curve" smooth="yes"/>
			<point x="32" y="-161"/>
			<point x="47" y="-187"/>
			<point x="69" y="-204" type="curve" smooth="yes"/>
			<point x="100" y="-229"/>
			<point x="146" y="-238"/>
			<point x="191" y="-238" type="curve" smooth="yes"/>
			<point x="195" y="-238"/>
			<point x="200" y="-238"/>
			<point x="204" y="-238" type="curve"/>
			<point x="335" y="-234"/>
			<point x="472" y="-170"/>
			<point x="472" y="-65" type="curve" smooth="yes"/>
			<point x="472" y="-33"/>
			<point x="457" y="-8"/>
			<point x="428" y="16" type="curve" smooth="yes"/>
			<point x="389" y="48"/>
			<point name=".hr05" x="319" y="49"/>
			<point x="282" y="49" type="curve" smooth="yes"/>
			<point x="264" y="49"/>
			<point x="239" y="47"/>
			<point x="215" y="44" type="curve" smooth="yes"/>
			<point x="205" y="43"/>
			<point x="197" y="43"/>
			<point x="192" y="42" type="curve"/>
			<point x="189" y="42"/>
			<point x="187" y="42"/>
			<point x="185" y="42" type="curve" smooth="yes"/>
			<point x="159" y="42"/>
			<point x="129" y="53"/>
			<point x="122" y="86" type="curve"/>
			<point x="121" y="90"/>
			<point x="121" y="94"/>
			<point x="121" y="99" type="curve" smooth="yes"/>
			<point x="121" y="119"/>
			<point x="127" y="140"/>
			<point x="139" y="157" type="curve"/>
			<point x="163" y="143"/>
			<point x="191" y="136"/>
			<point x="230" y="136" type="curve" smooth="yes"/>
			<point x="274" y="136"/>
			<point x="316" y="150"/>
			<point x="348" y="176" type="curve" smooth="yes"/>
			<point x="373" y="197"/>
			<point x="391" y="226"/>
			<point x="397" y="263" type="curve"/>
			<point x="398" y="272"/>
			<point x="399" y="280"/>
			<point x="399" y="289" type="curve" smooth="yes"/>
			<point x="399" y="336"/>
			<point x="385" y="363"/>
			<point x="356" y="393" type="curve"/>
			<point x="363" y="403"/>
			<point x="383" y="417"/>
			<point x="396" y="417" type="curve" smooth="yes"/>
			<point x="401" y="417"/>
			<point x="405" y="416"/>
			<point x="410" y="412" type="curve"/>
			<point x="412" y="410"/>
			<point x="414" y="408"/>
			<point x="416" y="405" type="curve"/>
			<point x="420" y="397"/>
			<point name=".hr06" x="433" y="387"/>
		</contour>
		<contour>
			<point x="172" y="-15" type="curve" smooth="yes"/>
			<point x="203" y="-15"/>
			<point x="231" y="-12"/>
			<point x="245" y="-12" type="curve" smooth="yes"/>
			<point x="295" y="-12"/>
			<point x="337" y="-13"/>
			<point x="366" y="-29" type="curve" smooth="yes"/>
			<point x="399" y="-47"/>
			<point x="412" y="-60"/>
			<point x="416" y="-79" type="curve"/>
			<point x="417" y="-83"/>
			<point x="417" y="-87"/>
			<point x="417" y="-91" type="curve" smooth="yes"/>
			<point x="417" y="-127"/>
			<point x="391" y="-155"/>
			<point x="353" y="-173" type="curve" smooth="yes"/>
			<point x="315" y="-192"/>
			<point x="266" y="-201"/>
			<point x="221" y="-201" type="curve" smooth="yes"/>
			<point x="185" y="-201"/>
			<point x="101" y="-172"/>
			<point x="101" y="-104" type="curve" smooth="yes"/>
			<point x="101" y="-99"/>
			<point x="101" y="-94"/>
			<point x="101" y="-90" type="curve"/>
			<point x="102" y="-63"/>
			<point x="107" y="-40"/>
			<point x="132" y="-10" type="curve"/>
			<point x="143" y="-13"/>
			<point x="159" y="-15"/>
		</contour>
		<contour>
			<point x="319" y="279" type="curve" smooth="yes"/>
			<point x="319" y="186"/>
			<point x="272" y="167"/>
			<point x="235" y="167" type="curve" smooth="yes"/>
			<point x="151" y="167"/>
			<point x="142" y="238"/>
			<point x="142" y="302" type="curve" smooth="yes"/>
			<point name=".hr07" x="142" y="372"/>
			<point x="167" y="408"/>
			<point x="222" y="408" type="curve" smooth="yes"/>
			<point x="285" y="408"/>
			<point x="319" y="362"/>
		</contour>
		<contour>
			<point x="228" y="511" type="curve" smooth="yes"/>
			<point x="259" y="511"/>
			<point x="275" y="531"/>
			<point x="278" y="546" type="curve"/>
			<point x="279" y="548"/>
			<point x="279" y="550"/>
			<point x="279" y="552" type="curve" smooth="yes"/>
			<point x="279" y="567"/>
			<point x="271" y="588"/>
			<point x="241" y="592" type="curve"/>
			<point x="238" y="593"/>
			<point x="233" y="593"/>
			<point x="229" y="593" type="curve" smooth="yes"/>
			<point x="223" y="593"/>
			<point x="218" y="593"/>
			<point x="215" y="592" type="curve"/>
			<point x="203" y="591"/>
			<point x="200" y="591"/>
			<point x="200" y="606" type="curve" smooth="yes"/>
			<point x="200" y="629"/>
			<point x="220" y="661"/>
			<point x="277" y="673" type="curve"/>
			<point x="277" y="680"/>
			<point x="276" y="689"/>
			<point x="272" y="693" type="curve"/>
			<point x="234" y="688"/>
			<point x="206" y="671"/>
			<point x="189" y="650" type="curve" smooth="yes"/>
			<point x="173" y="630"/>
			<point x="166" y="608"/>
			<point x="166" y="584" type="curve" smooth="yes"/>
			<point x="166" y="548"/>
			<point x="189" y="511"/>
		</contour>
	</outline>
</glyph>
<glyph name="hcircumflex" format="2">
	<unicode hex="0125"/>
	<advance width="538"/>
	<outline>
		<contour>
			<point x="456" y="122" type="curve" smooth="yes"/>
			<point x="456" y="271" type="line" smooth="yes"/>
			<point x="456" y="277"/>
			<point x="456" y="283"/>
			<point x="456" y="289" type="curve"/>
			<point x="455" y="337"/>
			<point x="449" y="378"/>
			<point x="429" y="405" type="curve" smooth="yes"/>
			<point x="412" y="427"/>
			<point x="381" y="439"/>
			<point x="346" y="439" type="curve"/>
			<point x="346" y="439"/>
			<point x="346" y="439"/>
			<point x="346" y="439" type="curve"/>
			<point x="297" y="439"/>
			<point x="237" y="426"/>
			<point x="176" y="358" type="curve"/>
			<point x="176" y="357"/>
			<point x="175" y="357"/>
			<point x="174" y="356" type="curve"/>
			<point x="173" y="354"/>
			<point x="171" y="352"/>
			<point x="169" y="351" type="curve"/>
			<point x="167" y="351"/>
			<point x="166" y="352"/>
			<point x="166" y="358" type="curve"/>
			<point x="167" y="583" type="line"/>
			<point x="167" y="648"/>
			<point x="171" y="688"/>
			<point x="171" y="688" type="curve"/>
			<point x="171" y="695"/>
			<point x="167" y="698"/>
			<point x="158" y="698" type="curve"/>
			<point x="133" y="688"/>
			<point x="58" y="674"/>
			<point x="18" y="671" type="curve"/>
			<point x="16" y="663"/>
			<point x="18" y="647"/>
			<point x="24" y="641" type="curve"/>
			<point x="27" y="641"/>
			<point x="30" y="641"/>
			<point x="33" y="641" type="curve"/>
			<point x="77" y="638"/>
			<point x="88" y="638"/>
			<point x="88" y="559" type="curve" smooth="yes"/>
			<point x="88" y="122" type="line" smooth="yes"/>
			<point x="88" y="39"/>
			<point x="76" y="35"/>
			<point x="18" y="31" type="curve"/>
			<point x="12" y="25"/>
			<point x="12" y="4"/>
			<point x="18" y="-2" type="curve"/>
			<point x="51" y="-1"/>
			<point x="88" y="0"/>
			<point x="128" y="0" type="curve" smooth="yes"/>
			<point x="134" y="0"/>
			<point x="141" y="0"/>
			<point x="147" y="0" type="curve" smooth="yes"/>
			<point x="177" y="0"/>
			<point x="204" y="-1"/>
			<point x="227" y="-2" type="curve"/>
			<point x="233" y="4"/>
			<point x="233" y="25"/>
			<point x="227" y="31" type="curve"/>
			<point x="176" y="35"/>
			<point x="167" y="39"/>
			<point x="167" y="122" type="curve" smooth="yes"/>
			<point x="167" y="286" type="line" smooth="yes"/>
			<point x="167" y="307"/>
			<point x="176" y="319"/>
			<point x="184" y="328" type="curve"/>
			<point x="214" y="357"/>
			<point x="251" y="376"/>
			<point x="284" y="384" type="curve"/>
			<point x="294" y="386"/>
			<point x="303" y="387"/>
			<point x="312" y="387" type="curve" smooth="yes"/>
			<point x="332" y="387"/>
			<point x="353" y="374"/>
			<point x="365" y="351" type="curve" smooth="yes"/>
			<point x="371" y="339"/>
			<point x="374" y="324"/>
			<point x="376" y="308" type="curve" smooth="yes"/>
			<point x="377" y="298"/>
			<point x="377" y="286"/>
			<point x="377" y="274" type="curve" smooth="yes"/>
			<point x="377" y="139" type="line"/>
			<point x="377" y="122" type="line" smooth="yes"/>
			<point x="377" y="40"/>
			<point x="367" y="36"/>
			<point x="315" y="31" type="curve"/>
			<point x="310" y="25"/>
			<point x="310" y="4"/>
			<point x="315" y="-2" type="curve"/>
			<point x="339" y="-1"/>
			<point x="367" y="0"/>
			<point x="400" y="0" type="curve" smooth="yes"/>
			<point x="406" y="0"/>
			<point x="411" y="0"/>
			<point x="417" y="0" type="curve" smooth="yes"/>
			<point x="457" y="0"/>
			<point x="490" y="-1"/>
			<point x="523" y="-2" type="curve"/>
			<point x="528" y="4"/>
			<point x="528" y="25"/>
			<point x="523" y="31" type="curve"/>
			<point x="467" y="36"/>
			<point x="456" y="40"/>
		</contour>
		<contour>
			<point x="339" y="664" type="curve"/>
			<point x="330" y="667"/>
			<point x="320" y="666"/>
			<point x="311" y="664" type="curve"/>
			<point x="284" y="616"/>
			<point x="243" y="559"/>
			<point x="211" y="517" type="curve"/>
			<point x="216" y="508"/>
			<point x="224" y="501"/>
			<point x="232" y="499" type="curve"/>
			<point x="268" y="522"/>
			<point x="295" y="551"/>
			<point x="324" y="584" type="curve"/>
			<point x="351" y="552"/>
			<point x="381" y="524"/>
			<point x="415" y="499" type="curve"/>
			<point x="423" y="501"/>
			<point x="433" y="510"/>
			<point x="437" y="517" type="curve"/>
			<point x="405" y="559"/>
			<point x="365" y="615"/>
		</contour>
	</outline>
</glyph>
<glyph name="Hbar" format="2">
	<unicode hex="0126"/>
	<advance width="730"/>
	<outline>
		<contour>
			<point x="192" y="546" type="curve"/>
			<point x="195" y="607"/>
			<point x="215" y="611"/>
			<point x="278" y="614" type="curve"/>
			<point x="284" y="620"/>
			<point x="284" y="641"/>
			<point x="278" y="647" type="curve"/>
			<point x="244" y="646"/>
			<point x="208" y="645"/>
			<point x="165" y="645" type="curve" smooth="yes"/>
			<point x="148" y="645" type="line" smooth="yes"/>
			<point x="98" y="645"/>
			<point x="57" y="646"/>
			<point x="19" y="647" type="curve"/>
			<point x="13" y="641"/>
			<point x="13" y="620"/>
			<point x="19" y="614" type="curve"/>
			<point x="82" y="611"/>
			<point x="102" y="607"/>
			<point x="105" y="546" type="curve"/>
			<point x="84" y="546"/>
			<point x="62" y="546"/>
			<point x="41" y="546" type="curve"/>
			<point x="41" y="512" type="line"/>
			<point x="63" y="512"/>
			<point x="84" y="512"/>
			<point x="106" y="512" type="curve"/>
			<point x="106" y="122" type="line" smooth="yes"/>
			<point x="106" y="39"/>
			<point x="89" y="34"/>
			<point x="19" y="31" type="curve"/>
			<point x="13" y="25"/>
			<point x="13" y="4"/>
			<point x="19" y="-2" type="curve"/>
			<point x="63" y="-1"/>
			<point x="111" y="0"/>
			<point x="149" y="0" type="curve" smooth="yes"/>
			<point x="161" y="0" type="line" smooth="yes"/>
			<point x="196" y="0"/>
			<point x="239" y="-1"/>
			<point x="278" y="-2" type="curve"/>
			<point x="284" y="4"/>
			<point x="284" y="25"/>
			<point x="278" y="31" type="curve"/>
			<point x="208" y="34"/>
			<point x="191" y="39"/>
			<point x="191" y="122" type="curve" smooth="yes"/>
			<point x="191" y="321" type="line"/>
			<point x="533" y="321" type="line"/>
			<point x="533" y="122" type="line" smooth="yes"/>
			<point x="533" y="39"/>
			<point x="516" y="34"/>
			<point x="446" y="31" type="curve"/>
			<point x="440" y="25"/>
			<point x="440" y="4"/>
			<point x="446" y="-2" type="curve"/>
			<point x="486" y="-1"/>
			<point x="528" y="0"/>
			<point x="563" y="0" type="curve" smooth="yes"/>
			<point x="576" y="0" type="line" smooth="yes"/>
			<point x="613" y="0"/>
			<point x="661" y="-1"/>
			<point x="705" y="-2" type="curve"/>
			<point x="711" y="4"/>
			<point x="711" y="25"/>
			<point x="705" y="31" type="curve"/>
			<point x="635" y="34"/>
			<point x="618" y="39"/>
			<point x="618" y="122" type="curve" smooth="yes"/>
			<point x="618" y="512" type="line"/>
			<point x="637" y="512"/>
			<point x="657" y="512"/>
			<point x="676" y="512" type="curve"/>
			<point x="676" y="546" type="line"/>
			<point x="657" y="546"/>
			<point x="638" y="546"/>
			<point x="619" y="546" type="curve"/>
			<point x="622" y="607"/>
			<point x="642" y="611"/>
			<point x="705" y="614" type="curve"/>
			<point x="711" y="620"/>
			<point x="711" y="641"/>
			<point x="705" y="647" type="curve"/>
			<point x="664" y="646"/>
			<point x="613" y="645"/>
			<point x="575" y="645" type="curve" smooth="yes"/>
			<point x="562" y="645" type="line" smooth="yes"/>
			<point x="527" y="645"/>
			<point x="485" y="646"/>
			<point x="446" y="647" type="curve"/>
			<point x="440" y="641"/>
			<point x="440" y="620"/>
			<point x="446" y="614" type="curve"/>
			<point x="509" y="611"/>
			<point x="529" y="607"/>
			<point name=".hr01" x="532" y="546" type="curve"/>
			<point x="470" y="546"/>
			<point x="408" y="546"/>
			<point x="347" y="546" type="curve" smooth="yes"/>
			<point x="295" y="546"/>
			<point x="244" y="546"/>
		</contour>
		<contour>
			<point x="533" y="512" type="curve"/>
			<point name=".hr02" x="533" y="363" type="line"/>
			<point x="191" y="363" type="line"/>
			<point x="191" y="512" type="line"/>
			<point x="328" y="512" type="line" smooth="yes"/>
			<point x="396" y="512"/>
			<point x="465" y="512"/>
		</contour>
	</outline>
</glyph>
<glyph name="Iogonek" format="2">
	<unicode hex="012E"/>
	<advance width="297"/>
	<outline>
		<contour>
			<point x="271" y="-135" type="curve"/>
			<point x="267" y="-128"/>
			<point x="261" y="-124"/>
			<point x="252" y="-124" type="curve"/>
			<point x="230" y="-146"/>
			<point x="214" y="-162"/>
			<point x="185" y="-162" type="curve" smooth="yes"/>
			<point x="179" y="-162"/>
			<point x="173" y="-161"/>
			<point x="168" y="-160" type="curve" smooth="yes"/>
			<point x="149" y="-156"/>
			<point x="139" y="-143"/>
			<point x="136" y="-128" type="curve"/>
			<point x="135" y="-124"/>
			<point x="135" y="-119"/>
			<point x="135" y="-115" type="curve" smooth="yes"/>
			<point x="135" y="-76"/>
			<point x="170" y="-22"/>
			<point x="224" y="-6" type="curve"/>
			<point x="234" y="-4"/>
			<point x="244" y="-2"/>
			<point x="255" y="-2" type="curve"/>
			<point x="255" y="-1" type="line"/>
			<point x="263" y="-2"/>
			<point x="270" y="-2"/>
			<point x="278" y="-2" type="curve"/>
			<point x="284" y="4"/>
			<point x="284" y="25"/>
			<point x="278" y="31" type="curve"/>
			<point x="208" y="34"/>
			<point name=".hr01" x="191" y="39"/>
			<point x="191" y="122" type="curve" smooth="yes"/>
			<point x="191" y="523" type="line" smooth="yes"/>
			<point x="191" y="606"/>
			<point x="208" y="611"/>
			<point x="278" y="614" type="curve"/>
			<point x="284" y="620"/>
			<point x="284" y="641"/>
			<point x="278" y="647" type="curve"/>
			<point x="234" y="646"/>
			<point x="187" y="645"/>
			<point x="148" y="645" type="curve" smooth="yes"/>
			<point x="115" y="645"/>
			<point x="66" y="646"/>
			<point x="19" y="647" type="curve"/>
			<point x="13" y="641"/>
			<point x="13" y="620"/>
			<point x="19" y="614" type="curve"/>
			<point x="89" y="611"/>
			<point x="106" y="606"/>
			<point x="106" y="523" type="curve" smooth="yes"/>
			<point x="106" y="137" type="line"/>
			<point x="106" y="122" type="line" smooth="yes"/>
			<point x="106" y="39"/>
			<point x="89" y="34"/>
			<point x="19" y="31" type="curve"/>
			<point x="13" y="25"/>
			<point x="13" y="4"/>
			<point x="19" y="-2" type="curve"/>
			<point x="64" y="-1"/>
			<point x="113" y="0"/>
			<point x="149" y="0" type="curve" smooth="yes"/>
			<point x="169" y="0" type="line"/>
			<point x="109" y="-27"/>
			<point name=".hr02" x="73" y="-84"/>
			<point x="73" y="-126" type="curve" smooth="yes"/>
			<point x="73" y="-150"/>
			<point x="81" y="-167"/>
			<point x="93" y="-179" type="curve"/>
			<point x="103" y="-188"/>
			<point x="115" y="-194"/>
			<point x="130" y="-197" type="curve" smooth="yes"/>
			<point x="139" y="-199"/>
			<point x="150" y="-200"/>
			<point x="161" y="-200" type="curve" smooth="yes"/>
			<point x="202" y="-200"/>
			<point x="242" y="-180"/>
		</contour>
	</outline>
	<anchor name="m.uni0302" x="146" y="850"/>
</glyph>
<glyph name="iogonek" format="2">
	<unicode hex="012F"/>
	<advance width="271"/>
	<outline>
		<contour>
			<point x="240" y="-124" type="curve"/>
			<point x="218" y="-146"/>
			<point x="202" y="-162"/>
			<point x="173" y="-162" type="curve" smooth="yes"/>
			<point x="136" y="-162"/>
			<point x="123" y="-141"/>
			<point x="123" y="-115" type="curve" smooth="yes"/>
			<point x="123" y="-69"/>
			<point x="172" y="-2"/>
			<point x="243" y="-2" type="curve"/>
			<point x="243" y="-2"/>
			<point x="243" y="-2"/>
			<point x="243" y="-2" type="curve"/>
			<point x="246" y="-2"/>
			<point x="250" y="-2"/>
			<point x="253" y="-2" type="curve"/>
			<point x="259" y="4"/>
			<point x="259" y="25"/>
			<point x="253" y="31" type="curve"/>
			<point x="192" y="35"/>
			<point name=".hr01" x="181" y="39"/>
			<point x="181" y="122" type="curve" smooth="yes"/>
			<point x="181" y="321" type="line" smooth="yes"/>
			<point x="181" y="371"/>
			<point x="185" y="435"/>
			<point x="185" y="435" type="curve"/>
			<point x="185" y="439"/>
			<point x="180" y="442"/>
			<point x="172" y="442" type="curve"/>
			<point x="144" y="431"/>
			<point x="104" y="422"/>
			<point x="35" y="413" type="curve"/>
			<point x="33" y="407"/>
			<point x="35" y="391"/>
			<point x="37" y="385" type="curve"/>
			<point x="92" y="380"/>
			<point x="102" y="374"/>
			<point x="102" y="317" type="curve" smooth="yes"/>
			<point x="102" y="122" type="line" smooth="yes"/>
			<point x="102" y="39"/>
			<point x="91" y="36"/>
			<point x="30" y="31" type="curve"/>
			<point x="24" y="25"/>
			<point x="24" y="4"/>
			<point x="30" y="-2" type="curve"/>
			<point x="63" y="-1"/>
			<point x="102" y="0"/>
			<point x="142" y="0" type="curve" smooth="yes"/>
			<point x="157" y="0" type="line"/>
			<point x="97" y="-27"/>
			<point name=".hr02" x="61" y="-84"/>
			<point x="61" y="-126" type="curve" smooth="yes"/>
			<point x="61" y="-180"/>
			<point x="99" y="-200"/>
			<point x="149" y="-200" type="curve" smooth="yes"/>
			<point name=".hr03" x="190" y="-200"/>
			<point x="230" y="-180"/>
			<point x="259" y="-135" type="curve"/>
			<point x="255" y="-128"/>
			<point x="249" y="-124"/>
		</contour>
		<contour>
			<point x="90" y="599" type="curve" smooth="yes"/>
			<point x="90" y="573"/>
			<point x="114" y="547"/>
			<point x="138" y="547" type="curve" smooth="yes"/>
			<point x="166" y="547"/>
			<point x="190" y="574"/>
			<point x="190" y="595" type="curve" smooth="yes"/>
			<point x="190" y="619"/>
			<point x="169" y="647"/>
			<point x="142" y="647" type="curve" smooth="yes"/>
			<point x="118" y="647"/>
			<point x="90" y="623"/>
		</contour>
	</outline>
	<anchor name="m.uni0302" x="132" y="825"/>
</glyph>
